<?xml version="1.0" encoding="utf-8"?>
<!-- Generator: Adobe Illustrator 24.1.2, SVG Export Plug-In . SVG Version: 6.00 Build 0)  -->
<svg version="1.1" id="logo_atr" xmlns="http://www.w3.org/2000/svg" xmlns:xlink="http://www.w3.org/1999/xlink" x="0px" y="0px"
	 viewBox="0 0 276.27 188" style="enable-background:new 0 0 276.27 188;" xml:space="preserve">
<style type="text/css">
	.lg0{fill:#69C3CA;stroke:url(#SVGID_1_);stroke-width:3;stroke-miterlimit:10;}
	.lg1{fill:#69C3CA;stroke:url(#SVGID_2_);stroke-width:0.75;stroke-miterlimit:10;}
	.lg2{fill:#69C3CA;stroke:url(#SVGID_3_);stroke-width:0.75;stroke-miterlimit:10;}
	.lg3{fill:#69C3CA;stroke:url(#SVGID_4_);stroke-width:3;stroke-miterlimit:10;}
	.lg4{fill:#FFFFFF;}
</style>
<g id="logo_atr_1">
	
		<linearGradient id="SVGID_1_" gradientUnits="userSpaceOnUse" x1="51.6189" y1="258.345" x2="272.2356" y2="258.345" gradientTransform="matrix(1 0 0 1 0 -164)">
		<stop  offset="0" style="stop-color:#555DF0"/>
		<stop  offset="0.1856" style="stop-color:#595FF1"/>
		<stop  offset="0.3655" style="stop-color:#6564F3"/>
		<stop  offset="0.5427" style="stop-color:#786DF6"/>
		<stop  offset="0.6397" style="stop-color:#8674F9"/>
		<stop  offset="0.9944" style="stop-color:#947BF2"/>
	</linearGradient>
	<path class="lg0" d="M254.56,11.19c-8.63,3.19-17.26,6.38-25.89,9.57c-2.16-1.06-4.31-2.13-6.47-3.19
		c1.08-2.13,2.16-4.25,3.24-6.38c-16.36,11.09-28.14,21.56-35.59,28.72c-21.91,21.04-23.69,30.08-48.54,54.25
		c-7.9,7.69-4.2,3.35-32.36,28.72c-17.02,15.33-27.29,24.96-38.83,38.29c-5.7,6.59-10.11,12.22-12.94,15.95
		c7.55-4.25,15.1-8.51,22.65-12.76c-1.08,3.19-2.16,6.38-3.24,9.57c3.24-1.06,6.47-2.13,9.71-3.19c-2.16,3.19-4.31,6.38-6.47,9.57
		c19.34-11.04,33.02-21.27,42.06-28.72c0,0,25.4-21.48,25.41-21.48c0,0-1.2,1.02-2.76,2.34l0.02-0.01
		c13.57-5.1,35.57-6.37,35.57-6.37s-3.71,4.65-6.26,10.09c-1.88,4-1.13,4.16-3.45,9.05c-1.16,2.45-3.24,6.38-3.24,6.38
		c5.8-3.66,6.47-3.19,6.47-3.19c0.71,0.5,0.25,2.26,0,3.19c0,0-0.32,6.58-3.24,12.76c-2.91,6.18-11.89,14.8-25.89,19.15
		c16.18-6.38,32.36-12.76,48.54-19.15c1.08-4.25,2.16-8.51,3.24-12.76c6.46-25.49,6.45-25.43,6.47-25.53
		c5.56-21.67,12.33-33.15,22.65-63.82c2.41-7.16,5.95-18.14,9.71-31.91c9.71-7.45,19.41-14.89,29.12-22.34
		C261.04,9.06,257.8,10.13,254.56,11.19z M186.61,110.11c-7.55-3.19-15.1-6.38-22.65-9.57c7.55-4.25,15.1-8.51,22.65-12.76
		C186.61,95.22,186.61,102.66,186.61,110.11z"/>
	
		<linearGradient id="SVGID_2_" gradientUnits="userSpaceOnUse" x1="53.955" y1="286.87" x2="53.955" y2="286.87" gradientTransform="matrix(1 0 0 1 0 -164)">
		<stop  offset="0" style="stop-color:#555DF0"/>
		<stop  offset="0.1856" style="stop-color:#595FF1"/>
		<stop  offset="0.3655" style="stop-color:#6564F3"/>
		<stop  offset="0.5427" style="stop-color:#786DF6"/>
		<stop  offset="0.6397" style="stop-color:#8674F9"/>
		<stop  offset="0.9944" style="stop-color:#947BF2"/>
	</linearGradient>
	<path class="lg1" d="M53.96,122.87"/>
	
		<linearGradient id="SVGID_3_" gradientUnits="userSpaceOnUse" x1="63.665" y1="245.39" x2="63.665" y2="245.39" gradientTransform="matrix(1 0 0 1 0 -164)">
		<stop  offset="0" style="stop-color:#555DF0"/>
		<stop  offset="0.1856" style="stop-color:#595FF1"/>
		<stop  offset="0.3655" style="stop-color:#6564F3"/>
		<stop  offset="0.5427" style="stop-color:#786DF6"/>
		<stop  offset="0.6397" style="stop-color:#8674F9"/>
		<stop  offset="0.9944" style="stop-color:#947BF2"/>
	</linearGradient>
	<path class="lg2" d="M63.67,81.39"/>
</g>
<g id="logo_atr_2">
	
		<linearGradient id="SVGID_4_" gradientUnits="userSpaceOnUse" x1="0.2387" y1="256.529" x2="207.4945" y2="256.529" gradientTransform="matrix(1 0 0 1 0 -164)">
		<stop  offset="0" style="stop-color:#555DF0"/>
		<stop  offset="0.1856" style="stop-color:#595FF1"/>
		<stop  offset="0.3655" style="stop-color:#6564F3"/>
		<stop  offset="0.5427" style="stop-color:#786DF6"/>
		<stop  offset="0.6397" style="stop-color:#8674F9"/>
		<stop  offset="0.9944" style="stop-color:#947BF2"/>
	</linearGradient>
	<path class="lg3" d="M72.63,100.54l3.24-9.57c0.72-2.31,1.8-5.62,3.24-9.57c2.26-6.24,4.2-10.72,6.47-15.95
		c3.92-9.03,6.91-15.92,9.71-22.34c2.89-8.05,5.38-13.9,6.47-15.95c0.52-0.98,1.54-2.28,3.24-3.19c2.91-1.56,5.7-0.56,9.71,0
		c6.88,0.96,6.52-0.88,12.94,0c2.55,0.35,11.4,1.57,12.94,6.38c0.42,1.31,0.18,2.5,0,3.19c-2.13,8.22-23.19,51.87-25.89,57.44
		c4.31,0,8.63,0,12.94,0c4.31,0,8.63,0,12.94,0c6.36-17.74,11.96-28.4,16.18-35.1c1.5-2.38,5.12-7.9,6.47-15.95
		c0.88-5.25,0.49-9.75,0-12.76c1.33-0.84,3.55-2.11,6.47-3.19c7.09-2.62,9.31-0.79,16.18-3.19c5.27-1.84,6.38-3.76,9.71-3.19
		c2.94,0.5,5.74,2.63,6.47,3.19c1.03,0.79,2.49,1.9,3.24,3.19c2.4,4.15-2.05,10.93-3.24,12.76c-5.33,8.26-15.38,26.21-29.12,51.05
		c6.47-1.06,12.94-2.13,19.41-3.19c-4.94,2.46-10.44,5.59-16.18,9.57c-4.66,3.23-8.71,6.49-12.2,9.57
		c-11.03,21.27-22.07,42.55-33.1,63.82c-3.24,0-6.47,0-9.71,0c0.95-7.71,2.16-14.17,3.24-19.15c1.5-6.95,2.87-11.55,3.24-12.76
		c1.16-3.85,2.3-7.09,3.24-9.57c1.08-4.25,2.16-8.51,3.24-12.76c-4.31,0-8.63,0-12.94,0c-6.47,1.06-12.94,2.13-19.41,3.19
		c-11.86,15.95-23.73,31.91-35.59,47.86c-1.15-1.13-2.29-2.26-3.44-3.39c-1.01-1-2.02-1.99-3.03-2.99
		c2.16-12.76,4.31-25.53,6.47-38.29c-9.76,4.35-19.59,8.69-29.47,13.03c-8.44,3.7-16.84,7.35-25.23,10.97
		c4.29-3.19,34.92-24,39.26-27.19C58.05,111.1,65.35,105.78,72.63,100.54z"/>
</g>
<g id="logo_atr_3">
	<path class="lg4" d="M112.21,64.48c-1.54,1.68-3.07,3.36-4.61,5.04c-2.12,0.41-4.23,0.83-6.35,1.24c1.48,1.55,2.95,3.1,4.43,4.65
		c0.26,2.25,0.52,4.5,0.78,6.75c1.54-1.68,3.07-3.36,4.61-5.04c2.12-0.41,4.23-0.83,6.35-1.24c-1.48-1.55-2.95-3.1-4.43-4.65
		C112.72,68.97,112.47,66.73,112.21,64.48z"/>
	<path class="lg4" d="M199.74,86.87c-1.47,1.52-2.93,3.05-4.4,4.57c-2.05,0.34-4.1,0.69-6.16,1.03c1.47,1.46,2.93,2.91,4.4,4.37
		c0.29,2.08,0.59,4.16,0.88,6.24c1.47-1.52,2.93-3.05,4.4-4.57c2.05-0.34,4.1-0.69,6.16-1.03c-1.47-1.46-2.93-2.91-4.4-4.37
		C200.32,91.02,200.02,88.94,199.74,86.87z"/>
</g>
</svg>
