<?xml version="1.0" encoding="UTF-8" standalone="no"?>
<!DOCTYPE svg PUBLIC "-//W3C//DTD SVG 1.1//EN" "http://www.w3.org/Graphics/SVG/1.1/DTD/svg11.dtd">
<svg width="1100.40" height="229.20" viewBox="0.00 0.00 9170.00 1910.00" xmlns="http://www.w3.org/2000/svg" xmlns:xlink="http://www.w3.org/1999/xlink">
<g stroke-linecap="round" id="_Stars_1">
<path d="M-804.74,816.93 C-796.24,815.77 -775.08,812.85 -762.41,811.09 C-746.96,809.04 -706.74,806.05 -683.04,804.96 C-658.17,804.43 -606.08,803.70 -578.87,803.50 C-547.48,803.55 -481.49,803.82 -446.89,804.03 C-411.24,804.21 -338.96,804.52 -302.32,804.66 C-266.43,804.76 -194.81,804.93 -159.08,805.01 C-122.49,805.05 -48.64,805.10 -11.37,805.11 C21.94,805.08 82.46,805.01 109.67,804.95 C121.00,804.91 142.13,804.83 151.94,804.78 C159.35,804.73 178.33,803.52 179.87,803.48 C183.12,803.43 189.06,804.58 191.98,805.97 C195.07,807.47 202.24,812.98 204.46,814.07 C206.40,814.99 211.41,816.58 213.38,816.93 C214.47,817.12 281.61,817.97 308.71,818.17 C342.33,818.13 414.25,817.90 452.55,817.71 C489.23,817.53 560.49,817.21 595.06,817.08 C628.67,816.98 696.26,816.81 730.24,816.75 C761.99,816.73 823.37,816.74 853.00,816.77 C883.12,816.80 944.90,816.87 976.57,816.90 C1008.70,816.91 1069.54,816.93 1098.26,816.93 C1128.09,816.93 1188.88,816.93 1219.83,816.93 C1251.89,816.93 1317.00,816.93 1350.04,816.93 C1384.06,816.93 1453.06,816.93 1488.04,816.93 C1521.55,816.94 1588.70,816.98 1622.36,817.00 C1656.98,817.02 1727.18,817.07 1762.77,817.10 C1798.15,817.12 1865.50,817.15 1897.48,817.14 C1925.88,817.12 1979.09,817.03 2003.90,816.98 C2043.01,816.73 2113.89,816.08 2145.67,815.67 C2157.40,815.75 2182.51,816.76 2186.85,817.85 C2190.81,818.87 2195.73,821.39 2198.96,823.96 C2201.37,825.70 2209.14,828.56 2213.03,829.13 C2214.59,829.34 2287.07,830.27 2316.81,830.48 C2354.16,830.44 2431.37,830.21 2471.23,830.01 C2505.48,829.81 2568.27,829.42 2596.82,829.22 C2638.98,828.73 2716.47,827.60 2728.22,828.23 C2730.18,828.38 2735.69,828.91 2735.70,828.91 C2738.16,829.14 2745.75,831.73 2748.35,834.04 C2749.53,835.22 2751.92,837.48 2753.63,838.45 C2757.14,840.42 2763.88,841.38 2765.56,841.45 C2784.23,841.84 2827.45,842.40 2852.00,842.57 C2882.44,842.51 2948.18,842.25 2983.49,842.04 C3021.47,841.87 3100.01,841.57 3140.57,841.43 C3178.92,841.35 3251.27,841.24 3285.26,841.21 C3320.74,841.20 3393.20,841.21 3430.18,841.23 C3468.65,841.28 3543.81,841.36 3580.49,841.40 C3612.11,841.42 3670.29,841.43 3696.85,841.43 C3708.23,841.41 3729.72,841.38 3739.83,841.36 C3756.54,841.32 3766.69,840.09 3766.81,840.08 C3769.71,839.90 3775.11,841.82 3777.93,843.40 C3780.40,844.82 3786.35,848.91 3789.06,850.01 C3795.85,852.68 3814.54,854.57 3821.26,854.77 C3835.64,855.10 3900.89,852.16 3902.27,852.13 C3905.10,852.08 3910.95,852.77 3913.96,853.51 C3920.10,855.06 3934.45,862.44 3940.26,863.87 C3947.46,865.60 3964.93,867.03 3973.89,867.08 C3980.79,867.07 4000.81,866.43 4008.75,866.14 C4018.58,865.68 4028.21,864.33 4028.36,864.32 C4031.57,864.19 4044.83,868.71 4052.38,871.80 C4059.74,874.74 4075.37,877.68 4085.46,878.57 C4097.77,879.52 4133.43,878.55 4148.66,878.03 C4157.45,877.59 4176.17,876.44 4178.90,876.57 C4184.76,876.87 4197.78,880.39 4206.13,883.99 C4214.43,887.57 4228.73,891.12 4235.55,891.42 C4239.12,891.56 4257.55,890.35 4265.18,889.87 C4273.16,889.42 4290.59,888.47 4297.13,889.07 C4300.63,889.41 4308.16,890.89 4311.40,891.92 C4315.08,893.12 4323.27,897.30 4324.37,897.81 C4330.65,900.66 4346.17,903.14 4352.97,903.48 C4360.25,903.82 4401.75,902.48 4419.66,901.96 C4437.44,901.53 4474.19,900.76 4487.95,901.30 C4496.26,901.74 4504.16,903.23 4506.97,904.70 C4509.23,905.92 4512.14,910.79 4514.78,912.06 C4519.44,914.23 4535.61,915.80 4544.10,915.86 C4552.51,915.84 4601.40,914.01 4612.67,913.24 C4616.11,913.02 4621.76,913.31 4624.52,913.84 C4627.26,914.38 4632.82,916.26 4635.56,917.62 C4637.01,918.36 4644.02,922.68 4647.70,923.83 C4656.29,926.44 4672.65,927.00 4678.73,927.21 C4701.34,927.51 4792.40,925.83 4814.28,926.13 C4817.31,926.22 4823.10,926.42 4825.86,926.54 C4829.28,926.65 4837.88,928.46 4840.85,930.06 C4842.62,931.05 4847.08,935.57 4850.59,936.90 C4855.96,938.87 4871.19,939.78 4879.60,939.42 C4888.61,938.86 4906.24,937.95 4913.28,938.31 C4917.29,938.53 4925.00,939.54 4928.78,940.58 C4932.93,941.74 4938.62,944.96 4941.42,946.66 C4944.21,948.17 4951.74,950.38 4956.46,951.06 C4966.75,952.47 5003.01,949.67 5017.43,951.06 C5024.94,951.80 5039.43,954.75 5047.29,957.15 C5055.12,959.54 5070.17,962.49 5078.39,963.25 C5093.86,964.65 5130.36,962.03 5142.40,962.94 C5146.47,963.28 5155.49,964.96 5159.41,966.53 C5161.97,967.59 5168.50,971.86 5171.20,973.29 C5173.96,974.73 5180.16,976.91 5182.91,976.82 C5183.45,976.80 5210.64,974.07 5213.91,974.06 C5217.95,974.06 5225.04,975.33 5228.02,976.69 C5231.18,978.18 5236.59,983.81 5238.80,984.87 C5242.54,986.63 5249.50,987.69 5254.72,988.02 C5272.73,988.86 5340.13,987.73 5356.59,987.51 C5359.76,987.52 5372.25,987.57 5374.96,988.48 C5376.47,989.01 5382.89,993.64 5385.64,995.16 C5389.36,997.17 5395.11,999.13 5401.51,999.83 C5407.79,1000.47 5446.97,1000.19 5464.44,999.93 C5481.58,999.39 5517.31,998.18 5526.87,999.41 C5530.23,999.87 5537.26,1001.58 5540.31,1002.98 C5542.47,1003.99 5547.86,1008.07 5551.03,1009.18 C5558.51,1011.73 5574.63,1012.43 5580.99,1012.61 C5595.39,1012.76 5631.30,1012.11 5650.61,1011.61 C5668.41,1011.32 5703.50,1011.74 5712.83,1012.47 C5718.70,1012.93 5728.44,1014.39 5731.82,1015.30 C5735.20,1016.25 5739.67,1019.05 5740.82,1019.60 C5745.18,1021.67 5759.02,1024.14 5766.26,1024.35 C5790.57,1024.77 5846.46,1025.38 5878.03,1025.57 C5916.87,1025.54 5997.00,1025.32 6038.29,1025.14 C6072.51,1024.96 6133.60,1024.59 6160.48,1024.40 C6181.52,1024.22 6204.98,1022.68 6210.40,1023.15 C6219.03,1023.94 6259.91,1033.66 6271.30,1035.36 C6276.43,1036.11 6290.40,1037.34 6295.88,1037.58 C6303.90,1037.71 6341.18,1036.81 6363.35,1036.46 C6393.99,1036.37 6461.90,1036.35 6499.18,1036.42 C6534.00,1036.47 6609.39,1036.45 6621.96,1035.88 C6634.77,1035.14 6642.25,1035.42 6648.12,1037.22 C6653.41,1038.89 6668.36,1046.10 6676.97,1047.78 C6689.28,1050.14 6705.05,1049.97 6738.90,1048.89 C6756.09,1048.42 6791.52,1047.59 6809.77,1047.22 C6817.96,1047.26 6832.13,1047.77 6837.70,1048.30 C6841.58,1048.69 6850.70,1050.57 6853.93,1052.20 C6855.37,1052.95 6860.21,1057.58 6863.39,1058.88 C6866.92,1060.28 6873.56,1060.88 6875.81,1060.95 C6899.52,1061.40 6966.70,1061.18 7004.52,1060.83 C7043.18,1060.45 7109.51,1060.31 7137.18,1060.56 C7138.54,1060.59 7145.68,1060.75 7149.67,1061.60 C7154.00,1062.56 7159.49,1064.97 7163.69,1067.67 C7166.44,1069.45 7172.27,1072.05 7175.59,1072.99 C7178.23,1073.71 7183.74,1074.32 7186.73,1074.23 C7205.48,1073.07 7233.57,1072.96 7248.81,1073.01 C7265.15,1073.02 7298.75,1072.57 7316.02,1072.12 C7327.08,1071.68 7338.16,1071.85 7343.77,1072.58 C7347.16,1073.05 7354.70,1074.96 7357.82,1076.58 C7359.67,1077.56 7365.25,1081.96 7368.79,1083.25 C7372.74,1084.65 7379.57,1085.27 7381.83,1085.35 C7405.63,1085.80 7473.13,1085.50 7511.12,1085.09 C7531.01,1084.84 7568.17,1084.52 7585.45,1084.44 C7600.12,1084.54 7635.94,1085.01 7638.92,1085.18 C7645.02,1085.52 7656.17,1086.72 7660.46,1087.47 C7668.37,1088.90 7677.78,1093.69 7683.80,1095.08 C7690.38,1096.56 7703.56,1097.68 7712.82,1098.01 C7727.53,1098.20 7767.84,1096.63 7780.29,1096.66 C7787.56,1096.83 7804.35,1097.75 7812.59,1099.44 C7819.50,1100.89 7831.95,1106.77 7838.98,1108.33 C7845.64,1109.78 7861.34,1110.53 7870.03,1109.93 C7882.56,1108.92 7895.51,1108.73 7901.07,1109.56 C7905.78,1110.31 7912.66,1112.75 7915.12,1114.53 C7918.44,1117.16 7923.37,1119.76 7927.30,1120.81 C7933.32,1122.37 7947.98,1123.31 7957.05,1122.99 C7973.86,1122.28 8018.18,1120.30 8022.42,1120.42 C8025.94,1120.52 8032.57,1121.22 8035.20,1121.76 C8039.59,1122.68 8046.51,1125.29 8049.36,1127.09 C8053.27,1129.71 8058.34,1132.20 8061.94,1133.15 C8065.36,1134.02 8072.49,1134.72 8076.18,1134.68 C8080.10,1134.62 8090.12,1133.52 8092.69,1133.36 C8096.78,1133.13 8104.64,1133.42 8108.36,1133.95 C8111.58,1134.43 8118.01,1136.09 8121.03,1137.23 C8123.25,1138.09 8130.29,1141.51 8133.38,1142.53 C8140.49,1144.83 8157.16,1146.88 8165.39,1147.23 C8176.31,1147.60 8222.71,1146.22 8229.52,1145.86 C8235.66,1145.57 8239.64,1145.60 8242.48,1146.14 C8243.17,1146.28 8260.15,1152.09 8268.26,1154.43 C8274.59,1156.15 8289.34,1160.04 8296.70,1161.44 C8309.56,1163.87 8346.86,1167.67 8364.66,1168.90 C8381.08,1169.81 8406.07,1170.66 8412.12,1170.55 C8417.19,1170.45 8425.11,1169.60 8425.94,1169.53 C8428.53,1169.36 8434.43,1169.86 8437.57,1170.53 C8443.87,1171.92 8461.58,1179.64 8465.86,1180.86 C8473.50,1183.00 8489.36,1184.35 8499.39,1183.84 C8506.72,1183.39 8527.19,1181.35 8527.31,1181.34 C8530.42,1181.21 8543.74,1185.39 8553.03,1188.82 C8561.00,1191.76 8576.90,1195.05 8585.68,1195.77 C8596.55,1196.63 8632.66,1194.92 8647.13,1193.56 C8651.44,1193.30 8665.32,1197.27 8670.89,1199.29 C8674.36,1200.57 8681.49,1203.13 8685.90,1204.17 C8694.36,1206.12 8711.23,1207.56 8720.18,1207.79 C8735.32,1207.89 8774.39,1206.09 8785.24,1206.67 C8789.61,1206.95 8796.69,1207.70 8800.44,1208.47 C8804.50,1209.33 8809.90,1211.47 8812.35,1213.21 C8814.79,1214.94 8820.27,1217.08 8824.39,1217.94 C8830.30,1219.14 8844.08,1219.95 8853.72,1220.04 C8861.68,1219.93 8879.53,1219.22 8888.76,1218.80 C8897.55,1218.60 8913.98,1218.73 8921.61,1219.07 C8929.86,1219.54 8945.74,1221.63 8952.70,1223.21 C8956.27,1224.03 8972.72,1228.47 8980.88,1229.66 C8989.02,1230.84 9002.74,1231.79 9013.13,1232.12 C9028.96,1232.33 9069.15,1230.82 9081.58,1230.76 C9088.94,1230.87 9105.32,1231.63 9111.81,1232.49 C9116.29,1233.10 9123.89,1234.74 9126.92,1235.75 C9128.82,1236.40 9134.93,1239.09 9138.15,1240.07 C9144.55,1242.00 9158.39,1243.94 9166.42,1244.51 C9180.31,1245.20 9213.90,1244.47 9230.57,1244.02 C9247.29,1243.53 9288.74,1242.27 9296.09,1242.34 C9303.30,1242.47 9317.19,1243.72 9323.27,1245.03 C9330.68,1246.64 9342.44,1252.25 9349.14,1253.69 C9356.65,1255.27 9373.81,1256.63 9380.91,1256.96 C9398.52,1257.45 9465.21,1255.70 9482.09,1255.12 C9494.19,1254.51 9501.68,1254.48 9507.59,1255.37 C9513.79,1256.33 9523.81,1259.26 9532.39,1262.63 C9539.07,1265.13 9555.58,1267.82 9565.26,1268.58 C9581.99,1269.57 9661.57,1268.26 9696.28,1267.97 C9747.86,1268.30 9760.20,1267.87 9767.55,1266.87 C9772.47,1266.47 9786.02,1269.85 9794.53,1272.32 C9806.27,1275.94 9819.15,1279.11 9827.57,1280.27 C9835.95,1281.40 9849.09,1281.73 9860.40,1281.21 C9867.02,1280.84 9884.42,1279.64 9887.38,1279.21 C9892.26,1278.53 9905.14,1281.19 9913.19,1283.42 C9917.06,1284.57 9937.67,1290.51 9945.57,1291.85 C9953.69,1293.21 9967.57,1294.02 9975.71,1293.60 C9990.98,1292.84 10032.34,1290.89 10038.38,1291.28 C10041.29,1291.48 10048.06,1292.53 10051.27,1293.69 C10055.05,1295.08 10060.30,1300.95 10061.86,1301.79 C10065.15,1303.52 10072.19,1304.78 10076.83,1305.18 C10087.89,1305.98 10124.78,1305.69 10143.25,1305.34 C10159.04,1304.90 10203.75,1303.27 10205.17,1303.31 C10210.97,1303.52 10224.66,1305.83 10231.83,1307.81 C10235.65,1308.87 10255.10,1314.89 10262.72,1316.24 C10270.58,1317.60 10284.06,1318.39 10292.80,1317.98 C10307.77,1317.22 10346.18,1315.29 10352.87,1315.67 C10360.35,1316.11 10375.34,1318.88 10382.91,1321.22 C10385.24,1321.95 10394.26,1325.05 10398.10,1326.10 C10405.59,1328.11 10420.07,1329.93 10427.19,1329.74 C10430.86,1329.62 10448.98,1328.03 10457.36,1328.65 C10464.46,1329.20 10480.24,1332.00 10488.33,1334.04 C10499.97,1337.08 10512.14,1339.77 10519.23,1340.80 C10523.11,1341.35 10531.64,1342.00 10535.85,1341.96 C10540.03,1341.91 10548.54,1340.80 10550.73,1340.65 C10557.82,1340.17 10571.81,1342.20 10578.88,1344.52 C10586.01,1347.16 10600.42,1352.18 10607.92,1353.42 C10616.16,1354.76 10628.58,1354.82 10641.30,1354.10 C10651.59,1353.39 10661.14,1352.05 10661.31,1352.05 C10663.47,1351.96 10671.28,1354.09 10674.71,1355.26 C10678.24,1356.47 10698.36,1364.12 10705.47,1365.62 C10708.92,1366.33 10715.17,1366.95 10717.88,1366.86 C10734.86,1365.71 10765.65,1365.59 10782.62,1365.64 C10797.61,1365.65 10818.16,1365.61 10825.76,1364.38 C10828.09,1364.20 10834.67,1365.94 10839.28,1367.51 C10842.85,1368.77 10863.32,1376.66 10870.07,1377.81 C10874.50,1378.54 10881.33,1378.54 10885.44,1377.81 C10889.54,1377.08 10896.17,1377.08 10900.56,1377.81 C10905.97,1378.75 10923.69,1385.59 10926.95,1386.61 C10934.44,1388.93 10949.63,1390.76 10957.36,1390.82 C10963.85,1390.85 10982.33,1389.51 10989.10,1389.47 C10996.97,1389.43 11011.61,1390.61 11018.89,1391.88 C11025.64,1393.07 11038.62,1396.57 11047.93,1398.75 C11061.61,1401.63 11093.86,1406.47 11110.25,1408.49 C11126.24,1410.46 11155.28,1414.28 11168.33,1416.13 C11178.86,1417.86 11199.61,1421.43 11216.53,1423.17 C11249.85,1425.99 11314.69,1429.62 11342.62,1431.14 C11376.15,1432.84 11448.80,1436.46 11487.92,1438.37 C11529.76,1440.35 11607.44,1444.03 11643.28,1445.72 C11672.52,1447.11 11724.40,1449.56 11747.05,1450.64 C11749.41,1450.75 11752.92,1450.91 11754.07,1450.97" fill="none" stroke="rgb(255, 255, 255)" stroke-width="1700.00" stroke-opacity="1.00" stroke-linejoin="round"/>
<path d="M9498.36,268.25 C9477.30,260.20 9426.51,240.79 9396.78,229.43 C9358.99,215.00 9286.31,187.39 9251.40,174.21 C9236.54,168.69 9208.54,158.37 9195.40,153.56 C9181.82,148.73 9139.08,134.32 9125.64,130.57 C9120.46,129.21 9057.67,118.15 9034.51,113.81 C8998.19,106.32 8930.44,92.18 8899.00,85.51 C8861.54,77.39 8791.78,62.22 8759.47,55.16 C8748.22,52.71 8733.58,49.51 8730.20,48.77" fill="none" stroke="rgb(255, 255, 255)" stroke-width="1700.00" stroke-opacity="1.00" stroke-linejoin="round"/>
<path d="M8949.67,73.16 C8928.93,87.27 8877.08,122.57 8845.96,143.75 C8819.64,161.61 8769.84,195.16 8746.37,210.85 C8738.94,215.54 8705.34,234.24 8687.52,243.86 C8661.47,257.23 8602.24,287.09 8569.06,303.60 C8538.02,318.92 8482.76,346.28 8458.55,358.31 C8446.36,364.68 8423.09,376.35 8408.70,382.51 C8395.21,388.07 8366.11,400.11 8350.18,407.09 C8333.93,414.56 8304.96,428.76 8290.16,436.19 C8275.49,443.78 8247.96,457.77 8236.38,463.33 C8215.75,472.79 8191.73,481.49 8178.71,486.43 C8159.21,494.26 8104.53,517.98 8070.89,532.73 C8044.54,544.32 7985.68,570.24 7953.18,584.56 C7915.32,601.26 7844.15,632.64 7810.85,647.32 C7785.04,658.70 7744.81,676.44 7730.37,682.81" fill="none" stroke="rgb(255, 255, 255)" stroke-width="1700.00" stroke-opacity="1.00" stroke-linejoin="round"/>
<path d="M182.90,1572.90 C179.71,1583.32 171.57,1609.82 166.62,1625.91 C163.65,1634.63 157.22,1651.73 153.76,1660.11 C147.41,1674.55 135.51,1698.25 127.56,1712.49 C120.56,1724.22 105.56,1748.05 97.36,1762.76 C88.88,1778.71 73.18,1810.83 66.33,1825.31 C60.64,1837.93 49.02,1864.30 43.07,1878.05 C36.86,1892.91 24.21,1923.70 17.77,1939.62 C11.69,1955.71 0.06,1987.75 -5.48,2003.70 C-10.61,2019.55 -20.07,2051.06 -24.39,2066.72 C-28.57,2082.89 -36.06,2115.08 -39.37,2131.08 C-42.39,2147.03 -47.55,2178.76 -49.70,2194.53 C-51.74,2210.22 -56.95,2241.13 -60.13,2256.34 C-63.70,2271.38 -72.01,2300.99 -76.74,2315.55 C-83.63,2334.90 -96.00,2364.89 -103.90,2381.30 C-112.08,2397.62 -128.25,2425.75 -140.38,2444.91 C-155.89,2469.29 -177.15,2502.71 -182.90,2511.76" fill="none" stroke="rgb(255, 255, 255)" stroke-width="1700.00" stroke-opacity="1.00" stroke-linejoin="round"/>
<path d="M4060.27,-48.77 C4078.15,-41.02 4090.23,-36.73 4106.38,-31.87 C4128.71,-25.23 4179.58,-10.19 4208.14,-1.79 C4242.51,8.25 4312.22,28.49 4347.54,38.70 C4382.36,48.64 4452.17,68.46 4487.15,78.33 C4523.64,88.50 4596.06,108.56 4632.00,118.44 C4666.94,127.92 4731.15,145.40 4760.43,153.39 C4782.79,159.61 4821.98,170.58 4822.34,170.70 C4829.67,173.24 4839.21,179.20 4848.42,183.73 C4854.45,186.55 4887.09,199.43 4907.69,207.28 C4928.84,215.08 4975.27,232.17 5000.54,241.47 C5029.92,252.27 5092.80,275.36 5126.29,287.65 C5163.90,301.45 5242.29,330.19 5283.07,345.15 C5320.63,358.91 5391.32,384.83 5424.44,396.97 C5453.14,407.49 5506.09,426.90 5530.36,435.80 C5550.19,443.07 5571.12,450.74 5572.21,451.14" fill="none" stroke="rgb(255, 255, 255)" stroke-width="1700.00" stroke-opacity="1.00" stroke-linejoin="round"/>
<path d="M2621.50,1755.79 C2612.77,1753.57 2574.30,1743.39 2564.31,1743.57 C2564.01,1743.58 2491.67,1744.42 2463.11,1745.09 C2446.38,1745.65 2407.84,1747.12 2393.92,1748.40 C2384.99,1749.41 2367.19,1752.01 2358.32,1753.60 C2349.45,1755.39 2331.78,1759.54 2322.96,1761.91 C2314.16,1764.47 2296.61,1770.17 2287.85,1773.32 C2279.11,1776.65 2261.68,1783.91 2252.99,1787.83 C2236.25,1795.76 2206.58,1812.05 2192.51,1820.74 C2178.47,1829.81 2150.52,1849.52 2136.61,1860.15 C2122.73,1871.31 2095.11,1895.18 2081.35,1907.90 C2061.47,1927.11 2004.46,1986.36 1981.44,2010.25 C1963.11,2029.13 1934.11,2058.87 1923.44,2069.74 C1922.12,2071.06 1917.32,2075.34 1913.70,2076.27 C1911.38,2076.88 1909.38,2077.79 1908.21,2078.91 C1906.58,2080.53 1902.96,2089.50 1902.11,2091.10 C1901.18,2092.83 1899.70,2094.77 1898.61,2095.58 C1896.39,2097.19 1888.42,2100.39 1887.02,2101.16 C1884.07,2102.82 1879.71,2107.00 1876.43,2110.93 C1873.94,2113.77 1869.08,2117.34 1865.53,2118.54 C1861.94,2119.75 1857.13,2123.31 1854.57,2126.28 C1851.28,2130.26 1846.87,2134.41 1844.21,2135.42 C1843.79,2135.58 1839.10,2136.71 1838.08,2137.31 C1835.55,2138.84 1831.20,2145.04 1828.77,2149.63 C1827.32,2152.37 1825.87,2154.76 1824.72,2156.27 C1823.69,2157.54 1821.25,2159.27 1820.16,2159.33 C1819.47,2159.35 1815.64,2157.46 1814.65,2157.42 C1811.96,2157.31 1805.17,2160.90 1802.71,2162.64 C1791.35,2170.75 1768.55,2194.63 1766.11,2197.01 C1763.69,2199.35 1757.77,2204.20 1755.55,2204.79 C1752.17,2205.67 1749.61,2206.98 1746.42,2208.96 C1742.31,2211.61 1732.98,2217.71 1727.77,2221.18 C1721.22,2225.58 1708.49,2237.60 1700.81,2246.65 C1691.52,2257.63 1683.76,2269.03 1680.39,2273.94 C1664.85,2297.52 1630.42,2351.02 1611.53,2380.95 C1590.03,2415.94 1550.08,2480.98 1531.65,2511.04 C1517.49,2534.04 1497.25,2566.91 1491.16,2576.77 C1488.18,2581.57 1479.83,2593.37 1475.35,2603.21 C1473.20,2607.97 1457.05,2649.91 1452.39,2660.92 C1445.09,2677.58 1434.32,2697.39 1425.34,2715.52 C1419.83,2727.20 1406.57,2755.87 1401.68,2767.63 C1395.07,2784.51 1383.34,2817.88 1377.99,2833.80 C1367.95,2866.55 1355.67,2906.71 1353.42,2914.13" fill="none" stroke="rgb(255, 255, 255)" stroke-width="1700.00" stroke-opacity="1.00" stroke-linejoin="round"/>
<path d="M2688.96,1067.37 C2687.52,1068.29 2684.05,1070.50 2682.03,1071.80 C2677.58,1074.63 2673.54,1076.67 2668.60,1077.76 C2658.53,1079.89 2640.70,1079.57 2633.90,1079.35 C2618.80,1078.60 2581.75,1075.62 2561.81,1073.82 C2531.28,1070.83 2498.38,1067.60 2496.01,1067.37" fill="none" stroke="rgb(255, 255, 255)" stroke-width="1700.00" stroke-opacity="1.00" stroke-linejoin="round"/>
<path d="M2699.22,1449.16 C2710.55,1471.44 2738.94,1527.25 2755.99,1560.78 C2774.06,1596.31 2804.54,1656.24 2816.95,1680.63 C2818.10,1682.89 2819.79,1686.21 2820.33,1687.27" fill="none" stroke="rgb(255, 255, 255)" stroke-width="1700.00" stroke-opacity="1.00" stroke-linejoin="round"/>
<path d="M2528.85,1941.80" fill="none" stroke="rgb(255, 255, 255)" stroke-width="1700.00" stroke-opacity="1.00" stroke-linejoin="round"/>
<path d="M2524.75,1679.06 C2524.75,1679.06 2524.75,1674.95 2524.75,1674.95" fill="none" stroke="rgb(255, 255, 255)" stroke-width="800.00" stroke-opacity="1.00" stroke-linejoin="round"/>
<path d="M2483.69,1662.64 C2456.40,1668.86 2391.29,1683.70 2353.48,1692.32 C2340.16,1695.35 2314.95,1701.03 2303.06,1703.69" fill="none" stroke="rgb(255, 255, 255)" stroke-width="800.00" stroke-opacity="1.00" stroke-linejoin="round"/>
<path d="M2164.94,106.37 C2135.35,113.31 2086.94,124.43 2070.25,127.82 C2062.96,129.11 2044.01,132.24 2035.89,132.93 C2029.95,133.41 2020.66,133.34 2017.48,132.79 C2009.73,131.20 2001.23,130.80 1995.89,132.02 C1992.80,132.75 1987.55,135.04 1983.88,137.28 C1980.46,139.34 1972.67,142.04 1967.36,143.02 C1961.86,144.01 1926.50,144.91 1911.82,145.14 C1873.45,144.97 1801.21,144.47 1767.35,144.13 C1719.68,143.71 1705.03,143.87 1701.92,143.91" fill="none" stroke="rgb(255, 255, 255)" stroke-width="800.00" stroke-opacity="1.00" stroke-linejoin="round"/>
<path d="M600.68,18.77 C593.78,20.73 579.96,24.67 573.04,26.65 C565.16,28.88 554.11,30.59 541.20,31.94 C524.80,33.35 491.72,35.92 475.03,37.07 C465.23,37.61 454.18,37.36 447.82,37.05 C443.69,37.07 431.91,39.04 424.67,40.69 C417.57,42.27 401.85,43.65 390.40,44.03 C378.38,44.23 335.13,43.38 324.37,43.49 C321.46,43.58 314.70,43.79 310.90,44.52 C307.49,45.20 302.63,48.83 299.18,49.44 C290.86,50.86 258.53,48.80 250.99,49.29 C246.83,49.59 238.58,51.01 234.80,52.43 C231.31,53.78 223.98,58.96 221.94,60.05 C218.84,61.68 212.21,63.63 208.55,63.87 C205.72,64.02 185.89,62.07 180.20,62.13 C175.48,62.18 156.71,64.28 152.66,65.09 C137.86,68.11 83.71,86.78 81.34,87.60" fill="none" stroke="rgb(255, 255, 255)" stroke-width="800.00" stroke-opacity="1.00" stroke-linejoin="round"/>
<path d="M5647.61,1580.25" fill="none" stroke="rgb(255, 255, 255)" stroke-width="2000.00" stroke-opacity="1.00" stroke-linejoin="round"/>
<path d="M2361.40,763.19" fill="none" stroke="rgb(255, 255, 255)" stroke-width="800.00" stroke-opacity="1.00" stroke-linejoin="round"/>
<path d="M430.98,466.89 C456.76,466.89 522.27,466.89 562.00,466.89 C596.02,466.89 642.75,466.89 655.45,466.89" fill="none" stroke="rgb(255, 255, 255)" stroke-width="800.00" stroke-opacity="1.00" stroke-linejoin="round"/>
<path d="M7245.82,484.85 C7245.82,484.85 7254.80,484.85 7254.80,484.85" fill="none" stroke="rgb(255, 255, 255)" stroke-width="800.00" stroke-opacity="1.00" stroke-linejoin="round"/>
<path d="M8538.76,1409.66" fill="none" stroke="rgb(255, 255, 255)" stroke-width="800.00" stroke-opacity="1.00" stroke-linejoin="round"/>
<path d="M1391.70,1355.79" fill="none" stroke="rgb(255, 255, 255)" stroke-width="800.00" stroke-opacity="1.00" stroke-linejoin="round"/>
</g>
</svg>
