<?xml version="1.0" encoding="utf-8"?>
<!-- Generator: Adobe Illustrator 24.1.2, SVG Export Plug-In . SVG Version: 6.00 Build 0)  -->
<svg version="1.1" id="Layer_1" xmlns="http://www.w3.org/2000/svg" xmlns:xlink="http://www.w3.org/1999/xlink" x="0px" y="0px"
	 viewBox="0 0 400 400" style="enable-background:new 0 0 400 400;" xml:space="preserve">
<style type="text/css">
	.st0{fill:#FF0000;}
</style>
<g>
	<path class="st0" d="M49.5,133.86c0.05-6.24,1.14-15.26,7-22.56c6.5-8.11,12.15-5.72,21-13.33c11.01-9.46,7.24-17.41,20-33.84
		c8.24-10.61,17.75-17.52,19-16.41c0.87,0.77-2.94,4.74-5,13.33c-1.87,7.81,0.08,9.5-2,13.33c-3.8,7.01-11.43,3.41-17,10.26
		c-2.22,2.73-1.24,3.57-6,22.56c-1.94,7.74-2.48,9.1-4,10.26c-5.06,3.86-11.13-1.97-18,2.05c-2.5,1.47-2,2.42-8,8.2
		C53.65,130.45,51.16,132.53,49.5,133.86z"/>
	<path class="st0" d="M53.5,138.99c2.5-0.77,6.22-2.23,10-5.13c4.14-3.17,4.36-5,8-8.2c6.97-6.13,10.74-3.46,15-8.2
		c3.91-4.36,1.24-7.18,5-17.44c1.6-4.35,4.11-11.2,10-16.41c7.14-6.31,11.64-3.51,16-9.23c2.37-3.11,1.55-4.61,4-18.46
		c2.47-14,4.28-17.99,5-19.49c3.41-7.1,8.74-13.02,10-12.31c1.13,0.63-1.64,6.16-5,19.49c-1.34,5.31-2.77,10.99-4,18.46
		c-1.92,11.67-1.13,14.33-4,17.44c-3.71,4.01-6.86,1.54-13,6.15c-5.47,4.12-7.92,9.8-9,12.31c-2.63,6.11-0.85,6.83-3,12.31
		c-4.26,10.85-14.4,16.09-17,17.44c-4.65,2.41-4.72,1.21-8,3.08c-12.74,7.27-14.55,27.01-16,26.67c-1.2-0.28,1.48-13.47-1-14.36
		c-1.8-0.64-5.22,5.58-6,5.13C49.9,147.87,51.37,143.92,53.5,138.99z"/>
	<path class="st0" d="M34,132.32c-1.36-8.68-1.85-21.04,4-32.82c6.68-13.45,14.84-12.47,19-24.61c5.61-16.38-5.49-29.1,3-38.97
		c3.67-3.15,17.49-12.81,24-17.44c8.74-6.29,11.57-8.67,12-8.2c0.55,0.6-4.18,4.59-9,12.31c-6.91,11.06-5.4,16.04-11,19.49
		c-5.45,3.36-10.75,1.02-12,4.1c-1.08,2.67,2.79,4.7,4,11.28c1,5.47-0.56,10.09-1,11.28c-2.31,6.31-5.78,5.81-8,12.31
		c-1.25,3.64-0.35,4.35-2,9.23c-1,2.97-1.91,5.66-4,8.2c-4.33,5.27-8.65,3.72-11,8.2c-1.38,2.63,0.25,2.88-1,9.23
		C39.06,124.26,37.12,127.26,34,132.32z"/>
	<path class="st0" d="M71,84.12c4.09-8.9,4.48-15.77,4-20.51c-0.38-3.77-1.34-6.57,0-10.26c1.59-4.36,4.52-4.78,9-9.23
		c3.93-3.91,6.29-8.76,11-18.46c3.28-6.76,3.78-9.1,7-12.31c3.53-3.51,8.65-6.4,10-5.13c1.63,1.53-2.21,9.04-5,13.33
		c-4.15,6.4-7.34,7.78-7,11.28c0.34,3.53,3.77,4.13,4,8.2c0.21,3.79-2.57,6.73-3,7.18c-2.37,2.43-4.05,1.65-9,4.1
		c-3.65,1.81-6.49,3.22-8,6.15c-1.84,3.58,0.49,5.2-1,10.26C81.96,73.13,74.56,80.99,71,84.12z"/>
	<path class="st0" d="M9,121.04c10.43-18.88,11.91-17.79,25-31.79c8.2-8.59,9.23-10.16,10-12.31c1.97-5.46,0.92-10.76,0-15.38
		c-1.74-8.77-4.63-9.6-4-14.36c0.47-3.51,3.65-6.83,10-13.33c6.19-6.34,9.29-9.51,13-12.31c5.05-3.8,9.02-5.82,9-9.23
		c-0.67-6.14-8.1-7.78-12-5.13c-2.89,1.98-1.29,4.7-4,8.2c-3.44,4.46-7.65,2.16-14,7.18c-0.96,0.76-3.79,3.13-6,7.18
		c-2.93,5.38-3,10.48-3,12.31c0,4.16,0.98,7.64,2,11.28c1.24,4.41,1.92,4.92,2,7.18c0.13,3.82-1.66,6.75-4,10.26
		c-6.34,9.49-8.55,10.95-12,16.41C15.15,96.5,10.7,111.55,9,121.04z"/>
	<path class="st0" d="M21,76.94c0.27,0.19,1.47-0.99,4-4.1c2.91-3.74,3.09-6.71,3-8.2c-0.07-1.17-0.71-2.83-2-6.15
		c-1.11-2.81-3.97-9.25-5-12.31c-0.58-1.73-1.54-4.62-2-8.2c-0.51-3.32,0.1-16.33,1-18.46c2.59-5.96,10.03-8.15,10-8.2
		c-0.03-0.05-5.84,3.33-6,3.08c-0.17-0.27,6.52-3.94,14-10.26c0.96-0.81,2.71-2.32,3-2.05c0.26,0.24-0.79,1.77-3,5.13
		c-3.88,5.9-3.29,5.2-4,6.15c-4.15,5.52-6.26,5.13-8,9.23c-0.41,0.96-1.36,3.29-1,6.15c0.24,1.87,0.84,2.42,2,5.13
		c2.2,5.11,2.71,9.29,3,9.23c0.2-0.04-0.13-2.03,0-2.05c0.21-0.04,1.99,5.1,2,11.28c0.01,4.91-1.1,8.83-2,11.28
		C35.11,49.6,19.68,76.77,21,76.94z"/>
	<path class="st0" d="M6,89.24c4.63-8.82,5.72-16.28,6-20.51c0.28-4.16,0.43-7.02-1-10.26c-1.64-3.7-3.79-4.33-6-9.23
		c-0.78-1.72-1.83-4.06-2-7.18c-0.2-3.65,0.93-6.4,3-11.28c2.75-6.5,3.92-6.48,4-9.23c0.08-3.05-1.29-5.48-4-10.26
		C2.14,4.74-0.99,2.01,6,2.07c2.78-0.19,7.46,1.21,8,6.15c0.12,2.23-1.3,2.7-2,5.13c-0.67,2.32,0.22,5.31,2,11.28
		c0.74,2.47,1.15,3.45,1,5.13c-0.24,2.63-1.48,2.84-2,5.13c-1,4.39,2.24,9.51,4,12.31c0.75,1.19,1.55,2.26,2,4.1
		c0.47,1.95,0.24,3.5,0,5.13c-1.54,10.5-1.32,10.5-2,12.31c-0.88,2.34-1.02,1.69-3,6.15C10.94,81.96,11.18,83.3,6,89.24z"/>
	<path class="st0" d="M26,113.86c-2.05,5.97-4.22,10.79-6,14.36c-4.54,9.12-6.73,10.51-7,15.38c-0.37,6.73,3.56,8.45,2,14.36
		c-0.62,2.33-1.23,2.07-5,9.23c-0.72,1.38-2.37,4.52-4,8.2c-3.53,8-4.28,12.44-5,12.31c-0.85-0.15-0.57-6.54,0-11.28
		c0.18-1.51,0.52-3.89,2-10.26c2.03-8.73,3.98-15.39,4-15.38c0.02,0-1.17,4.05-1,4.1c0.19,0.06,2.77-4.93,4-11.28
		c1.47-7.59-0.06-11.69,3-14.36c1.56-1.36,2.15-0.47,4-2.05c2.86-2.44,2.31-5.31,5-9.23C22.77,116.84,24.01,115.33,26,113.86z"/>
	<path class="st0" d="M39,135.4c-5.52,9.69-7.36,17.84-8,23.59c-0.6,5.41,0.02,7.22-1,15.38c-1.22,9.76-2.48,10.12-3,17.44
		c-0.55,7.77,0.78,8.78,0,17.44c-0.65,7.22-1.08,11.45-4,13.33c-4.36,2.81-10.45-2.08-12,0c-1.75,2.35,4.24,10.98,6,10.26
		c1.72-0.7-2.32-9.6-2-25.64c0-0.14,0.34-4.54,1-13.33c0.99-13.11,1.16-15.1,2-18.46c1.11-4.4,2.47-7.53,5-13.33
		c3.34-7.67,3.5-6.15,6-12.31c1.96-4.82,2.79-8.04,6-11.28C36.51,136.95,37.99,135.98,39,135.4z"/>
	<path class="st0" d="M46,138.47c-2.68,5.31-0.65,12.34,1,15.38c3.99,8.69,8.32,16.23,9,17.44c5.52,9.84,4.26,19.92,2,37.95
		c-1.56,12.5-3.24,24.55-12,30.77c-1.36,0.97-4.58,3.19-7,2.05c-3.84-1.81-5.22-11.88-2-19.49c2.17-5.13,5.86-7.78,5-12.31
		c-0.36-1.88-1.09-1.93-2-4.1c-2.57-6.12,1.72-9.31,1-17.44c-0.36-4.09-1.45-3.27-4-13.33c-1.56-6.15-1.6-8.21-2-8.2
		c-2.01,0.01-6.99,51-1,52.31c4.8,1.43,15.94-28.81,14-44.1c-1.11-12.27-7.23-16.32-7-24.61C41.08,147.79,42.01,143.54,46,138.47z"
		/>
	<path class="st0" d="M2,215.39c0-0.68,0-1.37,0-2.05c1.01-13.26,3.06-17.06,7-26.67c1.3-3.54,3.52-9.56,5-17.44
		c0.47-2.48,0.67-4.11,1-4.1c0.57,0.01,1.19,4.68,1,9.23c-0.17,4.22-0.9,4.73-2,11.28c-1.38,8.17-0.48,8.69-2,12.31
		c-0.94,2.24-2.23,5.3-5,8.2c-1.36,1.42-2.91,2.65-4,5.13C2.29,212.91,2.07,214.39,2,215.39z"/>
	<path class="st0" d="M3,268.72c-1.27-0.14-3.95-9.62,0-16.41c4.2-7.21,11.91-4.55,16-12.31c1.9-3.6,0.91-5.44,4-11.28
		c6.12-11.71,8.43-8.14,7,4.1c-0.6,4.59-1.23,9.41-5,13.33c-1.13,1.18-4.32,4.5-9,5.13c-2.36,0.32-4.1-0.18-5,1.03
		c-1.16,1.55,0.9,3.45,0,6.15c-0.75,2.25-2.53,2.01-5,5.13C3.66,266.54,3.63,268.79,3,268.72z"/>
	<path class="st0" d="M5,328.21c0.27-0.7,0.65-1.76,1-3.08c1.89-7.15-0.08-10.74,0-17.44c0.08-7.09,2.4-12.61,4-16.41
		c1.12-2.67,2.42-4.86,5-9.23c5.27-8.92,7.91-13.37,11-16.41c6.21-6.09,10.67-6.17,12-11.28c1.12-4.31-1.03-8.2-1-8.2
		c5.5,11.33,4.08,20.85-9,29.74c-4.19,3.04-6.63,3.57-9,7.18c-1.2,1.83-1.8,3.96-3,8.2c-2.07,7.35-1.28,8.09-3,12.31
		c-2.01,4.93-3.37,4.63-4,8.2c-0.69,3.93,0.74,5.54,0,9.23C8.33,324.37,6.41,326.77,5,328.21z"/>
	<path class="st0" d="M4,289.24c-3.82-8.87,2.23-16.85,9-24.61c5.15-5.83,9.8-11.08,11-10.26c1.35,0.93-2.79,8.8-2,9.23
		c0.92,0.5,7.71-9.67,7-10.26c-0.63-0.52-5.89,7.56-17,18.46C7.48,275.68,3.92,282.68,4,289.24z"/>
	<path class="st0" d="M4,125.14c-1.09-4.38-2.11-10.34-2-17.44c0.09-6.15,1.01-11.38,2-15.38"/>
	<path class="st0" d="M13,93.35c-2.62,2.07-4.89,5.21-6,9.23c-2.12,7.39-1.33,18.47-1,18.46c0.3-0.01-0.03-9.23,0-9.23
		c0.8,4.13,0.23,17.85-6,26.67"/>
	<path class="st0" d="M68,176.42c0.51-0.5,1.1-1.25,1-2.05c-0.13-1.08-1.4-1.54-2-2.05c-3.52-2.98,3.67-17.78,4-18.46
		c3.38-6.87,5.07-10.3,8-12.31c4.93-3.38,7.55-0.84,16-3.08c3.03-0.8,14.43-3.81,19-13.33c2.37-4.93,2.09-9.91,2-11.28
		c-0.51-7.61-4.5-9.73-4-15.38c0.48-5.51,4.77-9.31,7-11.28c8.24-7.3,15.07-3.44,21-10.26c3.39-3.9,4.2-8.65,5-13.33
		c0.84-4.91-0.15-4.92,0-17.44c-0.17-4.35,1.15-18.01,5-21.54c4.78-4.3,14.43-1.82,15,1.03c0.37,1.83-3.3,2.35-5,7.18
		c-0.85,2.4-0.49,3.86-2,6.15c-0.86,1.3-1.3,1.34-3,3.08c-1.86,1.9-4.24,4.33-5,7.18c-0.51,1.9-0.07,3.17,1,7.18
		c2.04,7.62,3.05,11.43,3,13.33c-0.12,4.28-2.27,7.21-6,12.31c-1,1.36-2.18,2.82-12,12.31c-5.95,5.74-7.09,6.72-9,9.23
		c-0.97,1.27-3.51,4.73-6,10.26c-6.83,15.13-2.69,22.15-9,27.69c-4.53,3.97-10.9,4.08-12,4.1c-7.08,0.12-10.19-3.85-16-2.05
		c-3.88,1.2-6.2,4.12-7,5.13c-3.42,4.31-2.79,8.03-5,16.41C71.29,167.83,70.08,171.77,68,176.42z"/>
	<path class="st0" d="M110,30.78c1.49-0.12,3.5-0.54,5-2.05c2.01-2.03,1.19-4.09,3-7.18c2.2-3.75,6.38-5.75,7-5.13
		c0.51,0.51-1.11,3.01-1,3.08c0.24,0.14,6.31-12.11,9-11.28c1.18,0.36,1.04,3.02,2,3.08c1.17,0.07,2.31-3.81,3-6.15
		c0.2-0.68,1.46-4.95,1-5.13c-0.6-0.24-2.08,7.44-8,14.36C129.83,16.33,115.19,27.05,110,30.78z"/>
	<path class="st0" d="M116,40.02c0.83-7.89,6.3-16.15,14-19.49c4.95-2.61,6.69-6.17,10-9.23c1.86-1.73,4.24-2.86,9-5.13
		c1.23-0.58,15.64-7.39,17-5.13c0.86,1.44-3.69,6.3-8,9.23c-1.06,0.72-3.45,2.23-12,5.13c-6.23,2.11-7.6,2.2-10,3.08
		c-12.45,4.53-19.5,17.99-19,18.46c0.43,0.4,7.74-7.45,8-7.18C125.15,29.92,122.69,32.79,116,40.02z"/>
	<path class="st0" d="M77,271.8c0.22-0.77,0.44-1.54,0.66-2.31c9.63-38.27-17.67-32.71-9.66-65.38c1.69-8.51,14.71-30.99,20-41.02
		c4.09-8.09,5.41-11.5,7-11.28c2.17,0.3,3.77,7.21,3,13.33c-1.23,9.84-8.5,16.99-10,18.46c-4.46,4.39-7.56,5.16-10,10.26
		c-1.79,3.74-1.97,7.2-2,8.2c-0.12,3.88,0.98,5.63,3,12.31c1.71,5.65,2.66,8.79,3,12.31c0.62,6.45-1.09,11.31-2,14.36
		C78.09,247.41,76.26,257.2,77,271.8z"/>
	<path class="st0" d="M3,392.82c-0.45-0.17-0.16-2,0-3.08c1.21-7.89,3.61-23.62,4-33.84c0.37-9.72-1.18-11.51,1-16.41
		c2.36-5.29,5.17-5.4,8-11.28c2.2-4.57,1.2-5.94,3-16.41c3.44-18.53,2.3-16.31,16-30.77c6.31-6.57,10.78-11.14,14-19.49
		c1.85-5.32,0.6-6.82,2-13.33c1.35-6.31,3.5-9.5,5-11.28c1.48-1.76,2.88-3.42,4-3.08c2.44,0.75,2.75,10.71,0,19.49
		c-2.08,6.65-3.95,6.31-7,14.36c-3.82,10.07-1.41,11.95-5,16.41c-3.91,4.86-11.08,7.96-14,9.23c-4.07,1.77-6.36,2.1-7,4.1
		c-0.97,3.03,3.48,4.8,5,10.26c2.14,7.7-3.41,16.07-5,18.46c-2.47,3.72-3.98,4.19-8,10.26c-2.35,3.55-3.53,5.32-4,7.18
		c-1.65,6.5,2.98,8.79,2,15.38c-0.76,5.08-3.66,4.7-6,12.31c-1.44,4.68-0.44,5.13-2,10.26C7.14,387.66,3.84,393.14,3,392.82z"/>
	<path class="st0" d="M26,364.1c2.79-7.22,5.7-14.39,11-25.64c3.5-7.37,3.13-5.97,4-8.2c5.5-14.16,1.84-22.72,8-34.87
		c1.18-2.33,2.53-4.4,3-5.13c3.15-4.83,5.78-8.86,10-11.28c4.01-2.3,11.15-4.13,14-1.03c3.2,3.48-0.42,11.63-3,17.44
		c-5.05,11.36-12.64,18.27-14,19.49c-7.37,6.58-9.64,5.06-13,10.26c-4.77,7.38-0.83,11.42-6,17.44c-1.82,2.12-5.7,5.56-11,10.26
		C25.61,355.4,24.63,360.28,26,364.1z"/>
	<path class="st0" d="M53,331.28c3.09-2.48,7.46-6.14,11-9.23c7.71-6.67,8.58-7.48,9-7.18c1.31,0.94-4.59,10.91-4,11.28
		c0.62,0.39,8.93-9.57,14-23.59c1.3-3.6,3.39-9.49,4-17.44c0.52-6.7-0.6-7.17,0-13.33c0.15-5.82,5.48-23.64,15-31.79
		c2.89-2.66,8.62-7.92,12-6.15c4.02,2.1,2.11,12.76,2,13.33c-1.37,7.28-5.52,12.3-9,16.41c-6.54,7.73-9.11,6.85-12,12.31
		c-4.34,8.2-2.35,17.42-3,17.44c-0.65,0.02-1.41-9.26-2-9.23c-0.66,0.03,1.65,11.5-4,20.51c-1,1.6-1.9,2.55-9,8.2
		c-14.59,11.61-22.99,17.27-22,19.49c0.37,0.82,1.98,1.07,2,1.03C57.02,333.28,55.13,332.33,53,331.28z"/>
	<path class="st0" d="M17,383.59c-2.19-6.36-1.11-10.96,6-13.33c4.8-2.1,11.25-4.92,15-9.23c1.18-1.36,2.79-6.03,6-15.38
		c2.5-7.28,3.3-10.26,6-11.28c2.48-0.94,5.93,0,7,2.05c0.55,1.06,0.29,2.08-5,12.31c-2.02,3.91-3.05,5.83-5,8.2
		c-1.78,2.17-3.41,3.6-4,4.1c-6.9,5.88-10.53,3.27-15,8.2c-1.86,2.06-2.82,4.27-6,7.18C20.21,377.72,17.46,381.89,17,383.59z"/>
	<path class="st0" d="M89,222.57c2.51-36.09,19.52-30.05,23-41.02c0.91-3.22-0.38-8.01-3-17.44c-2.01-7.26-2.73-8.36-2-10.26
		c1.49-3.87,6.11-3.55,16-7.18c8.21-3.01,16.39-6.01,22-13.33c3.3-4.31,3.57-7.33,5-7.18c3.15,0.33,7.44,15.55,1,23.59
		c-3.27,4.08-8.31,5.06-14,6.15c-11.73,2.26-17.88-1.24-20,2.05c-2.23,3.46,4.2,7.92,3,16.41c-0.55,3.87-1.96,3.47-6,12.31
		c-4.22,9.23-3.15,10.7-6,13.33c-4.76,4.4-9.47,1.9-12,6.15c-1.87,3.15,0.06,5.59-2,10.26C92.69,219.38,90.61,221.34,89,222.57z"/>
	<path class="st0" d="M95,231.8c6.89-5.34,12.2-10.41,16-14.36c7.66-7.96,11.48-11.94,14-18.46c2.75-7.13,0.84-8.87,4-14.36
		c1.46-2.53,3.57-5.12,14-12.31c10.98-7.56,10.84-6.2,16-10.26c10.86-8.53,15.49-17.71,18-16.41c1.09,0.57,1.04,2.74,1,4.1
		c-0.24,9.23-8.92,15.64-10,16.41c-8.47,6.07-12.95,2.24-24,9.23c-3.13,1.98-8.23,5.29-8,9.23c0.21,3.53,4.5,4.24,5,8.2
		c0.16,1.29,0.03,3.75-7,11.28c-3.99,4.28-5.47,5.12-11,10.26C113.69,222.91,106.8,232.55,95,231.8z"/>
	<path class="st0" d="M101,283.08c4.44-2.88,11.83-8.62,17-18.46c2.26-4.3,4.69-8.93,5-15.38c0.47-9.84-4.53-13.5-2-19.49
		c1.53-3.64,3.64-2.92,11-9.23c2.03-1.74,7.92-6.85,13-14.36c5.6-8.28,4.13-10.45,9-15.38c3.19-3.23,3.52-1.99,13-8.2
		c9.49-6.04,15.72-12.74,16-5.13c0.14,6.59-7.39,11.89-11,14.36c-7.82,5.35-9.77,3.34-15,8.2c-4.03,3.75-6.39,8.23-8,11.28
		c-3.76,7.14-2.34,8.26-5,11.28c-5.52,6.27-14.04,4.16-15,8.2c-0.59,2.49,2.61,3.47,4,9.23c0.97,4,0.36,7.37,0,9.23
		c-0.84,4.35-2.61,7.13-6,12.31c-3.4,5.22-13.96,18.8-21,20.51C103.94,282.75,102.16,282.99,101,283.08z"/>
	<path class="st0" d="M129,127.19c1.42-4.71,4.18-11.04,10-15.38c4.78-3.57,6.95-2.31,13-6.15c7.97-4.86,16.72-14.87,15-29.74
		c-0.55-8.3-3.36-12.49-1-15.38c1.97-2.41,4.77-0.54,7-3.08c2.86-3.26-0.45-7.85,2-13.33c1.46-3.28,3.93-4.54,6-6.15
		c10.76-8.42,13.43-28.85,10-30.77c-2.89-1.62-11.99,8.83-11,10.26c1.19,1.73,17.35-9.41,19-7.18c0.97,1.31-4.17,5.78-9,12.31
		c-15.96,21.59-15.28,47.87-15,58.46c0.08,3.09,0.24,9.18,1,9.23c1.44,0.1,3.59-21.44,3-21.54c-0.66-0.11-0.22,27.02-16,38.97
		c-2.42,1.84-1.62,0.79-10,6.15c-15.06,9.63-25.78,18.75-26,18.46c-0.19-0.25,7.53-6.39,7-7.18
		C133.82,124.88,132.69,125.18,129,127.19z"/>
	<path class="st0" d="M165,131.29c0.83-0.77,1.67-1.55,2.5-2.32c6.18-5.77,10.51-14.44,13.5-21.27c5.87-12.32,7.06-10.51,9-16.41
		c3.23-9.84-0.4-13.88,0-24.61c0.56-14.86,8.39-30.2,19-38.97c5.75-4.76,6.29-2.6,23-13.33c7.92-5.09,10.37-7.22,12-6.15
		c3.65,2.4,0.97,19.43-9,26.67c-3.96,2.87-9.5,4.52-15,6.15c-9.14,2.71-10.19,2.15-12,4.1c-4.45,4.82,0.34,11.88,0,26.67
		c-0.1,4.25-0.41,13.74-5,23.59c-3.99,8.57-9.5,13.48-17,20.51C178.2,123.22,170.66,128.12,165,131.29z"/>
	<path class="st0" d="M159,143.6c1.36-0.25,2.71-0.51,4.07-0.76c10.38-2.64,19.21-6.28,29.93-17.7c4.19-4.61,4.77-6.59,13-20.51
		c7.5-12.69,9.26-14.82,12-21.54c2.21-5.42,3.67-9.09,4-14.36c0.43-6.81-1.51-8.74,0-12.31c2.22-5.26,7.94-4.64,16-9.23
		c4.31-2.46,8.88-7.79,18-18.46c11.83-13.84,13.65-17.95,17-17.44c5.04,0.78,9.89,11.47,8,20.51c-2.2,10.53-13.16,16.95-28,25.64
		c-1.48,0.87-11.19,6.52-22,15.38c-3.95,3.24-6.49,5.63-7,9.23c-0.95,6.67,6.54,10.07,5,15.38c-1.4,4.82-8.53,5.63-9,11.28
		c-0.12,1.41,0.3,1.67,0,3.08c-0.73,3.45-4.29,4.86-7,7.18c-5.14,4.39-6.48,3.88-12,8.2c-4.7,3.68-4.37,4.55-10,9.23
		C181.79,144,176.19,148.82,159,143.6z"/>
	<path class="st0" d="M300,13.35c0.52,12.47-1.98,21.96-4,27.69c-5.54,15.74-19.1,36.38-31,34.87c-3.74-0.47-7.5-3.16-11-1.03
		c-2.75,1.67-3.56,5.23-4,7.18c-1.33,5.84,0.97,8.65,1,14.36c0.03,5.47-1.95,9.54-4,13.33c-6.69,12.34-18.2,17.66-20,18.46
		c-8.59,3.83-10.98,1.31-19,6.15c-4.88,2.94-8.34,6.49-11,9.23c-6.79,6.97-10.61,13.6-11,13.33c-0.21-0.14,0.53-2.25,2-4.1
		c4.08-5.15,10.69-4.38,17-6.15c5.82-1.64,8.34-4.58,16-11.28c28.31-24.76,38.29-23.4,47-40c3.13-5.96,3.25-8.82,8-16.41
		c5.8-9.27,8.72-9.95,16-19.49C304.94,43.5,311.69,29.84,300,13.35z"/>
	<path class="st0" d="M313,59.5c0.21,0.3,2.31-0.71,4-2.05c6.22-4.93,6.83-14.18,7-17.44c0.5-9.49-2.93-11.01-1-16.41
		c2.32-6.5,9.14-9.45,11-10.26c7.66-3.32,11.21,0.01,21-1.03c14.09-1.49,21.65-9.97,23-8.2c1.27,1.67-4.95,9.98-13,15.38
		c-1.08,0.73-16.7,10.97-25,5.13c-2.5-1.76-3.74-4.56-5-4.1c-1.49,0.55-0.74,4.87-1,9.23c-0.75,12.59-9.67,21.05-9,21.54
		c0.63,0.46,7.6-7.57,7-8.2C331.08,42.12,312.29,58.52,313,59.5z"/>
	<path class="st0" d="M294,67.71c-14.87,22.98-2.82,34.38-10,42.05c-1.8,1.64-3.03,0.93-6,2.05c-8.46,3.2-8.03,12.62-16,18.46
		c-3.65,2.67-3.85,0.78-14,4.1c-6.76,2.21-15.84,5.18-24,12.31c-3.08,2.69-6.39,7.26-13,16.41c-3.92,5.42-2.72,4.21-11,16.41
		c-8.43,12.19-12.05,17.39-2,10.26c6.44-4.7,10.5-9.74,14-14.36c9.36-12.36,10.07-15.57,16-19.49c1.57-1.03,1.27-0.65,8-4.1
		C254.17,142.85,310.94,113.63,294,67.71z"/>
	<path class="st0" d="M169,203.09c-5.76,1.88-8.94,11.88-6,17.44c2.23,4.22,7.09,4.17,7,6.15c-0.14,3.25-13.16,2.11-23,11.28
		c-3.82,3.56-6.33,7.9-6,8.2c0.38,0.35,4.71-4.71,11-10.26c13.07-11.52,24.8-16.48,24-18.46c-0.63-1.56-8.07,1.03-9-1.03
		c-1.2-2.65,10.27-9.06,9-12.31C175.36,202.47,171.7,202.21,169,203.09z"/>
	<path class="st0" d="M97,302.57c-0.97-2.8-1.73-6.51,0-9.23c1.56-2.46,3.84-2.05,9-4.1c8.93-3.54,15.99-10.25,16-10.26l0,0
		c0,0,7.19-7.68,11-17.44c2.45-6.27,1.89-9.29,5-11.28c2.82-1.8,6.98-1.7,8,0c1.1,1.84-1.53,5.46-5,10.26
		c-1.9,2.63-2.85,3.94-5,6.15C131.11,271.72,116.68,285.1,97,302.57z"/>
	<path class="st0" d="M303,81.04c-3.15-7.47-2.3-16.96,1-23.59c2.73-6.24,4.42-5.6,6-10.26c2.52-7.45-0.49-13.03,2-14.36
		c1.47-0.79,3.91,0.42,5,2.05c1.62,2.42,0.33,5.84-1,9.23c-2.95,7.52-6.12,7.94-7,13.33c-0.68,4.16,1.1,4.5,0,8.2
		c-1.15,3.84-3.47,4.81-5,9.23C303.14,77.37,302.99,79.59,303,81.04z"/>
	<path class="st0" d="M313,73.86c1.56,0.17,3.84,0.17,6-1.03c5.03-2.77,3.81-8.84,9-16.41c3.25-4.75,4.36-3.27,9-9.23
		c4.5-5.79,8.24-13.32,7-14.36c-1.01-0.84-5.21,2.69-5,3.08c0.39,0.71,15.61-9.08,18-6.15c1.4,1.72-2.27,7.03-2,7.18
		c0.36,0.21,6.56-9.86,6-10.26c-0.65-0.46-8.73,13.28-22,26.67C329.41,63.03,320.01,69.59,313,73.86z"/>
	<path class="st0" d="M286,32.84c2.27-4.6,3.03-8.73,3-12.31c-0.03-4.02-1.04-5.77,0-8.2c1.3-3.06,4.7-4.52,11-6.15
		c9.82-2.55,21.8-4.24,22-3.08c0.27,1.58-21.36,6.26-21,8.2c0.08,0.43,1.15,0.41,5,1.03c4.95,0.8,9.03,1.77,9,2.05
		c-0.06,0.54-14.34-3.89-19,2.05c-2.64,3.37-0.37,7.73-4,12.31C290.12,31.1,287.68,32.24,286,32.84z"/>
	<path class="st0" d="M200,19.5c-1.66-2.33,2.54-11.52,8-11.28c4.47,0.2,8.3,6.64,7,9.23c-0.57,1.14-2.72,1.46-7,2.05
		C203.14,20.17,200.71,20.51,200,19.5z"/>
	<path class="st0" d="M177,196.93c13.76-12.4,10.83-17.05,11-30.77c-0.12-3.82-0.23-4.11,0-5.13c1.63-7.29,11.82-12.98,16-10.26
		c7.52,6.42-7.79,12.02-9,12.31l0,0c0,0-1.27,21.52-1,21.54C197.65,167.5,189.9,175.58,177,196.93z"/>
	<path class="st0" d="M235,80.01c1.09,19.76,2.1,26.66,3,26.67c0.9,0,1.99-6.81,1-7.18c-1.7-0.63-9.12,16.8-10,16.41
		c-0.52-0.24,2.18-6.48,4-14.36C235.02,92.82,235.21,85.27,235,80.01z"/>
	<path class="st0" d="M158,50.27c1.01,0.04,2.6-0.05,4-1.03c3.47-2.41,1.46-7.17,5-12.31c2.39-3.47,4.87-3.56,5-6.15
		c0.1-2.01-1.37-2.51-2-6.15c-0.18-1.06-0.48-2.91,0-5.13c0.32-1.46,0.69-1.74,2-5.13c1.29-3.34,1.23-3.85,1-4.1
		c-0.62-0.67-2.85,0.07-4,1.03C162.06,18.62,182.97,41.81,158,50.27z"/>
	<path class="st0" d="M268,4.12c-1.03,1.05-2.55,2.75-4,5.13c-3.05,5.41-3.67,9.93-9,14.36c-2.67,2.12-7.49,4.55-9,3.08
		c-2.47-2.42,4.92-14.4,5-14.36c-5.84,10.35,14.4-8.5,13-9.23c-0.48-0.68-6.22,2.43-6,3.08C258.18,6.68,262.17,5.76,268,4.12z"/>
	<path class="st0" d="M78,12.32c2.01-7.8,8.77-8.64,16-8.2c3.2,0.01,5.47-0.4,9-1.03c6.25-1.11,7.12-2.04,11-2.05
		c3.25-0.01,6.01,0.64,6,1.03c-0.02,0.78-11.36,0.02-18,4.1c-0.35,0.22-1.01,0.64-2,1.03c-3.53,1.36-6.12,0.17-9,0
		c-6.09-0.35-11.03,4.03-11,4.1c0.03,0.07,4.98-2.1,5-2.05C85.01,9.28,82.95,10.19,78,12.32z"/>
	<path class="st0" d="M49,73.86c-0.56-0.95-1.22-2.42-1-4.1c0.23-1.78,1.29-2.56,2-4.1c1.05-2.28,0.54-4.5,0-7.18
		c-2.01-10.04-2.97-15.13-1-18.46c1.16-1.97,3.22-3.5,4-3.08c0.62,0.34,0.22,1.81,0,5.13c-0.1,1.5-0.07,3.73,0,8.2
		c0.07,4.54,0.22,5.11,0,7.18C52.12,63.38,50.8,66.91,49,73.86z"/>
	<path class="st0" d="M55,101.55c-0.09-0.32-0.28-1.11,0-2.05c0.23-0.78,0.66-1.28,0.89-1.51c0.77-4.87,3.25-7.88,5.11-3.62
		c0.56,1.61-0.34,2.8,0,3.08c0.98,0.79,10-7.84,9-9.23c-0.7-0.97-5.97,2.12-6,2.05c-0.03-0.07,5.95-2.5,13-4.1
		c1.53-0.35,2.61-0.54,3,0c0.82,1.14-1.51,5.33-5,7.18c-4.72,2.51-11.02,0.46-11,0c0.02-0.35,3.71-0.77,4,0
		C68.3,94.15,64.93,96.51,55,101.55z"/>
	<path class="st0" d="M89,132.32c14.59-5.98,9.38-15.25,15-18.46c2.05-0.9,3.87,0.31,5-1.03c0.33-0.39,0.73-1.15,0-5.13
		c-0.39-2.14-1.52-8.25-3-8.2c-0.51,0.02-0.86,0.74-1,1.03c-2.5,5.12,6.62,13.12,4,19.49c-1.09,2.65-3.99,4.49-5,5.13
		c-1.91,1.21-3.44,1.56-5,2.05C96.5,127.98,93.03,129.43,89,132.32z"/>
	<path class="st0" d="M134,135.4c4.3-4.83,5.38-5.73,14-10.26c7.22-3.71,9.3-4.28,12-7.18c6.47-7.42,2.49-6.84-9,0"/>
	<path class="st0" d="M121,135.4c-1.22-0.42,0.41-16.53,10-23.59c0.18-0.13,1.79-1.11,5-3.08c11.96-7.31,12.09-7.13,13-8.2
		c4.61-5.46,4.93-14.34,5-16.41c0.11-3.22-0.26-6.57,2-9.23c1.14-1.35,3.05-2.62,4-2.05c1.29,0.77,0.35,4.71,0,6.15
		c-3,12.5-19.6,21.72-31,40C122.81,128.92,121.8,135.67,121,135.4z"/>
	<path class="st0" d="M181,58.48c1.93-5.69,3.63-10.54,5-14.36c2.51-7.01,4.18-11.39,6-11.28c1.52,0.09,2.2,3.28,3,3.08
		c1.14-0.28,0.97-7.04,0-7.18c-1.23-0.18-1.87,10.53-9,22.56C184.12,54.46,182.29,56.89,181,58.48z"/>
	<path class="st0" d="M314,23.61c0.67-0.34,1.33-0.68,2-1.03c1.22-1.15,1.75-2.26,2-3.08c0.58-1.85,0.04-3.11,1-4.1
		c0.76-0.78,1.41-0.32,2-1.03c1.01-1.2-0.42-3.07,0-5.13c0.39-1.91,2.17-3.01,4-4.1c4.56-2.72,11.66-4.35,13-2.05
		c0.76,1.31-0.33,3.92-2,5.13c-2.03,1.47-4,0.19-9,1.03c-2.02,0.34-3.54,0.86-4,1.03C317.56,12.29,315.02,19.76,314,23.61z"/>
	<path class="st0" d="M239,127.19c13.15-7.35,19.67-10.06,14-4.1c-0.02-0.02,4.22-4.96,10-13.33c2.9-4.21,4.35-6.31,6-9.23
		c2.21-3.92,3.1-6.19,6-11.28c2.81-4.93,4.23-7.38,5-7.18c1.57,0.42,2.08,9.02-1,16.41C275.19,108.4,254.67,121.12,239,127.19z"/>
	<path class="st0" d="M180,200.01c1.83,0.35,4.67,0.65,8,0c1.19-0.23,4.51-0.99,9-4.1c4.03-2.79,3.87-3.92,11-11.28
		c5.59-5.61,9.74-9.47,14-15.38c4.93-6.98,5.41-11.1,8-11.28c1.7-0.12,3.41,1.51,4,3.08c1.67,4.41-4.81,10.22-6,11.28
		c-1.61,1.44-1.54,0.98-6,4.1c-4.51,3.15-6.77,4.73-9,7.18c-3.15,3.45-2.07,3.98-5,7.18c-2.83,3.1-3.5,2.25-10,7.18
		c-3.88,2.95-5.03,4.31-8,5.13C184.39,204.4,182.22,202.62,180,200.01z"/>
	<path class="st0" d="M19,347.69c1.56-0.98,3.81-2.6,6-5.13c0.97-1.12,4.19-5.03,6-11.28c1.97-6.82,0.23-9.4,3-12.31
		c1.93-2.03,3.73-1.77,5-4.1c1.72-3.17,0.35-7.2,0-7.18c-0.53,0.03,2.19,9.41-2,19.49c-2.16,5.2-3.78,4.86-7,12.31
		C28.15,344.95,24.41,347.89,19,347.69z"/>
	<path class="st0" d="M61,270.77c1.78-0.07,4-0.45,5-2.05c0.95-1.53,0.21-3.22,0-6.15c-0.25-3.56,0.65-4,1-8.2
		c0.57-6.73-1.49-8.42-1-15.38c0.19-2.72,0.67-4.89,1-6.15c3.43,5.19,4.09,9.36,4,12.31c-0.08,2.79-0.83,4.25-1,9.23
		c-0.15,4.56,0.41,5.23,0,7.18C69.45,264.15,67.46,267.54,61,270.77z"/>
	<path class="st0" d="M83,255.39c-0.23-1.43-0.44-3.61,0-6.15c0.64-3.7,1.9-3.97,3-8.2c1.13-4.35,1.01-8.78,1-9.23
		c-0.08-2.42-0.4-3.97,0-4.1c0.59-0.19,2.12,2.91,3,5.13c1.26,3.16,2.2,5.53,2,8.2c-0.46,6.09-6.59,10.59-7,10.26
		c-0.36-0.29,2.92-5.17,3-5.13C88.06,246.2,86.33,249.39,83,255.39z"/>
	<path class="st0" d="M83,207.19c-0.19-2.52-0.03-6.1,2-9.23c2.34-3.6,4.95-3.21,8-7.18c1.97-2.56,2.65-5.12,4-10.26
		c0.63-2.37,0.93-4.09,2-11.28c1.52-10.23,1.74-12.32,2-12.31c0.9,0.04-0.04,25.58,1,25.64c0.51,0.03,1.31-6.08,1-6.15
		c-0.34-0.08-0.42,7.22-5,14.36c-3.67,5.72-7.12,6.5-9,11.28c-0.29,0.73-1.03,2.82-3,4.1C84.89,206.88,83.76,207.11,83,207.19z"/>
	<path class="st0" d="M63,176.42c-0.16,0.06,0.54,1.87,1,4.1c1.54,7.48-0.64,14.4-1,14.36c-0.31-0.04,0.23-5.11,0-5.13
		c-0.39-0.04-2.69,14.92-1,15.38c0.96,0.26,2.83-4.19,3-4.1c0.3,0.16-6,13.33-6,13.33c9.58-21.29,8-28.72,8-28.72
		C65.99,180.89,63.26,176.32,63,176.42z"/>
	<path class="st0" d="M36,17.45c-0.67,0.68-1.33,1.37-2,2.05C38.18,11.71,48.14,2.2,53,3.09c1.36,0.12,3.72,0.71,4,2.05
		c0.27,1.26-1.43,2.62-2,3.08c-1.84,1.48-3.43,1.52-5,2.05c-5.46,1.82-5.65,7.68-10,8.2C39.14,18.58,37.79,18.52,36,17.45z"/>
	<path class="st0" d="M4,77.96c-1.04-1.89-3.17-11,0-13.33c1.29-0.94,2.5-0.16,3-1.03c1.05-1.82-3.76-6.3-3-7.18
		c0.24-0.27,0.89-0.04,1,0c3.23,1.14,4.35,11.02,0,14.36C2.12,72.6,3.88,77.48,4,77.96z"/>
	<path class="st0" d="M16,117.96c0.86-2.45,1.02-3.06,3-6.15c1.96-2.83,5-5.13,5-5.13c6.49-4.91,16.17-18.1,17-17.44
		c0.54,0.43-2.5,6.91-8,12.31c-3.59,3.52-5.66,4.06-10,8.2C19.7,112.9,17.41,115.91,16,117.96z"/>
	<path class="st0" d="M18,158.98c0.03,0.01,3.09-5.93,1-11.28c-0.95-2.44-2.48-3.49-2-5.13c0.49-1.68,2.39-1.58,5-4.1
		c0.14-0.13,1.79-1.75,3-4.1c2.18-4.23,1.54-8.18,2-8.2c0.7-0.04,1.49,9.26,2,9.23c0.44-0.02,0.92-6.99,0-7.18
		c-1.7-0.35-7.33,22.74-8,22.56c-0.37-0.1,1.14-7.15,1-7.18C21.79,143.55,17.96,158.97,18,158.98z"/>
	<path class="st0" d="M99,215.39c-0.22-0.37,8-6.15,8-6.15l0,0c9.32-4.9,10-7.18,10-7.18c0.8-2.7-1.42-3.61-1-8.2
		c0.65-6.32,4.64-9.99,8-12.31c2.24-1.59,2.52-1.23,3-2.05c1.48-2.54-1.69-5.24-2-11.28c-0.1-2.02-0.22-4.17,1-6.15
		c2.51-4.08,9.3-5.22,11-3.08c1.72,2.17-2.21,7.22-1,8.2c1.54,1.25,9.3-5.73,9-6.15c-0.13-0.71-14.69,9.55-17,13.33
		c-2.76,4.53-0.49,7.36-3,11.28c-2.13,3.33-4.73,2.8-6,6.15c-0.94,2.49-0.05,4.23,0,6.15C119.25,207.35,99.32,215.93,99,215.39z"/>
	<path class="st0" d="M146,187.7c-1.39-1.96-1.85-4.34-1-6.15c1.8-3.84,8.62-3.19,9-2.05c0.24,0.72-1.94,2.12-2,2.05
		c-0.08-0.09,2.74-2.29,11-10.26c2.94-2.83,5.2-5.08,9-6.15c0.68-0.19,4.29-1.21,5,0c0.88,1.49-3.01,5.7-6,8.2
		c-5.03,4.22-10.74,6.35-13,7.18C154.4,181.61,148.94,183.85,146,187.7z"/>
	<path class="st0" d="M67,311.8L67,311.8L67,311.8c1.7-1.46,4.03-3.8,6-7.18c2.47-4.23,1.6-5.35,5-17.44c1.61-5.71,2.3-7.24,2-10.26
		c-0.38-3.87-2.01-6.27-1-7.18c1.01-0.9,4.15,0.08,5,2.05c0.94,2.19-1.77,3.71-2,8.2c-0.1,2.02,0.44,1.84,1,6.15
		c0.55,4.21,0.82,6.31,0,8.2c-1.23,2.84-3.07,1.92-5,5.13c-1.84,3.05-0.86,5.02-3,8.2c-1.01,1.51-2.19,2.49-3,3.08
		c-5.33,3.76-10.67,7.52-16,11.28c2.67-3.08,5.33-6.15,8-9.23"/>
	<path class="st0" d="M72.5,177.96c-0.18-0.1,0.73-1.7,1.5-4.62c1.4-5.15,0.33-16.59,4-19.49c2.1-1.89,3.58-0.69,6-3.08
		c1.74-1.71,1.99-3.33,4-4.1c1.32-0.51,2.86-0.43,3,0c0.16,0.49-1.61,1.11-4,3.08c-2.57,2.11-2.32,2.88-5,5.13
		c-2.58,2.17-3.16,1.75-4,3.08c-2.05,3.22-0.27,8.23,0,8.2c0.21-0.02,0.14-3.07,0-3.08c-0.14-0.01-0.15,2.93-1,6.15
		C75.66,174.34,72.79,178.11,72.5,177.96z"/>
	<path class="st0" d="M59,166.16c1.43-3.04,4.18-9.7,5-13.33c1.07-4.67,0.78-8.2,1-8.2c0.33-0.01,0.7,8.21,1,8.2
		c0.22-0.01,0.87-4.28,1-9.23c0.03-1.28,0.04-2.76,1-4.1c0.56-0.78,1.23-1.21,3-2.05c4.02-1.92,7.06-2.83,7-3.08
		c-0.03-0.11-0.7-0.05-1,0c-4.65,0.81-8.02,14.35-8,14.36c0.01,0,0.59-3,3-6.15c5.58-7.28-1.66,7.45-7,15.38
		C62.68,161.48,60.54,164.26,59,166.16z"/>
	<path class="st0" d="M158,132.32c0.33-0.68,0.67-1.37,1-2.05c1.42-3.6,2.9-6.35,4-8.2c2.28-3.86,3.29-4.5,4-7.18
		c0.93-3.52-0.31-4.37,1-7.18c1.25-2.34,3.83-5.06,7-8.2c2.34-2.21,3.57-3.37,4-3.08c0.64,0.43-0.67,3.82-2,6.15
		c-1.58,2.81-4.48,5.8-6,7.18c-4.49,4.28-5.57,13.13-5,13.33c0.41,0.15,2.3-3.9,2-4.1C167.68,118.77,164.65,122.74,158,132.32z"/>
	<path class="st0" d="M148,163.09c-0.38-0.31-0.29-1.07-0.16-1.65c-0.05-1.21,0.08-3,1.16-4.5c1.16-1.61,2.32-1.38,4-3.08
		c2.25-2.28,2.66-5.23,3-5.13c0.34,0.1-0.26,3.01,0,3.08c0.3,0.08,0.66-3.9,3-5.13c1.79-0.94,4.63-0.23,5,1.03
		c0.84,2.86-11.2,8.89-11,9.23c0.15,0.26,6.41-3.86,7-3.08c0.6,0.79-5.26,5.73-9,8.2C150.02,162.71,148.59,163.58,148,163.09z"/>
	<path class="st0" d="M137,244.11c1.69-3.01,1.01-5.49,0-8.2c-0.75-2.04-1.31-2.62-1-3.08c0.54-0.8,2.37,0.68,5,0
		c1.62-0.42,1.56-1.15,4-2.05c1.97-0.73,2.42-0.41,3-1.03c1.15-1.22,0.12-3.22,0-6.15c-0.12-2.92,0.73-5.03,2-8.2
		c0.66-1.64,2.03-4.96,5-8.2c1.33-1.45,2.55-2.33,5-4.1c1.29-0.93,1.78-1.2,2-1.03c0.59,0.48-1.35,3.95-2,5.13
		c-0.85,1.53-1.28,2.29-2,3.08c-1.77,1.92-2.91,1.64-4,3.08c-0.96,1.26-0.59,2.15-1,5.13c-0.68,4.9-2.44,7.99-2,8.2
		c0.19,0.09,0.51-0.45,2-2.05c1.42-1.53,2.03-2.01,2-2.05c-0.17-0.22-15.85,12.01-15,13.33c0.41,0.64,4.44-1.82,5-1.03
		C145.59,235.72,141.9,239.56,137,244.11z"/>
	<path class="st0" d="M61,340.52c0.27,0.01,0.61-1.93,1-5.13c0-1.71,0-3.42,0-5.13c3.66,0.43,6.17-0.19,8.3-1.16
		c3.98-5.38,7.51-9.69,4.7-4.99c-0.11-0.05,1.35-5.07,5-9.23c1.78-2.03,3.41-3.07,5-4.1c2.34-1.51,4.45-2.83,6-2.05
		c1.2,0.6,1.24,2.04,2,2.05c1.21,0.01,2.66-3.57,2-4.1c-0.95-0.77-7,4.28-11,10.26c-1.89,2.81-1.92,3.74-4,6.15
		c-2.97,3.44-4.49,3.39-6,6.15c-1.22,2.73-7.39,9.76-8,4.1c-1.89,1.51-4.05,2.62-7,2.05c0.45-4.37,0.77-6.16,1-6.15
		C60.58,329.26,60.36,340.48,61,340.52z"/>
	<path class="st0" d="M149,251.29c0.92-5.24,1.97-7.1,3-7.18c0.75-0.06,0.98,0.85,2,1.03c1.63,0.27,2.7-1.76,6-5.13
		c2.58-2.64,3.36-2.87,5-5.13c0.82-1.13,2.52-3.48,2-4.1c-0.18-0.22-0.85-0.47-7,3.08c-5.23,3.02-7.85,4.53-9,6.15
		C148.32,243.77,148.55,248.48,149,251.29z"/>
	<path class="st0" d="M206,162.06c4.72-4.23,7.41-8.3,9-11.28c1.99-3.74,2.75-6.68,6-9.23c1.3-1.02,2.03-1.22,7-3.08
		c11.71-4.39,13.05-5.33,13-6.15c-0.06-1.03-2.28-1.85-4-2.05c-2.53-0.3-4.61,0.66-12,6.15c-8.23,6.12-10.22,8.33-11,9.23
		c-1.45,1.67-3.3,3.83-5,7.18C207.17,156.45,206.38,159.76,206,162.06z"/>
	<path class="st0" d="M206,93.35c3.76-1.45,5.5-5.42,6-9.23c2.19-11.13,2.95-10.14,3-14.36c0.03-2.25,0.06-5.37-1-9.23
		c-1.16-4.2-3.05-7.22-2-8.2c0.48-0.45,1.41-0.31,2,0c2.69,1.39,2.47,8.13,2,8.2c-0.57,0.09-4.04-9.26-1-12.31
		c1.99-1.99,6.66-1.2,7,0c0.21,0.74-1.25,1.47-1,2.05c0.37,0.88,4.35,0.63,5-1.03c0.51-1.31-1.47-2.46-1-4.1
		c0.49-1.72,3.31-2.73,4-2.05c0.52,0.51-0.3,1.85,0,2.05c0.77,0.52,7.56-7.64,7-8.2c-0.59-0.59-10.81,5.74-15,16.41
		c-1.49,3.79-2.68,9.31-3,9.23c-0.08-0.02-0.04-0.4,0-2.05c0.05-2.05,0.07-3.07,0-3.08c-0.22-0.03-1.69,9.06-1,9.23
		c0.59,0.14,2.38-6.32,3-6.15c0.28,0.07,0.15,1.48,0,3.08c-0.54,5.59-0.81,8.39-1,9.23c-1.18,5.24-3.65,8.86-6,12.31
		C211.48,87.36,209.22,90.3,206,93.35z"/>
	<path class="st0" d="M257,56.42c0.95,0.14,2.35,0.26,4,0c0.71-0.11,3.65-0.63,8-4.1c1.72-1.37,3.93-3.13,6-6.15
		c2-2.72,4.11-7.7,7-7.18c0.97,0.22,2.03,1.16,2,2.05c-0.03,0.77-0.84,0.96-3,3.08c-1.71,1.95-3.24,2.67-5,4.1
		c-1.52,1.3-1.89,2.13-2,2.05c-0.43-0.29,4.46-12.87,13-15.38c0.36-0.11,3.42-0.99,4,0c0.35,0.6-0.42,1.57-2,4.1
		c-2.11,3.37-1.59,3.01-3,5.13c-3.52,5.66-6.44,8.01-13,10.26C267.93,56.37,263.54,57.37,257,56.42z"/>
	<path class="st0" d="M300,93.35c-0.46-1.39-0.85-3.37,0-5.13c0.43-0.89,0.88-1.12,3-3.08c2.2-2.04,3.3-3.05,4-4.1
		c0.66-0.99,1.83-2.73,2-5.13c0.13-1.72-0.32-2.95,0-3.08c0.53-0.21,1.45,3.38,4,4.1c1.56,0.44,2.68-0.48,3,0
		c0.46,0.69-1.34,3.38-4,5.13c-3.47,2.28-5.48,1.03-7,3.08c-1.45,1.95-0.24,3.92-2,6.15C302.06,92.49,300.82,93.06,300,93.35z"/>
	<path class="st0" d="M284,19.5c-0.33-0.34-0.67-0.68-1-1.03c-0.66-2.02-1-3.08-1-3.08l0,0c0,0-0.77-2.49-2-4.1
		c-1.22-1.6-2.11-1.3-6-4.1c-1.77-1.27-2.04-1.66-2-2.05c0.12-1.11,2.81-1.63,5-2.05c2.14-0.41,3.23-0.61,4,0
		c1.16,0.92,1.06,2.89,1,4.1c-0.1,2.01-0.73,2.97-1,4.1C280.61,12.96,280.85,15.55,284,19.5z"/>
	<path class="st0" d="M219,15.4c0.25-0.39,0.49-0.79,0.74-1.18c0.59-0.83,1.63-2.07,3.26-2.92c3.58-1.87,5.57,0.43,10-1.03
		c2.07-0.68,1.29-1.07,7-4.1c2.19-1.16,3.01-1.48,3-2.05c-0.03-1.32-4.57-3.43-8-2.05c-1.54,0.62-1.86,1.53-6,4.1
		c-0.23,0.14-1.9,1.17-2,1.03c-0.14-0.21,3.3-2.23,3-3.08c-0.44-1.23-8.84-0.25-10,3.08c-0.22,0.63-0.26,1.59-1,3.08
		c-0.52,1.04-0.87,1.33-1,2.05C217.87,13.08,218.03,14.09,219,15.4z"/>
	<path class="st0" d="M128,77.96c1.99-2.78,3.23-5.32,4-7.18c2.48-5.74,2.42-7.41,1-14.36c-0.76-4.01-0.93-3.76-1-5.13
		c-0.03-0.55-0.16-4.33,2-8.2c0.79-1.42,1.56-2.75,3-3.08c1.28-0.29,2.85,0.26,3,1.03c0.15,0.76-1.2,1.16-3,3.08
		c-1.91,1.92-3.96,5.19-3,9.23c0.3,1.3,0.67,1.5,2,4.1c2.24,4.36,2.66,5.18,1,9.23c-0.38,0.97-1.26,2.99-3,5.13
		C133.57,72.39,128.93,76.92,128,77.96z"/>
	<path class="st0" d="M160,66.68c-0.34-0.19-0.77-0.5-1-1.03c-0.33-0.74,0-1.34,0-2.05c0-1.21-0.96-1.64-2-3.08
		c-1.3-1.8-1.59-3.63-2-6.15c-0.19-1.19-0.47-2.88,0-3.08c0.45-0.19,1.43,1.05,2,2.05c2.09,3.67,0.9,8.19,1,8.2
		c0.1,0.01,0.6-5.13,1-5.13C159.3,56.42,159.63,59.36,160,66.68z"/>
	<path class="st0" d="M181,90.27c1.24-6.11,2.83-13.38,1-21.54c-0.06-0.22-0.37-2.19-1-6.15c-0.18-1.14-0.29-1.9,0-2.05
		c0.54-0.28,2.1,1.63,3,3.08c1.4,2.1,3.3,7.78,2,11.28c-0.74,2.13-1.83,2.3-2,4.1c-0.17,1.79,0.83,2.44,1,4.1
		c0.14,1.36-0.27,3.4-3,6.15C181.67,89.59,181.33,89.93,181,90.27z"/>
	<path class="st0" d="M173,226.67c0.56-4.21,1.86-5.65,3-6.15c1.51-0.66,3.31,0.06,4-1.03c0.41-0.65,0.16-1.51,0-2.05
		c-0.7-2.38-2.76-2.55-3-4.1c-0.25-1.55,1.52-3.31,3-4.1c2.43-1.3,3.61,0.27,6-1.03c2.02-1.1,2.03-2.68,4-3.08
		c1.33-0.27,1.75,0.37,3,0c2.07-0.61,3.09-3,3-3.08c-0.14-0.11-4.62,4.29-8,8.2c-0.67,0.78-1.59,1.87-3,2.05
		c-1.99,0.25-3.47-1.51-4-1.03c-0.51,0.46,1.01,1.98,1,4.1c-0.01,1.27-0.57,2.46-5,7.18C175.41,224.27,174.03,225.66,173,226.67z"/>
	<path class="st0" d="M229,121.04c-1.21,1.33-3.18,3.1-6,4.1c-3.01,1.07-4.02,0.2-7,1.03c-2.82,0.78-2.68,1.77-9,6.15
		c-3.46,2.4-3.09,1.82-8,5.13c-2.86,1.93-4.78,3.34-5,3.08c-0.2-0.24,1.38-1.54,3-4.1c2.28-3.61,1.46-4.7,3-6.15
		c2.5-2.36,4.79,0.38,9-2.05c1.18-0.68,1.89-1.41,6-4.1c0.56-0.37,1.14-0.74,2-1.03c2.08-0.68,3.71-0.15,5,0
		C223.59,123.28,225.91,123.04,229,121.04z"/>
	<path class="st0" d="M35,308.72c-5.88-3.68-4.99-9.33,0-11.28c2.92-1.25,4.55,0.29,6-1.03c1.85-1.68,0.29-5.17,2-6.15
		c1.25-0.72,2.56,0.88,4,0c0.87-0.53,0.69-1.31,2-3.08c1-1.36,1.97-2.08,2-2.05c0.06,0.06-5.09,3.22-6,8.2
		c-0.16,1.38-1.19,6.34-3,7.18c-0.74,0.39-1.82,0.26-4,0c-1.75-0.21-2.36-0.43-3,0C33.03,301.97,34.11,307.37,35,308.72z"/>
	<path class="st0" d="M43,262.57c2.09-2.48,2.26-4.09,2-5.13c-0.18-0.71-0.47-0.78-1-2.05c-0.76-1.83-0.48-2.45-1-4.1
		c-0.81-2.59-1.97-2.58-2-4.1c-0.05-2.36,2.68-4.34,3-4.1c0.28,0.21-1.48,1.98-1,4.1c0.29,1.29,1.13,1.47,2,3.08
		C47.55,255.04,44.77,260.76,43,262.57z"/>
	<path class="st0" d="M5,332.31c2.58-1.81,4.14-3.83,5-5.13c1.38-2.09,3.17-4.8,3-8.2c-0.13-2.51-1.21-3.21-1-6.15
		c0.1-1.45,0.45-2.48,1-4.1c0.26-0.78,1.79-5.3,3-5.13c0.54,0.08,0.64,1.05,1,1.03c0.8-0.05,1.64-4.9,1-5.13
		c-1.02-0.36-6.36,10.66-4,14.36c0.17,0.27,0.68,0.96,1,2.05c0.49,1.66,0.21,3.13,0,4.1c-1.01,4.65-1.62,7.46-4,10.26
		C10.19,331.29,6.43,335.4,5,332.31z"/>
	<path class="st0" d="M7,242.06c1.41-0.96,3.06-2.41,3-4.1c-0.05-1.24-0.98-1.87-2-3.08c-3.33-3.95-3.94-9.73-3-10.26
		c0.56-0.32,1.89,1.15,2,1.03c0.17-0.2-3.98-2.86-4-6.15c0-1.02,0.39-1.65,2-4.1c3.19-4.86,4.79-7.28,5-7.18
		c0.98,0.48-3.97,13.34-4,13.33c-0.01,0,0.37-1,1-3.08c0.82-2.7,0.81-3.06,1-3.08c0.83-0.09,1.75,6.89,3,16.41
		C11.8,236.33,11.39,240.63,7,242.06z"/>
	<path class="st0" d="M40,131.29c0.6-0.9,1.41-2.28,2-4.1c0.7-1.67,1.4-11.03,2-12.31c0.72-2.03,1.24-2.14,3-6.15
		c0.56-1.28,0.87-2.09,1-2.05c0.22,0.07-0.42,2.36-1,6.15c-0.57,3.7-0.39,4.24-1,7.18c-0.48,2.29-0.6,2-1,4.1
		c-0.74,3.88-0.21,4.26-1,6.15c-0.82,1.97-1.67,2.21-2,4.1c-0.3,1.72,0.14,3.04,0,3.08C41.87,137.48,41.42,136.34,40,131.29z"/>
	<path class="st0" d="M61,85.14c1.9-1.01,2.67-2.17,3-3.08c0.61-1.67-0.03-3.06,1-4.1c0.71-0.72,1.26-0.3,2-1.03
		c0.92-0.9,0.56-2.02,1-4.1c0.37-1.77,1.31-4.16,2-4.1c0.71,0.06,1.5,2.68,1,5.13c-0.62,3.01-3.08,5.06-3,5.13
		c0.05,0.05,1.01-1.01,1-1.03C67.63,79.49,64.04,83.12,61,85.14z"/>
	<path class="st0" d="M86,69.76c0.24-3.51,1.48-7.68,5-11.28c1.3-1.33,1.77-1.39,4-3.08c3.85-2.91,4.65-4.39,8-6.15
		c0.93-0.49,2.7-1.42,3-1.03c0.5,0.66-3.43,4.57-4,5.13c-1.9,1.89-3.07,3.04-5,4.1c-2.25,1.24-2.92,0.91-4,2.05
		c-1.44,1.53-1.09,3.02-2,5.13C90.36,66.13,89.03,68.06,86,69.76z"/>
	<path class="st0" d="M30,34.89c0.06-0.71,0.11-1.79,0-3.08c-0.22-2.63-0.86-3.33-1-5.13c-0.26-3.32,1.48-6.25,2-6.15
		c0.48,0.09,0.05,2.72,1,3.08c0.77,0.29,1.93-1.1,2-1.03c0.09,0.1-2.3,1.66-3,4.1c-0.7,2.46,0.48,5.15,1,5.13
		c0.13-0.01,0.22-0.18,1-3.08c0.6-2.21,0.66-2.53,1-3.08c0.7-1.13,1.26-1.08,2-2.05c1.25-1.65,1.31-3.99,1-4.1
		C36.65,19.38,35.21,21.89,30,34.89z"/>
	<path class="st0" d="M16,17.45c-0.65-0.68,0.34-1.69,1-1.03c-0.33-1.71-0.67-3.42-1-5.13c1.17-3.39,1.72-4.16,2-4.1
		c0.56,0.12-0.21,3.49,1,4.1c0.88,0.45,2.87-0.51,3-2.05c0.09-1.15-0.9-1.97-1-2.05c-5.33-3.55-5.11-4.82-5-5.13
		c0.29-0.81,1.81-0.32,8-1.03c1.06-0.12,2.77-0.34,5,0c1.13,0.17,2.92,0.44,3,1.03c0.06,0.5-1.11,1.39-7,3.08
		c1.89-0.9,0.77-1.87-1-2.05c-2.19-0.2-4.16,1.68-4,2.05c0.13,0.29,1.47-0.5,2,0c0.85,0.59-0.83,4.24-4,9.23
		c0.46,0.82,10.37-3.31,10-5.13c-0.09-0.45-0.83-0.85-3-1.03L16,17.45z"/>
	<path class="st0" d="M243,97.45c-3.06-3.82-3.85-7.02-4-9.23c-0.18-2.61,0.55-3.49,0-6.15c-0.84-4.07-3.04-4.48-3-7.18
		c0.03-2.57,2.06-4.45,5-7.18c2.39-2.22,4.55-3.39,7.17-4.8c2.57-1.39,5.62-2.75,5.83-2.38c0.3,0.53-5.5,4.03-5,5.13
		c0.31,0.67,2.77,0.06,3,0c4.04-1.02,7.41-4.45,7-5.13c-0.61-1.01-10.08,3.2-14,8.2c-1.85,2.37-3,5.13-3,5.13
		c-1.76,3.96-1.13,5,0,10.26c0.72,3.64,0.86,6.17,1,6.15c0.12-0.01,0.03-2.05,0-2.05C242.96,88.22,242.97,91.54,243,97.45z"/>
	<path class="st0" d="M341,6.95c5.64,1.27,10.25,1.37,13,1.28c2.16-0.07,3.87-0.12,6-0.64c1.3-0.19,8.54-3.41,11-3.85
		c0.58-0.1,4.93-0.82,8,0.64c2.97,1.41,2.62,3.85,4,3.85c1.03,0,2.19-1.36,2-2.57c-0.22-1.42-2.24-2.25-3-2.57
		c-4.44-1.84-10.42-0.82-15,0c-5.44,0.98-6.08,1.79-11,2.57c-4.52,0.72-8.42,0.74-11,0.64L341,6.95z"/>
	<path class="st0" d="M177,34.89c-0.65-4.95-1.28-10.21-1-10.26c0.25-0.04,1.46,3.89,1,4.1c-0.57,0.26-4.66-4.86-4-10.26
		c0.19-1.56,0.88-3.97,2-4.1c1.8-0.21,2.72,5.69,6,6.15c1.97,0.28,3.45-1.58,4-1.03c0.42,0.43-0.33,1.67-2,5.13
		C180.47,30.14,179.82,31.56,177,34.89z"/>
	<path class="st0" d="M113,229.75c-0.11-0.1-0.01-0.53,1-2.05c1.5-0.69,3.5-1.91,5-4.1c1.15-1.69,1.02-2.52,2-4.1
		c1.53-2.48,3.39-2.94,7-5.13c3.95-2.39,6.11-3.71,8-6.15c2.43-3.14,1.73-4.7,5-9.23c1.41-1.96,3.52-4.41,4-4.1
		c0.37,0.23-0.49,1.91-2,6.15c-2.13,5.97-1.78,6.42-3,8.2c-1.99,3.19-9.91,7.61-13,9.23C118.35,223.33,113.51,230.23,113,229.75z"/>
	<path class="st0" d="M158,135.4c5.59-0.82,9.45-2.58,12-4.1c3.17-1.89,6.07-4.46,10-4.1c0.91,0.08,1.75,0.31,3,0
		c1.45-0.36,2.63-1.23,5-4.1c2.81-3.4,5.19-7.04,5-7.18c-0.15-0.11-1.83,2.18-2,2.05c-0.4-0.29,7.68-13.52,8-13.33
		c0.35,0.21-5.27,19.17-20,26.67c-5.53,2.82-13.17,4.43-13,5.13c0.09,0.35,2.12,0.14,3,0c2.45-0.38,5.09-1.55,5-2.05
		C173.89,133.81,170.25,133.8,158,135.4z"/>
	<path class="st0" d="M212,67.71"/>
	<path class="st0" d="M258,69.76c5.05,3.04,8.11,2.85,10,2.05c1.52-0.65,1.77-1.47,6-5.13c3.24-2.8,3.36-2.54,5-4.1
		c3.35-3.19,6.9-8.12,6-9.23c-0.93-1.14-6.3,2.06-8,3.08c-3.46,2.06-6.32,3.77-8,7.18c-1.28,2.58-0.69,3.76-2,5.13
		C264.95,70.88,261.13,70.51,258,69.76z"/>
	<path class="st0" d="M156,15.4c4-5.59,6.45-6.53,8-6.15c1.18,0.29,1.88,1.35,3,1.03c1.34-0.39,2.37-2.49,2-4.1
		c-0.27-1.2-1.19-1.57-1-2.05c0.39-0.95,4.3-0.15,5,0c2.83,0.6,2.93,1.21,4,1.03c2.39-0.41,2.45-3.5,5-5.13c1.64-1.04,3.16-0.75,8,0
		c10.58,1.64,13.03,1.75,13,2.05c-0.05,0.53-7.94,0.62-8,0c-0.06-0.64,8.21-1.76,15-2.05c4.96-0.21,6.69,0.13,7,1.03
		c0.33,0.95-1,2.35-2,3.08c-1.48,1.07-2.75,1.03-10,1.03c-3.96,0-5.93,0-6,0c-2.13,0.15-2.77,0.35-4,0c-1.43-0.41-1.65-1-4-2.05
		c-1.46-0.65-2.19-0.98-3-1.03c-2.15-0.12-3.85,1.18-5,2.05c-0.69,0.52-1.4,1.07-2,2.05c-0.66,1.09-0.52,1.64-1,2.05
		c-1.06,0.92-2.9-0.76-5-1.03c-4.08-0.51-5.82,4.79-12,7.18C161.47,14.97,159.16,15.58,156,15.4z"/>
	<path class="st0" d="M390,6.17c-9.04,4.53-8.32,7.4-14,14.36c-0.65,0.79-9.66,9.78-10,10.26c-3.07,3.31-3.24,4-6,7.18
		c-3.81,4.39-9.34,9.79-10,9.23c-0.49-0.42,1.68-4.22,4-7.18c3.28-4.18,4.53-3.72,7-7.18c3.17-4.44,1.86-6.22,5-9.23
		c2.03-1.94,2.77-1.38,6-4.1c2.51-2.12,2.23-2.6,5-5.13C381.97,10.03,385.38,8.28,390,6.17z"/>
	<path class="st0" d="M59,27.71c1.82,0.29,4.51,0.39,7-1.03c2.09-1.19,2.07-2.35,5-5.13c1.27-1.21,1.43-1.14,7-5.13
		c4.7-3.36,5.82-4.3,6-4.1c0.33,0.36-2.77,4.33-6,7.18C74.8,22.33,68.97,26.28,59,27.71z"/>
	<path class="st0" d="M62,1.04c-3.85-2.38,4.79-1.34,8,2.05c2.64,2.53,3.63,6.31,4,6.15c0.12-0.05-0.05-0.44,0-1.03
		c0.18-2.08,2.86-2.71,3-4.1c0.06-0.63-0.37-1.63-3-3.08H62z"/>
	<path class="st0" d="M113,18.48c2.29-3.31,3.4-6.17,4-8.2c0.52-1.77,0.73-3.2,2-4.1c1.4-0.99,2.46-0.19,5-1.03
		c2.57-0.85,3.61-2.38,4-2.05c0.52,0.44-0.85,3.54-3,6.15c-3.69,4.47-8.83,6.44-9,6.15c-0.17-0.28,3.92-3.18,4-3.08
		C120.06,12.41,117.62,14.55,113,18.48z"/>
	<path class="st0" d="M44,185.65c0.15-0.97,0.27-2.41,0-4.1c-0.62-3.82-2.76-5.67-5-9.23c-0.59-0.94-2.88-4.69-4-9.23
		c-2.03-9.02-0.29-19.13,5-9.23c1.18,2.23,1.2,3.82,2,9.23C43.43,171.94,43.93,174.43,44,185.65z"/>
	<path class="st0" d="M3,400c5.57-8.77,7.06-11.24,7-11.28c-0.09-0.06-3.25,5.49-4,5.13c-1.04-0.5,2.48-12.53,5-12.31
		c1.62,0.14,2.41,5.28,3,5.13c0.93-0.88-0.94-7.38-2-7.18C10.49,382.09,16.42,399.78,3,400z"/>
	<path class="st0" d="M15,369.23c0.83-0.85,1.99-2.21,3-4.1c2.03-3.81,2.02-7.12,3-7.18c0.97-0.06,1.9,3.12,2,3.08
		c0.08-0.24-5.04-11.84,0-7.18c2.37,2.65,1.35,8.82-2,12.31C19,368.23,16.55,368.96,15,369.23z"/>
	<path class="st0" d="M2,352.82c-1.48-5.62-0.9-8.58,0-10.26c0.32-0.6,0.99-1.62,1-3.08c0.01-1.47-0.67-2.02-1-4.1
		c-0.16-1.02-0.34-2.99,0-3.08c0.61-0.16,3.8,5.5,3,11.28C4.48,346.88,3.11,350.5,2,352.82z"/>
</g>
</svg>
