<?xml version="1.0" encoding="utf-8"?>
<!-- Generator: Adobe Illustrator 24.1.2, SVG Export Plug-In . SVG Version: 6.00 Build 0)  -->
<svg version="1.1" id="Layer_1" xmlns="http://www.w3.org/2000/svg" xmlns:xlink="http://www.w3.org/1999/xlink" x="0px" y="0px"
	 viewBox="0 0 1280 331" style="enable-background:new 0 0 1280 331;" xml:space="preserve">

<path class="st1" d="M881.5,157.16c0.19-5.07,3.75-12.39,22.99-18.33c21.36-6.58,39.9-4.65,68.97-10.84
	c36.15-7.68,23.76-14.15,65.67-27.51c27.06-8.62,58.31-14.24,62.4-13.33c2.85,0.62-9.67,3.85-16.43,10.84
	c-6.15,6.36,0.26,7.71-6.56,10.84c-12.49,5.69-37.53,2.76-55.84,8.33c-7.27,2.22-4.07,2.9-19.69,18.33
	c-6.37,6.3-8.13,7.4-13.13,8.33c-16.62,3.14-36.53-1.6-59.11,1.66c-8.23,1.19-6.6,1.96-26.29,6.67
	C895.14,154.38,886.95,156.07,881.5,157.16z"/>
<path class="st1" d="M156.44,106.01c8.26-0.38,20.62-1.21,33.33-3.19c13.9-2.17,14.82-3.64,27.12-5.87
	c23.5-4.29,35.57-1.77,50.05-5.19c13.29-3.16,4.83-5.71,18.28-13.65c5.7-3.37,14.66-8.68,34.55-12.33
	c24.08-4.42,38.52-1.72,53.44-5.93c8.1-2.29,5.6-3.58,15.11-14.58c9.61-11.11,15.98-14.18,18.51-15.32
	c11.94-5.42,30.03-9.71,34.1-9.01c3.62,0.62-6.02,4.83-18.51,15.32c-4.96,4.18-10.28,8.65-15.11,14.58
	c-7.56,9.28-5.25,11.52-14.98,13.75c-12.58,2.9-22.64,0.57-43.26,3.73c-18.38,2.81-27.02,7.17-30.83,9.1
	c-9.29,4.7-3.52,5.45-11.17,9.69c-15.11,8.38-48.92,11.65-57.6,12.49c-15.5,1.49-15.63,0.51-26.54,1.72
	c-42.52,4.65-50.62,20.49-55.33,20.06c-3.91-0.35,6.31-10.78-1.73-11.75c-5.83-0.69-17.71,4.02-20.2,3.58
	C143.7,112.88,148.95,109.81,156.44,106.01z"/>
<path class="st1" d="M809.91,100.12c0.99-7.35,6.88-17.03,31.99-22.86c28.62-6.64,53.18-1.52,73.26-8.53
	c27.09-9.47,0.54-25.12,32.59-28.08c13.19-0.42,61.51-0.35,84.34-0.36c30.67-0.09,40.82-0.38,41.88,0.21
	c1.34,0.75-15.63,1.25-35.09,4.53c-27.89,4.71-26.26,9.31-45.53,8.92c-18.79-0.38-33.72-5.01-39.41-3.34
	c-4.93,1.45,5.8,5.09,5.57,10.75c-0.19,4.71-7.78,7.38-9.83,8.06c-10.89,3.56-21.26,1.31-32.02,5.07c-6.02,2.1-3.68,3.13-11.69,5.96
	c-4.87,1.72-9.29,3.29-17.23,4.11c-16.49,1.69-28.85-1.81-38.77,0.33c-5.83,1.25-0.93,2.32-8.61,6.49
	C830.31,96.69,822.53,97.95,809.91,100.12z"/>
<path class="st1" d="M1035.35,92.57c13.45-7.23,14.7-12.82,13.13-16.67c-1.25-3.06-4.39-5.34,0-8.33c5.22-3.55,14.86-3.88,29.55-7.5
	c12.9-3.17,20.65-7.13,36.12-15.01c10.79-5.5,12.42-7.4,22.99-9.99c11.59-2.85,28.4-5.19,32.85-4.17
	c5.35,1.24-7.27,7.34-16.43,10.84c-13.64,5.19-24.11,6.33-22.99,9.16c1.12,2.87,12.39,3.35,13.13,6.67c0.7,3.08-8.42,5.48-9.86,5.83
	c-7.78,1.98-13.32,1.34-29.55,3.34c-11.97,1.46-21.32,2.61-26.29,5c-6.02,2.91,1.6,4.23-3.3,8.33
	C1071.37,83.65,1047.04,90.04,1035.35,92.57z"/>
<path class="st1" d="M43.64,89.61c41.75-10.43,45.91-8.95,93.81-14.46c29.91-3.31,33.91-4.11,37.33-5.47
	c8.77-3.46,7.91-8.03,7.14-12.05c-1.44-7.59-10.21-9.45-5.99-12.91c3.11-2.55,14.73-3.82,37.81-6.27
	c22.51-2.39,33.78-3.58,46.81-4.21c17.71-0.88,31.22-0.8,32.76-3.47c0.74-5.09-22-9.47-35.57-9.01c-10.05,0.35-6.28,3.14-16.46,4.76
	c-12.97,2.05-25.2-1.49-47.61-0.21c-3.39,0.2-13.45,0.88-22.32,3.13c-11.78,2.99-14.34,6.96-15.21,8.38
	c-1.95,3.25-0.45,6.39,1.09,9.66c1.89,3.97,3.81,4.65,3.01,6.45c-1.34,3.03-8.39,4.59-17.42,6.36c-24.46,4.79-32.11,5.01-45.56,7.84
	C74.47,72.98,53.41,82.9,43.64,89.61z"/>
<path class="st1" d="M10.21,45.79c0,0.44,3.2,1.89,11.01,4.74c9.25,3.25,14.28,2.72,16.62,2.17c1.83-0.42,3.84-1.81,7.84-4.57
	c3.36-2.39,10.73-8.29,14.6-10.61c2.18-1.31,5.83-3.49,11.17-5.13c4.83-1.63,26.67-4.24,31.12-3.5
	c12.49,2.17,24.14,12.46,24.21,12.41s-11.75-7.64-11.53-7.94c0.26-0.32,13.48,8.47,31.89,17.69c2.37,1.19,6.72,3.34,6.6,3.83
	c-0.13,0.44-3.75-0.68-11.59-3c-13.83-4.09-12.04-3.4-14.34-4.2c-13.48-4.57-15.14-7.78-23.69-9.21c-1.99-0.33-6.82-1.1-11.11,0.2
	c-2.79,0.85-3.04,1.87-6.18,4.3c-5.92,4.59-12.17,6.45-11.75,6.87c0.29,0.29,3.17-0.74,3.33-0.56c0.29,0.3-6.12,4.27-16.17,5.95
	c-7.97,1.33-15.56,0.77-20.52,0.11C69.99,59.06,9.03,43.81,10.21,45.79z"/>
<path class="st1" d="M16.17,6.04c12.39,8.29,24.43,10.99,31.47,12c6.92,1,11.69,1.65,17.96-0.11c7.2-1.99,9.48-5.18,19.05-7.87
	c3.36-0.95,7.91-2.23,13.32-2.05c6.31,0.21,10.34,2.31,17.48,6.14c9.48,5.1,8.81,6.88,13.42,7.38c5.12,0.54,10.02-1.21,19.66-4.68
	c13.32-4.98,19.69-9.38,15.69,1.28c-1.25,4.27-6.24,11.2-14.95,11.35c-3.87-0.12-3.84-2.36-7.59-3.76
	c-3.55-1.34-9.13-0.41-20.27,1.48c-4.61,0.79-6.5,1.28-9.25,0.82c-4.32-0.72-4-2.66-7.59-3.76c-6.88-2.14-17.42,2.08-23.15,4.39
	c-2.43,0.98-4.71,2.05-8.1,2.48c-3.59,0.45-6.08-0.12-8.71-0.71c-16.97-3.82-17.1-3.47-19.79-4.76c-3.46-1.68-2.31-1.78-8.77-5.43
	C25.77,14.58,23.37,14.76,16.17,6.04z"/>
<path class="st1" d="M87.12,92.59c-6.72,4.85-13.86,8.77-19.69,11.67c-14.92,7.41-22.12,8.53-22.99,12.5
	c-1.22,5.47,11.72,6.87,6.56,11.67c-2.02,1.9-4.07,1.69-16.43,7.5c-2.37,1.12-7.78,3.67-13.13,6.67C9.86,149.1,7.4,152.7,5.03,152.6
	c-2.79-0.12-1.89-5.31,0-9.16c0.61-1.22,1.7-3.16,6.56-8.33c6.66-7.1,13.06-12.5,13.13-12.5c0.06,0-3.84,3.29-3.3,3.34
	c0.61,0.05,9.09-4,13.13-9.16c4.8-6.17-0.19-9.5,9.86-11.67c5.12-1.1,7.04-0.38,13.13-1.66c9.41-1.98,7.59-4.32,16.43-7.5
	C76.49,95,80.59,93.78,87.12,92.59z"/>
<path class="st1" d="M1271.04,112.88c-23.73-3.14-38.84-2.1-48.38-0.5c-9,1.51-10.57,3.11-24.3,5.24
	c-16.43,2.55-19.12,1.04-30.74,3.47c-12.36,2.58-11.56,4.77-25.58,7.43c-11.72,2.22-18.67,3.46-26.45,0.41
	c-11.62-4.56-14.95-14.66-20.65-15.82c-6.47-1.31-8.81,10.27-4.74,12.27c4,1.96,10.09-7.16,34.2-13.56
	c0.22-0.06,7.24-1.49,21.29-4.36c20.94-4.27,24.14-4.91,30.55-5.22c8.36-0.42,15.3,0.05,28.18,0.92c17.03,1.15,15.05,1.99,28.4,2.67
	c10.44,0.53,16.59,0.26,26.9,3.11C1264.48,110.25,1268.45,111.81,1271.04,112.88z"/>
<path class="st1" d="M378.88,170.53c-9.32-0.95-21.26,0.45-26.35,1.43c-14.63,2.46-27.25,5.01-29.27,5.42
	c-16.49,3.28-33.91,3.29-65.06,3.32c-21.58,0.03-42.42-0.03-53.82-3.86c-1.76-0.59-5.83-2.01-4.07-3.25
	c2.82-1.96,20.01-3.26,33.33-2.17c8.97,0.72,13.83,2.34,21.55,1.65c3.2-0.29,3.23-0.65,6.88-1.22c10.31-1.62,16.14,0.24,30.03-0.6
	c7.01-0.42,5.51-0.91,22.61-2.76c10.44-1.13,13.99-1.28,13.93-1.48c-0.16-0.97-88.18-0.18-89.97,2.78
	c-2.08,2.4,50.75,5.87,76.88,3.99c21-1.3,27.47-4.5,41.75-4.91C362.48,168.74,369.85,168.93,378.88,170.53z"/>
<path class="st1" d="M19.56,162.08c0.67-0.45,1.34-0.91,2.05-1.36c15.88-7.91,25.17-8.61,45.27-11.46
	c7.01-1.19,18.92-3.2,30.74-7.11c3.71-1.24,5.86-2.13,6.76-1.83c1.5,0.51-1.47,4.17-6.5,7.02c-4.64,2.64-7.11,2.34-16.59,5.71
	c-11.81,4.2-9.89,5.34-17.58,6.39c-4.77,0.65-11.24,1.52-21.58,0.98c-5.06-0.27-10.44-0.85-15.82-0.17
	C22.83,160.69,20.75,161.49,19.56,162.08z"/>
<path class="st1" d="M350.99,150.5c-4.16-0.12-12.97-7.82,0-13.33c13.8-5.86,39.09-3.7,52.54-9.99c6.24-2.93,2.98-4.42,13.13-9.16
	c20.08-9.51,27.7-6.61,22.99,3.34c-1.99,3.73-4.03,7.64-16.43,10.84c-3.71,0.95-14.18,3.65-29.55,4.17
	c-7.75,0.26-13.45-0.15-16.43,0.83c-3.81,1.27,2.95,2.79,0,5c-2.47,1.83-8.29,1.63-16.43,4.17
	C353.13,148.72,353.04,150.56,350.99,150.5z"/>
<path class="st1" d="M1.95,256.44c1.02-0.53,2.43-1.33,3.78-2.34c7.4-5.5,1.54-8.7,2.91-14.1c1.44-5.72,9.96-9.84,15.82-12.67
	c4.13-1.99,8.71-3.56,17.9-6.72c18.73-6.42,28.08-9.63,38.71-11.62c21.29-4,35.92-3.4,41.11-7.32c4.39-3.32-1.99-6.78-1.89-6.79
	c16.07,9.99,9.86,17.48-34.39,22.71c-14.18,1.83-22.25,1.89-30.61,4.45c-4.26,1.3-6.56,2.93-11.17,6.19c-8,5.63-5.54,6.34-11.88,9.5
	c-7.36,3.68-11.78,3.25-14.44,6.04c-2.91,3.08,1.47,4.59-1.54,7.46C13.48,253.84,6.79,255.49,1.95,256.44z"/>
<path class="st1" d="M14.86,227.56c-12.55-7.2,7.33-13.69,29.55-20c16.94-4.74,32.18-9,36.12-8.33c4.42,0.75-9.16,7.16-6.56,7.5
	c3.01,0.41,25.29-7.85,22.99-8.33c-2.05-0.42-19.34,6.14-55.84,15.01C26.29,216.54,14.63,222.23,14.86,227.56z"/>
<path class="st1" d="M14.86,101.75c-3.55-3.55-6.92-8.41-6.56-14.16c0.29-5,3.3-9.24,6.56-12.5"/>
<path class="st1" d="M44.41,75.92c-8.61,1.69-16.07,4.23-19.69,7.5c-6.95,6.01-4.39,15.01-3.3,15.01c0.99-0.02-0.1-7.5,0-7.5
	c2.63,3.35,0.77,14.51-19.69,21.66"/>
<path class="st1" d="M599.74,163.03c1.86-0.17,4.07-0.47,4.16-1.15c0.13-0.89-3.62-1.83-5.25-2.49
	c-9.57-3.9,20.46-12.17,21.84-12.55c14.06-3.8,21.1-5.72,31.31-5.95c17.19-0.39,24.14,2.75,51.81,4.83
	c9.93,0.74,47.23,3.55,66.37-1.78c9.93-2.76,11.56-6.76,11.94-7.87c2.21-6.14-9.22-9.59-4.83-13.77c4.29-4.06,19.66-5.09,27.66-5.6
	c29.55-1.95,49.05,4.12,71.11,1.51c12.62-1.49,17.55-4.82,22.41-8.11c5.09-3.44,1.99-3.9,8.77-13.56
	c1.66-3.46,12.65-13.48,26.54-14.48c17.19-1.19,46.23,5.1,46.59,7.56c0.26,1.59-11.56,0.33-19.31,3.32
	c-3.87,1.48-3.49,2.78-9.38,3.88c-3.33,0.62-4.77,0.45-10.98,1.04c-6.82,0.63-15.5,1.45-19.31,3.32c-2.53,1.25-1.83,2.43-0.48,6.04
	c2.56,6.84,3.84,10.27,2.72,11.72c-2.53,3.28-10.76,4.57-25.04,6.85c-3.81,0.6-8.26,1.21-43.87,4.15
	c-21.58,1.78-25.65,2.02-32.92,3.11c-3.68,0.54-13.38,2.1-24.01,5.27c-29.07,8.68-19.56,16-42.2,17.47
	c-16.23,1.04-36.31-1.75-39.77-2.23c-22.32-3.11-30.07-7.59-49.24-8.82c-12.81-0.82-21.55,0.41-24.56,0.83
	c-12.9,1.8-12.81,4.98-23.95,10.49C614.37,157.84,608.61,160.34,599.74,163.03z"/>
<path class="st1" d="M362.96,25.09c4.87-0.09,11.49-0.44,16.43-1.66c6.6-1.65,3.91-3.32,9.86-5.83c7.24-3.05,20.94-4.67,22.99-4.17
	c1.66,0.41-3.65,2.45-3.3,2.51c0.77,0.11,20.72-9.84,29.55-9.16c3.87,0.29,3.43,2.45,6.56,2.51c3.81,0.06,7.59-3.09,9.86-5
	c0.67-0.56,4.8-4.02,3.3-4.17c-1.99-0.2-6.85,6.04-26.29,11.67C428.09,13.34,380,22.05,362.96,25.09z"/>
<path class="st1" d="M382.65,32.58c2.72-6.42,20.68-13.12,45.98-15.84c16.23-2.13,21.96-5.01,32.85-7.5
	c6.12-1.4,13.93-2.32,29.55-4.17c4.03-0.47,51.39-6.01,55.84-4.17c2.82,1.16-12.1,5.12-26.29,7.5c-3.49,0.59-11.3,1.81-39.41,4.17
	c-20.46,1.72-24.94,1.8-32.85,2.51c-40.89,3.68-64.04,14.61-62.4,15.01c1.41,0.33,25.42-6.05,26.29-5.83
	C412.72,24.38,404.65,26.7,382.65,32.58z"/>
<path class="st1" d="M297.93,252.6c1.5-0.06,3.01-0.12,4.51-0.18c72.43-4.76,14.92-37.49,76.36-41.83
	c15.3-1.65,71.21,5.06,95.22,7.38c19.05,1.65,26.35,1.83,28.91,3.97c3.52,2.93-3.52,8.11-13.7,9.86
	c-16.36,2.82-39.83-3.34-44.67-4.62c-14.41-3.79-21.13-7.44-32.88-8.3c-8.61-0.63-13.93,0.69-15.4,1.1
	c-5.8,1.6-6.31,3.79-12.23,9.41c-5.03,4.76-7.78,7.38-12.23,9.41c-8.13,3.7-18.22,3.68-24.24,3.86
	C334.95,243.06,317.56,245.1,297.93,252.6z"/>
<path class="st1" d="M17.99,313.25c-1.47-0.14-0.54-1.63,0-2.51c3.97-6.42,11.85-19.2,13.13-27.51c1.22-7.9-3.91-9.36,3.3-13.33
	c7.75-4.3,16.97-4.38,26.29-9.16c7.24-3.71,3.94-4.83,9.86-13.33c11.27-15.05,7.56-13.26,52.54-25
	c20.72-5.34,35.41-9.04,45.98-15.84c6.08-4.32,1.99-5.54,6.56-10.84c4.45-5.13,11.49-7.71,16.43-9.16
	c4.87-1.43,9.45-2.78,13.13-2.51c8,0.6,9.03,8.7,0,15.84c-6.85,5.4-12.97,5.13-22.99,11.67c-12.55,8.18-4.64,9.71-16.43,13.33
	c-12.84,3.96-36.37,6.48-45.98,7.5c-13.38,1.43-20.88,1.71-22.99,3.34c-3.2,2.46,11.43,3.9,16.43,8.33
	c7.04,6.27-11.21,13.06-16.43,15.01c-8.1,3.02-13.06,3.41-26.29,8.33c-7.72,2.88-11.59,4.32-13.13,5.83
	c-5.44,5.28,9.8,7.14,6.56,12.5c-2.5,4.14-12.01,3.82-19.69,9.99c-4.74,3.8-1.44,4.17-6.56,8.33
	C31.57,309.05,20.75,313.5,17.99,313.25z"/>
<path class="st1" d="M689.01,175.65c14.82-2.04,29.94-3.93,55.55-6.17c16.87-1.46,14.41-0.91,19.02-1.52
	c29.2-3.96,28.62-12.92,57.41-14.96c5.54-0.39,11.21-0.45,13.19-0.48c13.29-0.15,24.37-0.27,37.88,2.14
	c12.87,2.29,33.4,7.84,37.56,12.53c0.77,0.86,0.93,1.62,0.61,2.31c-1.79,3.9-16.11,7.19-26.7,6.11
	c-13.26-1.34-10.02-8.42-23.73-12.03c-21.58-5.68-54.88,5.25-77.84,5.78c-2.37,0.06-6.66,0.03-11.3,1.19
	c-7.46,1.86-7.94,5.13-22.61,4.39c-19.31-0.97-27.54-4.24-39.41-3.74C703.77,171.41,696.92,172.33,689.01,175.65z"/>
<path class="st1" d="M196.95,305.62c10.89-0.75,26.38-1.96,38.93-3.02c27.41-2.28,30.51-2.58,31.7-2.17
	c3.78,1.24-19.28,6.82-17.55,7.34c1.83,0.54,32.5-4.09,54.66-13.16c5.7-2.34,14.82-6.16,20.2-12.18c4.51-5.07,1.15-5.87,5.73-10.49
	c2.98-4.51,27.57-16.5,61.35-19.25c10.34-0.98,30.8-2.91,40.79-0.21c11.88,3.2,1.22,10.85,0.64,11.26
	c-7.49,5.21-22.83,7.55-35.67,9.45c-24.11,3.56-31.92,1.87-43.45,5.06c-17.32,4.79-14.95,12.8-17.03,12.56
	c-2.05-0.23-0.51-7.84-2.4-8.03c-2.08-0.23,0.32,9.68-21.52,14.6c-3.87,0.88-7.14,1.28-32.15,2.99
	c-51.36,3.52-80.53,4.74-78.32,6.85c0.8,0.79,5.83,1.6,5.92,1.59C208.89,308.75,203.29,307.27,196.95,305.62z"/>
<path class="st1" d="M79.98,310.27c-7.2-5.16-3.65-8.91,19.69-10.84c15.75-1.71,36.95-4,49.24-7.5c3.87-1.1,9.16-4.91,19.69-12.5
	c8.23-5.92,10.82-8.33,19.69-9.16c8.13-0.77,19.5,0,22.99,1.66c1.83,0.86,0.93,1.69-16.43,9.99c-6.63,3.19-10.02,4.74-16.43,6.67
	c-5.86,1.77-11.21,2.93-13.13,3.34c-22.67,4.79-34.58,2.66-49.24,6.67c-6.12,1.68-9.25,3.47-19.69,5.83
	C90.52,305.5,81.45,308.88,79.98,310.27z"/>
<path class="st1" d="M393.25,202.07c8.23-29.32,64.1-24.41,75.53-33.33c2.98-2.63-1.25-6.51-9.86-14.16
	c-6.63-5.9-8.97-6.79-6.56-8.33c4.9-3.14,20.04-2.88,52.54-5.83c26.96-2.45,53.82-4.88,72.23-10.84c10.85-3.5,11.72-5.96,16.43-5.83
	c10.34,0.27,24.43,12.64,3.3,19.17c-10.76,3.32-27.31,4.11-45.98,5c-38.55,1.84-58.72-1.01-65.67,1.66
	c-7.33,2.81,13.8,6.43,9.86,13.33c-1.79,3.16-6.44,2.82-19.69,9.99c-13.86,7.5-10.34,8.7-19.69,10.84
	c-15.63,3.58-31.09,1.54-39.41,5c-6.15,2.55,0.19,4.54-6.56,8.33C405.39,199.48,398.57,201.08,393.25,202.07z"/>
<path class="st1" d="M312.88,310.39c24.4-0.6,43.74-1.81,57.76-2.91c28.24-2.23,42.36-3.35,53.86-7.08c12.55-4.08,7.59-6.39,20.52-9
	c5.96-1.21,13.96-2.13,50.4-2.36c38.33-0.24,37.14,0.74,55.42,0.24c38.52-1.04,58.05-5.75,65.13-3.47c3.07,1,1.66,2.63,0.8,3.65
	c-5.96,6.96-36.5,7.49-40.28,7.53c-29.71,0.38-41.43-4.85-79.69-5.07c-10.82-0.06-28.53-0.11-30.03,3.03
	c-1.34,2.82,11.56,5.54,10.89,8.83c-0.22,1.07-2.02,2.9-28.08,5.12c-14.79,1.25-19.88,1.15-39.93,2.29
	C375.9,313.04,349.1,316.95,312.88,310.39z"/>
<path class="st1" d="M524.08,238.11c15.4-0.36,41.43-1.69,62.44-7.19c9.16-2.4,19.05-4.98,23.09-9.89
	c6.15-7.49-7.88-12.47,2.91-16.08c6.56-2.19,12.87-0.74,39.09-2.52c7.24-0.5,28.24-1.98,47.84-5.68c21.61-4.08,17.96-6.4,35.7-8.18
	c11.59-1.16,12.07-0.06,44.92-0.88c32.82-0.68,55.68-3.26,52.96,2.81c-2.69,5.21-28.98,6.14-41.53,6.54
	c-27.22,0.86-32.43-1.55-51.26,0.02c-14.5,1.21-24.08,3.71-30.61,5.4c-15.27,3.97-11.3,5.45-21.13,6.69
	c-20.4,2.55-46.3-2.73-51.26,0.02c-3.07,1.69,6.56,3.82,8.26,8.92c1.15,3.53-2.37,5.92-4.39,7.22c-4.71,3.05-11.62,4.45-24.78,7.07
	c-13.22,2.63-52.99,8.74-76.01,7.08C533.53,239.11,527.79,238.53,524.08,238.11z"/>
<path class="st1" d="M409.36,109.47c4.67-3.82,13.74-8.97,32.85-12.5c15.72-2.9,22.83-1.87,42.68-5
	c26.16-3.96,54.91-12.09,49.24-24.17c-1.83-6.75-11.01-10.16-3.3-12.5c6.47-1.96,15.69-0.44,22.99-2.51
	c9.38-2.64-1.47-6.37,6.56-10.84c4.8-2.66,12.94-3.68,19.69-5c35.38-6.84,44.12-23.45,32.88-25c-9.48-1.31-39.38,7.17-36.12,8.33
	c3.94,1.4,56.96-7.64,62.4-5.83c3.2,1.07-13.7,4.7-29.55,9.99C557.28,42,559.52,63.36,560.45,71.97c0.26,2.51,0.8,7.46,3.3,7.5
	c4.71,0.08,11.78-17.42,9.86-17.5c-2.15-0.09-0.74,21.97-52.54,31.67c-7.97,1.49-5.32,0.65-32.85,5
	c-49.47,7.84-84.66,15.23-85.39,15.01c-0.61-0.2,24.72-5.19,22.99-5.83C425.17,107.58,421.46,107.82,409.36,109.47z"/>
<path class="st1" d="M0.45,152.18c2.98,0.26,5.99,0.51,8.97,0.77c22.22,1.89,42.55,0.18,57.44-1.54
	c28.11-2.67,29.43-0.41,40.57-2.49c18.57-3.49,13.1-9.47,25.13-16.11c16.65-9.22,53.02-12.08,90.07-8.09
	c20.08,2.16,19.31,4.08,74.48,12.36c26.13,3.93,34.8,4.79,38.04,6.97c7.24,4.92-17.26,13.62-51.04,9.21
	c-13.42-1.75-29.75-5.75-45.98-9.72c-26.96-6.6-29.17-7.94-35.92-8.32c-3.81-0.21-6.82,0.39-7.59,0.53
	c-6.92,1.21-19.66,0.2-29.55,2.17c-14.18,2.85-19.92,11.38-22.41,15.1c-4.39,6.51-0.8,8.15-4.99,10.51
	c-7.91,4.47-26.93,1.12-65.93-2.16C43.58,158.99,18.63,155.29,0.45,152.18z"/>
<path class="st1" d="M651.71,210.78c4.16,0.79,8.32,1.56,12.49,2.34c32.37,5.47,61,9.12,101.31,8.5
	c15.85-0.35,19.12-1.37,54.14-5.57c31.92-3.82,38.74-4.12,52.06-7.02c10.73-2.34,17.9-3.96,23.02-7.52
	c6.63-4.62,2.53-7.38,9.73-8.89c10.66-2.22,26.86,2.29,53.98,4.71c14.54,1.3,32.05,0.68,67.11-0.53c45.47-1.59,54.02-3.26,63.4-0.5
	c16.11,4.74,14.09,18.92,7.11,20.5c-6.6,1.49-15.95-8.24-40.95-10.93c-8.58-0.92-14.73-0.56-25.61,0
	c-68.81,3.55-103.2,5.33-111.78,5.01c-11.49-0.42-22.51-1-27.73,1.69c-8.07,4.14,11.11,11.93,2.43,14.66
	c-7.91,2.49-29.33-1.99-35.19,1.75c-1.44,0.94-0.45,1.42-2.43,2.22c-4.87,1.96-16.36,0.47-26.1,0.21
	c-18.47-0.48-21.96-1.8-41.5-2.61c-16.65-0.68-16.33,0.18-36.47-0.44C717.89,227.27,697.75,226.77,651.71,210.78z"/>
<path class="st1" d="M1196.89,267.4c-8.39,9.36-23.25,14.42-33.65,17.12c-28.66,7.4-84.56,12.59-118.05,3.02
	c-10.5-3-19.34-7.64-31.25-8.59c-9.32-0.75-14.54,1.24-17.35,2.32c-8.52,3.26-4.07,6.93-8.48,11.07c-4.26,3.97-13.26,5.5-22.25,6.76
	c-29.3,4.12-67.05-0.26-72.94-0.97c-28.08-3.37-33.04-6.9-60.26-9.13c-16.55-1.36-29.46-1.27-39.38-1.19
	c-25.33,0.18-41.72,2.22-42.65,1.77c-0.48-0.24,3.33-1.24,9.09-1.52c15.98-0.8,34.61,4.47,54.43,7.7
	c18.25,2.97,27.92,2.64,55.58,3.29c102.17,2.36,130.19,10.46,168.74,4.71c13.83-2.07,16.49-4.05,36.34-6.13
	c24.27-2.55,33.3-0.95,62.12-2.63C1187.31,292.65,1217.86,287.63,1196.89,267.4z"/>
<path class="st1" d="M1064.84,285.44c0.7,0.24,7.59-0.57,13.13-1.66c20.43-4,22.45-11.52,22.99-14.16c1.63-7.71-9.64-8.95-3.3-13.33
	c7.62-5.28,30-7.68,36.12-8.33c25.17-2.7,36.79,0.02,68.97-0.83c46.27-1.21,71.11-8.11,75.53-6.67c4.19,1.36-16.23,8.11-42.68,12.5
	c-3.55,0.59-54.85,8.91-82.1,4.17c-8.23-1.43-12.3-3.71-16.43-3.34c-4.9,0.44-2.43,3.96-3.3,7.5c-2.47,10.22-31.76,17.11-29.55,17.5
	c2.05,0.38,24.97-6.14,22.99-6.67C1124.2,271.32,1062.5,284.64,1064.84,285.44z"/>
<path class="st1" d="M1072.49,247.95c-61.7,5.69-35.99,22.62-63.01,22.92c-6.56-0.14-9.54-1.54-19.05-2.88
	c-27.12-3.85-33.49,3.23-61.32,1.63c-12.74-0.72-11.78-2.23-43.93-7.23c-21.39-3.32-50.14-7.79-79.57-8.61
	c-11.11-0.3-24.4,0.57-50.97,2.34c-15.75,1.04-11.27,1.04-45.18,3.79c-34.29,2.63-48.99,3.73-14.09,5.9
	c22.48,1.31,38.33,0.63,52.22-0.14c37.14-2.07,41.78-3.85,62.15-2.36c5.38,0.39,4.23,0.45,26.51,2.87
	C896.23,272.94,1084.5,293.21,1072.49,247.95z"/>
<path class="st1" d="M556.71,165.1c-18.92,1.52-29.36,9.65-19.69,14.16c7.33,3.43,23.28,3.4,22.99,5
	c-0.48,2.64-43.23,1.72-75.53,9.16c-12.55,2.9-20.78,6.42-19.69,6.67c1.25,0.29,15.46-3.82,36.12-8.33
	c42.9-9.36,81.42-13.39,78.83-15.01c-2.05-1.27-26.51,0.83-29.55-0.83c-3.94-2.16,33.72-7.37,29.55-9.99
	C577.61,164.6,565.58,164.37,556.71,165.1z"/>
<path class="st1" d="M342.69,300.29c-3.2-2.28-5.7-5.28,0-7.5c5.12-1.99,12.58-1.68,29.55-3.34c29.33-2.88,52.51-8.33,52.54-8.33
	l0,0c0,0,23.63-6.24,36.12-14.16c8.04-5.1,6.21-7.55,16.43-9.16c9.25-1.46,22.93-1.39,26.29,0c3.59,1.49-5.03,4.44-16.43,8.33
	c-6.24,2.13-9.38,3.2-16.43,5C454.7,275.22,407.31,286.09,342.69,300.29z"/>
<path class="st1" d="M1184.18,236.51c2.43-7.7,16.36-11.97,32.08-11.87c13.99-0.33,16.94,1.95,26.35,1.16
	c15.05-1.24,15.4-7.73,22.64-5.65c4.26,1.24,8.16,4.68,8.55,6.82c0.54,3.19-6.66,3.59-13.93,3.96c-16.11,0.79-23.69-2.58-32.47-0.6
	c-6.79,1.52-3.23,3.74-10.37,4.53c-7.4,0.82-13.83-1.28-22.83-0.6C1189.14,234.64,1186,235.69,1184.18,236.51z"/>
<path class="st1" d="M1023.22,248.8c5.12,0.14,12.58,0.14,19.69-0.83c16.52-2.25,12.52-7.19,29.55-13.33
	c10.69-3.85,14.31-2.66,29.55-7.5c14.79-4.7,27.06-10.82,22.99-11.67c-3.33-0.68-17.13,2.19-16.43,2.51
	c1.28,0.57,51.26-7.38,59.11-5c4.61,1.39-7.46,5.71-6.56,5.83c1.18,0.17,21.55-8.02,19.69-8.33c-2.15-0.38-28.66,10.79-72.23,21.66
	C1077.07,240,1046.21,245.33,1023.22,248.8z"/>
<path class="st1" d="M940.93,26.75c7.46-3.74,9.93-7.1,9.86-9.99c-0.1-3.26-3.39-4.7,0-6.67c4.29-2.49,15.43-3.67,36.12-5
	c32.27-2.07,71.59-3.44,72.23-2.51c0.9,1.28-70.15,5.09-68.97,6.67c0.26,0.35,3.78,0.33,16.43,0.83
	c16.27,0.65,29.65,1.43,29.55,1.66c-0.19,0.44-47.07-3.17-62.4,1.66c-8.68,2.73-1.22,6.28-13.13,9.99
	C954.47,25.33,946.47,26.27,940.93,26.75z"/>
<path class="st1" d="M668.13,24.97c-5.44-1.9,8.36-9.36,26.29-9.16c14.66,0.17,27.25,5.39,22.99,7.5
	c-1.89,0.94-8.93,1.19-22.99,1.66C678.44,25.51,670.47,25.78,668.13,24.97z"/>
<path class="st1" d="M608.61,274.84c45.21-10.08,35.57-13.86,36.12-25c-0.38-3.11-0.74-3.34,0-4.17
	c5.35-5.92,38.81-10.54,52.54-8.33c24.69,5.22-25.58,9.77-29.55,9.99l0,0c0,0-4.16,17.48-3.3,17.5
	C676.42,250.91,650.97,257.49,608.61,274.84z"/>
<path class="st1" d="M773.47,65.08c3.59,16.06,6.88,21.66,9.86,21.66c2.95,0,6.53-5.54,3.3-5.83c-5.57-0.51-29.97,13.66-32.85,13.33
	c-1.73-0.2,7.17-5.27,13.13-11.67C773.5,75.48,774.14,69.35,773.47,65.08z"/>
<path class="st1" d="M462.96,56.01c3.3,0.03,8.52-0.05,13.13-0.83c11.4-1.96,4.77-5.83,16.43-9.99c7.84-2.82,15.98-2.9,16.43-5
	c0.32-1.63-4.51-2.04-6.56-5c-0.61-0.86-1.6-2.37,0-4.17c1.06-1.19,2.27-1.42,6.56-4.17c4.26-2.72,4.03-3.13,3.3-3.34
	c-2.02-0.54-9.35,0.06-13.13,0.83C476.28,30.3,544.96,49.14,462.96,56.01z"/>
<path class="st1" d="M881.82,3.41c-3.39,0.85-8.39,2.23-13.13,4.17c-10.02,4.39-12.04,8.06-29.55,11.67
	c-8.77,1.72-24.62,3.7-29.55,2.51c-8.1-1.96,16.17-11.7,16.43-11.67c-19.18,8.41,47.29-6.91,42.68-7.5
	c-1.6-0.56-20.43,1.98-19.69,2.51C849.58,5.49,862.68,4.75,881.82,3.41z"/>
<path class="st1" d="M257.88,13.1c6.6-6.34,28.82-7.02,52.54-6.67c10.53,0,17.96-0.32,29.55-0.83c20.52-0.91,23.37-1.66,36.12-1.66
	c10.66,0,19.72,0.51,19.69,0.83c-0.06,0.63-37.3,0.02-59.11,3.34c-1.15,0.18-3.33,0.53-6.56,0.83c-11.59,1.1-20.11,0.14-29.55,0
	c-20.01-0.29-36.21,3.28-36.12,3.34c0.1,0.06,16.36-1.71,16.43-1.66C280.9,10.63,274.14,11.37,257.88,13.1z"/>
<path class="st1" d="M290.63,40.71c0.06-1.15,0.61-2.7,3.3-3.34c2.85-0.66,6.12,0.2,9.64,0.23c5.22,0.05,7.08-1.72,9.48-3.76
	c9-7.62,13.67-11.43,22.25-10.84c5.06,0.35,11.43,1.99,12.52,3.14c0.86,0.92-1.92,1.21-6.76,2.69c-2.18,0.66-5.06,1.87-10.82,4.29
	c-5.86,2.45-6.28,2.93-9.48,3.76C311.03,38.93,303.6,39.22,290.63,40.71z"/>
<path class="st1" d="M182.35,82.59c-0.29-0.26-0.9-0.91,0-1.66c0.74-0.63,2.18-1.04,2.91-1.22c2.53-3.96,10.66-6.4,16.78-2.94
	c1.83,1.3-1.12,2.28,0,2.51c3.2,0.65,32.82-6.37,29.55-7.5c-2.31-0.79-19.6,1.72-19.69,1.66c-0.1-0.06,19.53-2.04,42.68-3.34
	c5.03-0.29,8.58-0.44,9.86,0c2.69,0.92-4.96,4.33-16.43,5.83c-15.5,2.04-36.21,0.38-36.12,0c0.06-0.29,12.2-0.62,13.13,0
	C226.02,76.57,214.97,78.49,182.35,82.59z"/>
<path class="st1" d="M293.99,107.59c47.93-4.86,30.8-12.39,49.24-15.01c6.76-0.72,12.71,0.26,16.43-0.83c1.09-0.32,2.4-0.94,0-4.17
	c-1.28-1.74-4.99-6.7-9.86-6.67c-1.66,0.02-2.82,0.6-3.3,0.83c-8.23,4.17,21.74,10.66,13.13,15.84c-3.59,2.16-13.1,3.65-16.43,4.17
	c-6.24,0.98-11.27,1.27-16.43,1.66C318.65,104.06,307.25,105.24,293.99,107.59z"/>
<path class="st1" d="M441.79,114.61c14.12-3.93,17.67-4.65,45.98-8.33c23.73-3.02,30.55-3.47,39.41-5.83
	c21.26-6.02,8.2-5.56-29.55,0"/>
<path class="st1" d="M373.46,107.07c-4.03-0.35,1.34-13.44,32.85-19.17c0.61-0.11,5.86-0.91,16.43-2.51
	c39.29-5.93,39.7-5.8,42.68-6.67c15.14-4.44,16.17-11.65,16.43-13.33c0.38-2.61-0.86-5.34,6.56-7.5c3.75-1.09,10.02-2.13,13.13-1.66
	c4.26,0.63,1.15,3.82,0,5c-9.86,10.16-64.39,17.65-101.79,32.5C379.42,101.81,376.09,107.29,373.46,107.07z"/>
<path class="st1" d="M618.53,47.58c6.34-4.62,11.94-8.58,16.43-11.67c8.23-5.69,13.74-9.25,19.69-9.16c4.99,0.08,7.2,2.66,9.86,2.51
	c3.75-0.23,3.17-5.72,0-5.83c-4.03-0.15-6.12,8.56-29.55,18.33C628.78,44.32,622.76,46.3,618.53,47.58z"/>
<path class="st1" d="M1032.89,19.25c2.18-0.27,4.39-0.56,6.56-0.83c4-0.94,5.73-1.84,6.56-2.51c1.89-1.51,0.13-2.54,3.3-3.34
	c2.5-0.63,4.64-0.26,6.56-0.83c3.3-0.97-1.38-2.49,0-4.17c1.28-1.56,7.11-2.45,13.13-3.34c14.98-2.2,38.29-3.53,42.68-1.66
	c2.5,1.07-1.09,3.19-6.56,4.17c-6.69,1.19-13.13,0.15-29.55,0.83c-6.63,0.27-11.62,0.69-13.13,0.83
	C1044.57,10.05,1036.22,16.12,1032.89,19.25z"/>
<path class="st1" d="M1081.17,320.83c43.19-5.96,64.58-8.17,45.98-3.34c-0.06-0.02,13.86-4.03,32.85-10.84
	c9.54-3.41,14.28-5.13,19.69-7.5c7.27-3.19,10.15-5.03,19.69-9.16c9.22-4,13.9-5.99,16.43-5.83c5.15,0.35,6.85,7.34-3.3,13.33
	C1199.99,305.55,1132.63,315.89,1081.17,320.83z"/>
<path class="st1" d="M541.63,312.05c6.02,0.29,15.34,0.53,26.29,0c3.91-0.2,14.82-0.8,29.55-3.34c13.22-2.26,12.71-3.19,36.12-9.16
	c18.35-4.56,31.99-7.7,45.98-12.5c16.17-5.68,17.77-9.01,26.29-9.16c5.57-0.09,11.17,1.22,13.13,2.51
	c5.51,3.58-15.79,8.3-19.69,9.16c-5.28,1.16-5.06,0.8-19.69,3.34c-14.82,2.57-22.22,3.85-29.55,5.83
	c-10.34,2.81-6.82,3.23-16.43,5.83c-9.29,2.52-11.49,1.83-32.85,5.83c-12.74,2.4-16.52,3.5-26.29,4.17
	C556.03,315.63,548.89,314.18,541.63,312.05z"/>
<path class="st1" d="M76.94,284.13c5.12-0.8,12.52-2.11,19.69-4.17c3.2-0.91,13.77-4.08,19.69-9.16c6.47-5.54,0.77-7.64,9.86-9.99
	c6.34-1.65,12.23-1.43,16.43-3.34c5.67-2.58,1.15-5.86,0-5.83c-1.73,0.03,7.17,7.64-6.56,15.84c-7.08,4.23-12.42,3.96-22.99,9.99
	C107.01,281.89,94.68,284.28,76.94,284.13z"/>
<path class="st1" d="M202.04,220.1c5.86-0.06,13.13-0.36,16.43-1.66c3.14-1.24,0.67-2.61,0-5c-0.8-2.88,2.11-3.25,3.3-6.67
	c1.86-5.47-4.87-6.84-3.3-12.5c0.61-2.22,2.21-3.97,3.3-5c11.24,4.23,13.42,7.61,13.13,9.99c-0.29,2.26-2.75,3.46-3.3,7.5
	c-0.51,3.7,1.34,4.26,0,5.83C229.8,214.72,223.26,217.47,202.04,220.1z"/>
<path class="st1" d="M274.3,213.64c-0.77-1.16-1.44-2.93,0-5c2.08-3,6.24-3.23,9.86-6.67c3.71-3.53,3.33-7.13,3.3-7.5
	c-0.26-1.96-1.31-3.23,0-3.34c1.92-0.15,6.95,2.37,9.86,4.17c4.13,2.57,7.24,4.5,6.56,6.67c-1.5,4.95-21.64,8.61-22.99,8.33
	c-1.18-0.24,9.61-4.21,9.86-4.17C290.92,206.16,285.22,208.76,274.3,213.64z"/>
<path class="st1" d="M508.04,233.35c-0.61-2.05-0.1-4.95,6.56-7.5c7.68-2.93,16.27-2.61,26.29-5.83c6.47-2.08,8.68-4.17,13.13-8.33
	c2.05-1.93,3.04-3.32,6.56-9.16c4.99-8.32,5.73-10.01,6.56-9.99c2.95,0.03-0.13,20.79,3.3,20.83c1.66,0.03,4.29-4.94,3.3-5
	c-1.09-0.06-1.38,5.87-16.43,11.67c-12.07,4.65-23.41,5.28-29.55,9.16c-0.93,0.59-3.39,2.29-9.86,3.34
	C514.25,233.1,510.54,233.28,508.04,233.35z"/>
<path class="st1" d="M230.05,146c-0.48-0.09-0.32,1.72-1.22,3.64c-2.98,6.37-15.56,9.18-16.49,8.83c-0.8-0.29,5.51-3.25,4.93-3.46
	c-1.02-0.36-21.64,7.74-17.48,9.53c2.37,1,11.75-0.39,12.14-0.18c0.67,0.36-29.14,3.83-29.17,3.83
	c46.56-6.11,49.37-12.49,49.37-12.5C233.93,151.59,230.82,146.15,230.05,146z"/>
<path class="st1" d="M142.35,18.78c-2.18,0.56-4.39,1.12-6.56,1.66c13.7-6.34,46.43-14.07,62.4-13.33
	c4.45,0.11,12.2,0.57,13.13,1.66c0.86,1.03-4.71,2.13-6.56,2.51c-6.05,1.21-11.24,1.24-16.43,1.66
	c-17.93,1.48-18.54,6.24-32.85,6.67C152.7,19.7,148.25,19.64,142.35,18.78z"/>
<path class="st1" d="M12.01,64.91c-0.16,0.09-0.45-0.06-0.32-0.17c3.2-2.97,13.22-7.74,20.84-2.54c3.46,2.39,4.03,5.06,6.18,5.84
	c4.55,1.66,4.61-9.35,7.2-8.03c0.8,0.41,1.41,1.81,1.5,2.04c2.98,6.9-11.43,11.81-23.37,3.82C18.44,61.76,14.06,63.63,12.01,64.91z"
	/>
<path class="st1" d="M92.69,98.94c2.82-1.99,3.36-2.49,9.86-5c6.44-2.29,16.43-4.17,16.43-4.17c21.29-3.99,53.09-14.7,55.84-14.16
	c1.79,0.35-8.2,5.62-26.29,9.99c-11.78,2.85-18.57,3.31-32.85,6.67C104.86,94.84,97.34,97.28,92.69,98.94z"/>
<path class="st1" d="M60.83,129.26c0.1,0,10.15-4.82,3.3-9.16c-3.14-1.98-8.16-2.84-6.56-4.17c1.63-1.36,7.84-1.28,16.43-3.34
	c0.45-0.11,5.89-1.42,9.86-3.34c7.14-3.44,5.06-6.64,6.56-6.67c2.31-0.03,4.87,7.52,6.56,7.5c1.44-0.02,3.01-5.68,0-5.83
	c-5.57-0.29-24.08,18.48-26.29,18.33c-1.22-0.08,3.75-5.81,3.3-5.83C73.29,116.73,60.71,129.24,60.83,129.26z"/>
<path class="st1" d="M336.42,195.85c-0.86-0.2,22.48-8.14,22.48-8.14l0,0c27.25-7.7,28.34-9.77,28.34-9.77
	c1.28-2.45-6.15-2.25-6.95-6.01c-0.86-5.22,10.09-9.74,19.63-12.95c6.34-2.17,7.43-2.01,8.55-2.85c3.52-2.6-7.75-3.41-11.53-8
	c-1.25-1.54-2.59-3.19,0.32-5.24c6.05-4.23,27.02-7.94,33.4-6.96c6.47,0.98-3.68,6.57,0.61,6.84c5.44,0.35,26.77-8.33,25.65-8.54
	c-0.74-0.5-42.07,13.56-47.64,17.48c-6.66,4.68,1.86,5.96-4.29,10.07c-5.22,3.49-13.7,4.15-16.14,7.31
	c-1.83,2.34,1.79,3.34,2.85,4.82C396.81,181.16,337.7,196.14,336.42,195.85z"/>
<path class="st1" d="M506.79,271.87c-4.55-1.59-6.08-3.53-3.3-5c5.92-3.13,28.34-2.6,29.55-1.66c0.77,0.59-6.37,1.72-6.56,1.66
	c-0.26-0.08,9-1.86,36.12-8.33c9.67-2.31,17.1-4.12,29.55-5c2.24-0.15,14.09-0.98,16.43,0c2.88,1.21-9.89,4.63-19.69,6.67
	c-16.52,3.43-35.28,5.16-42.68,5.83C534.36,266.91,516.46,268.74,506.79,271.87z"/>
<path class="st1" d="M221.76,253.43L221.76,253.43L221.76,253.43c5.57-1.19,13.22-3.08,19.69-5.83c8.1-3.44,5.25-4.35,16.43-14.16
	c5.28-4.65,7.56-5.89,6.56-8.33c-1.25-3.14-6.6-5.09-3.3-5.83s13.64,0.06,16.43,1.66c3.07,1.78-5.83,3.02-6.56,6.67
	c-0.32,1.65,1.44,1.49,3.3,5c1.79,3.43,2.69,5.13,0,6.67c-4.03,2.31-10.05,1.57-16.43,4.17c-6.05,2.48-2.82,4.08-9.86,6.67
	c-3.33,1.22-7.2,2.02-9.86,2.51c-17.51,3.05-35.03,6.11-52.54,9.16c8.77-2.51,17.51-5,26.29-7.5"/>
<path class="st1" d="M239.18,117.92c-0.29-0.26,3.78-0.11,9.19-0.83c9.64-1.24,21.77-8.74,33.62-6.16c7.08,1.34,8.84,3.7,17.26,5.15
	c6.05,1.04,8.64,0.44,14.09,2.29c3.59,1.22,6.92,3.02,6.66,3.41c-0.26,0.45-4.99-1.22-12.81-2.87c-8.39-1.77-8.81-1.06-17.61-2.87
	c-8.48-1.75-9.25-2.63-12.81-2.87c-8.65-0.56-11.05,4.21-10.41,4.51c0.48,0.23,4.19-1.52,3.91-1.69s-4.07,1.43-10.02,2.25
	C250.8,119.54,239.63,118.33,239.18,117.92z"/>
<path class="st1" d="M320.35,138.11c4.71-2.48,13.74-7.88,16.43-10.84c3.52-3.79,2.56-6.66,3.3-6.67c1.09,0,2.31,6.67,3.3,6.67
	c0.7,0,2.85-3.47,3.3-7.5c0.1-1.04,0.13-2.25,3.3-3.34c1.86-0.63,4.03-0.98,9.86-1.66c13.19-1.56,23.18-2.29,22.99-2.51
	c-0.1-0.09-2.31-0.05-3.3,0c-15.27,0.66-26.32,11.67-26.29,11.67c0.03,0,1.92-2.43,9.86-5c18.31-5.92-5.44,6.05-22.99,12.5
	C332.45,134.32,325.4,136.57,320.35,138.11z"/>
<path class="st1" d="M546.2,104.58c1.09-0.56,2.18-1.12,3.3-1.66c4.67-2.93,9.54-5.16,13.13-6.67c7.49-3.14,10.82-3.65,13.13-5.83
	c3.04-2.87-0.99-3.55,3.3-5.83c4.1-1.9,12.58-4.11,22.99-6.67c7.68-1.8,11.72-2.73,13.13-2.51c2.08,0.35-2.18,3.11-6.56,5
	c-5.19,2.28-14.7,4.71-19.69,5.83c-14.76,3.47-18.28,10.67-16.43,10.84c1.34,0.12,7.56-3.17,6.56-3.34
	C578,93.57,568.07,96.78,546.2,104.58z"/>
<path class="st1" d="M487.74,132.6c-1.25-0.26-0.96-0.88-0.54-1.34c-0.16-0.98,0.26-2.43,3.81-3.65c3.81-1.31,7.62-1.12,13.13-2.51
	c7.4-1.86,8.74-4.26,9.86-4.17c1.12,0.09-0.86,2.45,0,2.51c0.99,0.06,2.18-3.17,9.86-4.17c5.86-0.75,15.21-0.18,16.43,0.83
	c2.75,2.32-36.76,7.22-36.12,7.5c0.48,0.21,21.04-3.14,22.99-2.51s-17.26,4.65-29.55,6.67C494.37,132.29,489.69,132.99,487.74,132.6
	z"/>
<path class="st1" d="M694.96,302.6c5.57-2.45,3.33-4.47,0-6.67c-2.47-1.66-4.32-2.13-3.3-2.51c1.76-0.65,7.81,0.56,16.43,0
	c5.32-0.35,5.12-0.94,13.13-1.66c6.47-0.59,7.94-0.33,9.86-0.83c3.78-0.98,0.38-2.61,0-5c-0.38-2.37,2.4-4.09,6.56-6.67
	c2.15-1.33,6.66-4.03,16.43-6.67c4.39-1.18,8.39-1.9,16.43-3.34c4.23-0.75,5.86-0.98,6.56-0.83c1.92,0.39-4.42,3.22-6.56,4.17
	c-2.79,1.24-4.19,1.86-6.56,2.51c-5.83,1.56-9.57,1.34-13.13,2.51c-3.14,1.03-1.92,1.75-3.3,4.17c-2.24,3.99-8.04,6.49-6.56,6.67
	c0.61,0.08,1.7-0.36,6.56-1.66c4.67-1.24,6.69-1.63,6.56-1.66c-0.58-0.18-52.03,9.77-49.24,10.84c1.34,0.53,14.6-1.48,16.43-0.83
	C723.17,295.78,711.07,298.91,694.96,302.6z"/>
<path class="st1" d="M168.13,305.46c0.9,0.02,2.02-1.57,3.3-4.17c0-1.39,0-2.78,0-4.17c12.04,0.35,20.27-0.15,27.25-0.94
	c13.1-4.36,24.65-7.88,15.43-4.06c-0.35-0.05,4.42-4.12,16.43-7.5c5.86-1.65,11.17-2.49,16.43-3.34c7.68-1.22,14.6-2.29,19.69-1.66
	c3.94,0.48,4.07,1.66,6.56,1.66c3.97,0.02,8.71-2.9,6.56-3.34c-3.11-0.62-22.96,3.49-36.12,8.33c-6.21,2.28-6.31,3.03-13.13,5
	c-9.77,2.79-14.76,2.76-19.69,5c-4,2.22-24.27,7.93-26.29,3.34c-6.21,1.22-13.32,2.13-22.99,1.66c1.47-3.55,2.53-5.01,3.3-5
	C166.75,296.31,166.02,305.43,168.13,305.46z"/>
<path class="st1" d="M484.63,213.32c3.04-4.26,6.47-5.77,9.86-5.83c2.43-0.05,3.2,0.69,6.56,0.83c5.35,0.23,8.87-1.43,19.69-4.17
	c8.45-2.14,11.05-2.34,16.43-4.17c2.69-0.92,8.29-2.82,6.56-3.34c-0.61-0.18-2.79-0.39-22.99,2.51c-17.19,2.46-25.77,3.68-29.55,5
	C482.42,207.22,483.16,211.04,484.63,213.32z"/>
<path class="st1" d="M678.22,131.76c15.53-3.44,24.33-6.75,29.55-9.16c6.56-3.03,9.03-5.43,19.69-7.5
	c4.29-0.83,6.69-0.98,22.99-2.51c38.45-3.56,42.87-4.33,42.68-5c-0.22-0.83-7.49-1.49-13.13-1.66c-8.29-0.24-15.14,0.53-39.41,5
	c-27.02,4.97-33.56,6.76-36.12,7.5c-4.77,1.36-10.85,3.11-16.43,5.83C682.06,127.19,679.47,129.89,678.22,131.76z"/>
<path class="st1" d="M678.22,75.92c12.36-1.18,18.06-4.41,19.69-7.5c7.17-9.04,9.7-8.24,9.86-11.67c0.1-1.83,0.22-4.36-3.3-7.5
	c-3.81-3.41-9.99-5.87-6.56-6.67c1.57-0.36,4.61-0.24,6.56,0c8.84,1.13,8.13,6.61,6.56,6.67c-1.89,0.08-13.29-7.52-3.3-9.99
	c6.53-1.62,21.87-0.98,22.99,0c0.67,0.6-4.1,1.19-3.3,1.66c1.22,0.71,14.28,0.51,16.43-0.83c1.7-1.07-4.8-1.99-3.3-3.34
	c1.6-1.4,10.85-2.22,13.13-1.66c1.7,0.42-0.96,1.51,0,1.66c2.53,0.42,24.85-6.2,22.99-6.67c-1.95-0.48-35.51,4.67-49.24,13.33
	c-4.9,3.08-8.81,7.56-9.86,7.5c-0.29-0.02-0.13-0.33,0-1.66c0.16-1.66,0.22-2.49,0-2.51c-0.74-0.02-5.54,7.37-3.3,7.5
	c1.92,0.12,7.84-5.13,9.86-5c0.93,0.06,0.51,1.21,0,2.51c-1.76,4.54-2.66,6.81-3.3,7.5c-3.87,4.26-11.97,7.2-19.69,9.99
	C696.24,71.06,688.78,73.44,678.22,75.92z"/>
<path class="st1" d="M820.09,38.37c3.11,0.12,7.72,0.21,13.13,0c2.34-0.09,11.97-0.51,26.29-3.34c5.64-1.12,12.9-2.55,19.69-5
	c6.6-2.2,13.51-6.25,22.99-5.83c3.2,0.18,6.66,0.94,6.56,1.66c-0.1,0.63-2.75,0.79-9.86,2.51c-5.64,1.59-10.63,2.17-16.43,3.34
	c-4.99,1.06-6.21,1.72-6.56,1.66c-1.41-0.24,14.66-10.46,42.68-12.5c1.18-0.09,11.24-0.8,13.13,0c1.15,0.48-1.38,1.28-6.56,3.34
	c-6.92,2.75-5.22,2.45-9.86,4.17c-11.56,4.6-21.16,6.51-42.68,8.33C855.98,38.33,841.58,39.14,820.09,38.37z"/>
<path class="st1" d="M986.91,75.92c-1.5-1.13-2.79-2.73,0-4.17c1.41-0.72,2.91-0.91,9.86-2.51c7.24-1.66,10.82-2.48,13.13-3.34
	c2.18-0.8,5.99-2.22,6.56-4.17c0.42-1.4-1.06-2.4,0-2.51c1.76-0.17,4.77,2.75,13.13,3.34c5.12,0.36,8.81-0.39,9.86,0
	c1.5,0.56-4.42,2.75-13.13,4.17c-11.4,1.86-17.99,0.83-22.99,2.51c-4.74,1.59-0.77,3.19-6.56,5
	C993.66,75.23,989.6,75.69,986.91,75.92z"/>
<path class="st1" d="M934.37,15.91c-1.09-0.27-2.18-0.56-3.3-0.83c-2.15-1.65-3.3-2.51-3.3-2.51l0,0c0,0-2.53-2.02-6.56-3.34
	c-4-1.3-6.92-1.06-19.69-3.34c-5.8-1.03-6.72-1.34-6.56-1.66c0.42-0.91,9.22-1.33,16.43-1.66c7.04-0.33,10.6-0.5,13.13,0
	c3.81,0.74,3.49,2.36,3.3,3.34c-0.32,1.63-2.4,2.42-3.3,3.34C923.22,10.6,924.06,12.71,934.37,15.91z"/>
<path class="st1" d="M740.14,14.08c0.8-0.32,1.6-0.63,2.4-0.97c1.95-0.68,5.38-1.68,10.73-2.37c11.75-1.52,18.31,0.35,32.85-0.83
	c6.79-0.56,4.23-0.88,22.99-3.34c7.17-0.95,9.89-1.21,9.86-1.66c-0.1-1.07-14.98-2.79-26.29-1.66c-5.06,0.5-6.08,1.24-19.69,3.34
	c-0.74,0.12-6.24,0.95-6.56,0.83c-0.48-0.17,10.85-1.81,9.86-2.51c-1.44-1-29.04-0.21-32.85,2.51c-0.74,0.51-0.86,1.3-3.3,2.51
	c-1.7,0.85-2.88,1.09-3.3,1.66C736.39,12.2,736.94,13.03,740.14,14.08z"/>
<path class="st1" d="M422.07,63.42c6.53-2.26,10.6-4.33,13.13-5.83c8.16-4.67,7.94-6.02,3.3-11.67c-2.5-3.26-3.07-3.05-3.3-4.17
	c-0.1-0.45-0.51-3.52,6.56-6.67c2.59-1.16,5.12-2.23,9.86-2.51c4.19-0.24,9.35,0.21,9.86,0.83c0.48,0.62-3.94,0.94-9.86,2.51
	c-6.28,1.56-13,4.21-9.86,7.5c0.99,1.06,2.18,1.21,6.56,3.34c7.36,3.55,8.71,4.21,3.3,7.5c-1.25,0.79-4.13,2.43-9.86,4.17
	C440.38,58.89,425.11,62.57,422.07,63.42z"/>
<path class="st1" d="M527.15,54.26c-1.12-0.15-2.53-0.41-3.3-0.83c-1.06-0.6,0-1.09,0-1.66c0-0.98-3.17-1.33-6.56-2.51
	c-4.26-1.46-5.22-2.96-6.56-5c-0.64-0.97-1.54-2.34,0-2.51c1.47-0.15,4.71,0.85,6.56,1.66c6.85,2.97,2.95,6.66,3.3,6.67
	c0.35,0.02,1.99-4.17,3.3-4.17C524.88,45.92,525.97,48.29,527.15,54.26z"/>
<path class="st1" d="M644.15,74.92c4.07-4.97,9.32-10.87,3.3-17.5c-0.19-0.18-1.22-1.78-3.3-5c-0.58-0.92-0.96-1.54,0-1.66
	c1.76-0.23,6.88,1.33,9.86,2.51c4.61,1.71,10.82,6.33,6.56,9.16c-2.43,1.74-6.02,1.87-6.56,3.34c-0.54,1.45,2.72,1.99,3.3,3.34
	c0.48,1.1-0.9,2.76-9.86,5C646.33,74.38,645.24,74.65,644.15,74.92z"/>
<path class="st1" d="M569.87,184.27c1.83-3.43,6.08-4.59,9.86-5c4.96-0.54,10.85,0.05,13.13-0.83c1.34-0.53,0.51-1.22,0-1.66
	c-2.31-1.93-9.06-2.08-9.86-3.34c-0.8-1.27,4.99-2.69,9.86-3.34c8-1.06,11.85,0.23,19.69-0.83c6.63-0.89,6.66-2.17,13.13-2.51
	c4.35-0.21,5.76,0.3,9.86,0c6.79-0.5,10.15-2.45,9.86-2.51c-0.48-0.09-15.18,3.49-26.29,6.67c-2.21,0.63-5.22,1.52-9.86,1.66
	c-6.53,0.2-11.4-1.22-13.13-0.83c-1.7,0.38,3.33,1.6,3.3,3.34c-0.03,1.03-1.86,1.99-16.43,5.83
	C577.74,182.31,573.23,183.44,569.87,184.27z"/>
<path class="st1" d="M753.75,98.42c-3.97,1.07-10.44,2.52-19.69,3.34c-9.86,0.86-13.22,0.17-22.99,0.83
	c-9.29,0.63-8.77,1.43-29.55,5c-11.37,1.95-10.15,1.48-26.29,4.17c-9.38,1.57-15.69,2.72-16.43,2.51c-0.67-0.2,4.51-1.25,9.86-3.34
	c7.49-2.93,4.77-3.82,9.86-5c8.2-1.92,15.72,0.3,29.55-1.66c3.87-0.54,6.21-1.15,19.69-3.34c1.83-0.3,3.75-0.6,6.56-0.83
	c6.82-0.56,12.2-0.12,16.43,0C735.98,100.24,743.6,100.05,753.75,98.42z"/>
<path class="st1" d="M155.1,250.94c-19.31-2.99-16.39-7.58,0-9.16c9.61-1.01,14.95,0.24,19.69-0.83c6.08-1.37,0.93-4.2,6.56-5
	c4.13-0.59,8.39,0.72,13.13,0c2.88-0.44,2.27-1.06,6.56-2.51c3.3-1.1,6.47-1.69,6.56-1.66c0.19,0.05-16.71,2.63-19.69,6.67
	c-0.51,1.13-3.91,5.15-9.86,5.83c-2.4,0.32-5.99,0.21-13.13,0c-5.73-0.17-7.78-0.35-9.86,0C148.6,245.45,152.18,249.84,155.1,250.94
	z"/>
<path class="st1" d="M142.93,213.44c6.85-2.01,7.43-3.32,6.56-4.17c-0.58-0.57-1.54-0.63-3.3-1.66c-2.5-1.48-1.6-1.99-3.3-3.34
	c-2.66-2.1-6.47-2.1-6.56-3.34c-0.16-1.92,8.81-3.53,9.86-3.34c0.93,0.17-4.87,1.62-3.3,3.34c0.96,1.04,3.71,1.19,6.56,2.51
	C157.88,207.31,148.76,211.96,142.93,213.44z"/>
<path class="st1" d="M21.36,264.08c8.45-1.48,13.61-3.11,16.43-4.17c4.55-1.69,10.41-3.9,9.86-6.67c-0.42-2.04-3.97-2.61-3.3-5
	c0.35-1.18,1.47-2.02,3.3-3.34c0.86-0.63,5.89-4.3,9.86-4.17c1.76,0.06,2.08,0.85,3.3,0.83c2.63-0.05,5.38-3.99,3.3-4.17
	c-3.33-0.29-20.91,8.67-13.13,11.67c0.58,0.23,2.24,0.79,3.3,1.66c1.6,1.34,0.7,2.54,0,3.34c-3.33,3.77-5.35,6.07-13.13,8.33
	C38.39,263.23,26.06,266.58,21.36,264.08z"/>
<path class="st1" d="M15.08,189.07c3.59,1.59,8.29,3.32,10.79,2.61c1.83-0.53,1.38-2.05,1.7-3.9c1.06-6.05,9-9.04,11.21-7.94
	c1.34,0.66,1.06,3.03,1.44,3.14c0.58,0.17-1.6-6.55,3.43-7.79c1.57-0.39,3.11-0.08,9.29,1.22c12.23,2.58,18.35,3.88,18.51,4.21
	c0.74,1.52-26.42-0.51-26.45-0.56c0-0.02,2.08,0.14,6.21,0.23c5.38,0.14,5.92-0.02,6.21,0.23c1.38,1.12-7.94,4.97-20.65,10.24
	C31.09,193.56,23.88,194.6,15.08,189.07z"/>
<path class="st1" d="M133.1,106.76c1.99-0.72,4.61-1.86,6.56-3.34c2.31-1.36,4.58-8.95,6.56-9.99c2.37-1.65,4.1-1.74,9.86-5
	c1.83-1.04,2.85-1.71,3.3-1.66c0.74,0.06-1.38,1.92-3.3,5c-1.86,3-1.28,3.44-3.3,5.83c-1.57,1.86-1.99,1.63-3.3,3.34
	c-2.43,3.16-0.7,3.47-3.3,5c-2.69,1.6-5.48,1.8-6.56,3.34c-0.99,1.4,0.45,2.48,0,2.51C139.25,111.78,137.74,110.86,133.1,106.76z"/>
<path class="st1" d="M202.04,69.25c6.24-0.83,8.77-1.77,9.86-2.51c1.99-1.36-0.1-2.49,3.3-3.34c2.34-0.59,4.13-0.24,6.56-0.83
	c3.01-0.72,1.86-1.65,3.3-3.34c1.22-1.43,4.29-3.38,6.56-3.34c2.31,0.05,4.93,2.17,3.3,4.17c-2.05,2.45-10.12,4.11-9.86,4.17
	c0.19,0.05,3.33-0.82,3.3-0.83C223.84,64.66,212.03,67.6,202.04,69.25z"/>
<path class="st1" d="M255.35,59.77c0.8-2.85,4.87-6.25,16.43-9.16c4.26-1.07,5.83-1.13,13.13-2.51c12.62-2.36,15.27-3.56,26.29-5
	c3.07-0.39,8.87-1.16,9.86-0.83c1.66,0.54-11.27,3.71-13.13,4.17c-6.24,1.54-10.05,2.48-16.43,3.34c-7.4,1.01-9.61,0.74-13.13,1.66
	c-4.74,1.24-3.59,2.45-6.56,4.17C269.63,56.82,265.27,58.39,255.35,59.77z"/>
<path class="st1" d="M87.44,66.15c0.19-0.57,0.35-1.45,0-2.51c-0.74-2.14-2.82-2.7-3.3-4.17c-0.86-2.7,4.83-5.09,6.56-5
	c1.57,0.08,0.16,2.2,3.3,2.51c2.53,0.24,6.34-0.89,6.56-0.83c0.29,0.08-7.56,1.34-9.86,3.34c-2.31,1.99,1.57,4.18,3.3,4.17
	c0.42,0,0.7-0.15,3.3-2.51c1.95-1.8,2.18-2.05,3.3-2.51c2.31-0.92,4.16-0.88,6.56-1.66c4.1-1.34,4.29-3.25,3.3-3.34
	C109.28,53.55,104.54,55.6,87.44,66.15z"/>
<path class="st1" d="M12.65,44.44c-2.11-0.54,1.12-1.37,3.3-0.83c-1.09-1.39-2.18-2.78-3.3-4.17c3.84-2.76,5.64-3.38,6.56-3.34
	c1.83,0.11-0.7,2.84,3.3,3.34c2.88,0.36,9.45-0.41,9.86-1.66c0.32-0.94-2.95-1.6-3.3-1.66c-17.48-2.88-16.78-3.91-16.43-4.17
	c0.96-0.65,5.96-0.26,26.29-0.83c3.46-0.11,9.09-0.27,16.43,0c3.71,0.14,9.61,0.36,9.86,0.83c0.22,0.41-3.65,1.13-22.99,2.51
	c6.21-0.72,2.53-1.52-3.3-1.66c-7.17-0.17-13.67,1.36-13.13,1.66c0.42,0.24,4.83-0.41,6.56,0c2.79,0.48-2.72,3.44-13.13,7.5
	c1.5,0.66,34.07-2.69,32.85-4.17c-0.29-0.36-2.72-0.69-9.86-0.83L12.65,44.44z"/>
<path class="st1" d="M799.73,79.26c-10.05-3.09-12.65-5.71-13.13-7.5c-0.58-2.13,1.79-2.84,0-5c-2.75-3.31-9.96-3.64-9.86-5.83
	c0.1-2.08,6.76-3.61,16.43-5.83c7.84-1.8,14.95-2.75,23.53-3.9c8.45-1.13,18.47-2.23,19.15-1.93c0.99,0.42-18.09,3.28-16.43,4.17
	c0.99,0.54,9.09,0.05,9.86,0c13.26-0.83,24.33-3.61,22.99-4.17c-2.02-0.82-33.11,2.6-45.98,6.67c-6.08,1.92-9.86,4.17-9.86,4.17
	c-5.76,3.22-3.71,4.06,0,8.33c2.34,2.96,2.85,5.01,3.3,5c0.38-0.02,0.1-1.66,0-1.66C799.6,71.75,799.63,74.46,799.73,79.26z"/>
<path class="st1" d="M1121.55,5.72c18.54,1.03,33.65,1.12,42.68,1.04c7.08-0.06,12.71-0.09,19.69-0.53
	c4.29-0.15,28.05-2.76,36.12-3.13c1.92-0.08,16.2-0.66,26.29,0.53c9.77,1.15,8.61,3.13,13.13,3.13c3.36,0,7.2-1.1,6.56-2.08
	c-0.74-1.15-7.36-1.83-9.86-2.08c-14.6-1.49-34.23-0.66-49.24,0c-17.87,0.8-19.98,1.45-36.12,2.08c-14.82,0.59-27.63,0.6-36.12,0.53
	L1121.55,5.72z"/>
<path class="st1" d="M541.37,40.49c-2.15-4.02-4.19-8.29-3.3-8.33c0.8-0.03,4.77,3.16,3.3,3.34c-1.86,0.21-15.3-3.96-13.13-8.33
	c0.64-1.27,2.88-3.23,6.56-3.34c5.89-0.17,8.93,4.62,19.69,5c6.47,0.23,11.33-1.28,13.13-0.83c1.38,0.35-1.09,1.36-6.56,4.17
	C552.77,36.64,550.66,37.79,541.37,40.49z"/>
<path class="st1" d="M536.12,259.23c-0.35-0.08-0.03-0.42,3.3-1.66c4.9-0.56,11.49-1.55,16.43-3.34c3.78-1.37,3.36-2.04,6.56-3.34
	c5.03-2.02,11.14-2.39,22.99-4.17c12.97-1.95,20.08-3,26.29-5c7.97-2.55,5.7-3.82,16.43-7.5c4.64-1.59,11.56-3.58,13.13-3.34
	c1.18,0.2-1.6,1.56-6.56,5c-6.98,4.85-5.83,5.21-9.86,6.67c-6.53,2.6-32.56,6.19-42.68,7.5
	C553.66,254.02,537.78,259.62,536.12,259.23z"/>
<path class="st1" d="M552.61,105.56c18.35-0.66,31.03-2.1,39.41-3.34c10.41-1.54,19.92-3.62,32.85-3.34c2.98,0.06,5.73,0.26,9.86,0
	c4.77-0.29,8.61-1,16.43-3.34c9.22-2.76,17.03-5.72,16.43-5.83c-0.51-0.09-6.02,1.77-6.56,1.66c-1.31-0.24,25.23-10.99,26.29-10.84
	c1.15,0.17-17.29,15.58-65.67,21.66c-18.15,2.29-43.26,3.61-42.68,4.17c0.29,0.29,6.98,0.11,9.86,0c8.04-0.3,16.75-1.25,16.43-1.66
	C604.8,104.27,592.86,104.27,552.61,105.56z"/>
<path class="st1" d="M697.94,55.09"/>
<path class="st1" d="M849,56.75c16.59,2.48,26.64,2.31,32.85,1.66c4.99-0.53,5.83-1.19,19.69-4.17c10.63-2.28,11.05-2.07,16.43-3.34
	c11.01-2.58,22.67-6.6,19.69-7.5c-3.04-0.94-20.68,1.68-26.29,2.51c-11.33,1.68-20.75,3.06-26.29,5.83
	c-4.19,2.1-2.27,3.05-6.56,4.17C871.83,57.67,859.28,57.37,849,56.75z"/>
<path class="st1" d="M507.62,15.59c13.13-4.54,21.2-5.31,26.29-5c3.87,0.23,6.18,1.1,9.86,0.83c4.39-0.32,7.78-2.02,6.56-3.34
	c-0.9-0.98-3.91-1.28-3.3-1.66c1.28-0.77,14.12-0.12,16.43,0c9.29,0.48,9.61,0.98,13.13,0.83c7.84-0.33,8.07-2.85,16.43-4.17
	c5.38-0.85,10.37-0.6,26.29,0c34.74,1.33,42.78,1.42,42.68,1.66c-0.16,0.44-26.06,0.5-26.29,0c-0.22-0.51,26.96-1.43,49.24-1.66
	c16.3-0.17,21.96,0.11,22.99,0.83c1.06,0.77-3.3,1.92-6.56,2.51c-4.87,0.88-9.03,0.85-32.85,0.83c-13,0-19.5,0-19.69,0
	c-7.01,0.12-9.09,0.29-13.13,0c-4.71-0.33-5.41-0.82-13.13-1.66c-4.8-0.53-7.2-0.8-9.86-0.83c-7.04-0.09-12.65,0.95-16.43,1.66
	c-2.27,0.42-4.61,0.86-6.56,1.66c-2.18,0.89-1.73,1.33-3.3,1.66c-3.49,0.75-9.51-0.62-16.43-0.83c-13.42-0.41-19.12,3.9-39.41,5.83
	C525.58,15.25,518,15.74,507.62,15.59z"/>
<path class="st1" d="M1278.57,319.6c-29.75-3.55-30.1-0.98-52.22-0.29c-2.53,0.08-35.92-0.29-37.3-0.21
	c-11.59,0.05-12.65,0.42-23.25,0.6c-14.63,0.26-35-0.05-36.44-0.94c-1.06-0.66,8.32-1.74,17.48-2.1c12.9-0.51,16.11,0.74,26.1,0.15
	c12.81-0.77,10.53-3.03,22.06-2.81c7.46,0.14,9.13,1.1,20.65,1.59c8.97,0.38,8.58-0.18,18.63,0.11
	C1252.28,316.33,1263.55,317.64,1278.57,319.6z"/>
<path class="st1" d="M195.47,22.58c5.99,0.23,14.82,0.32,22.99-0.83c6.85-0.97,6.82-1.9,16.43-4.17c4.16-0.98,4.71-0.92,22.99-4.17
	c15.43-2.73,19.12-3.49,19.69-3.34c1.09,0.29-9.13,3.52-19.69,5.83C247.37,18.2,228.2,21.42,195.47,22.58z"/>
<path class="st1" d="M205.33,5.05c-12.65-1.93,15.72-1.09,26.29,1.66c8.68,2.05,11.94,5.13,13.13,5c0.42-0.05-0.16-0.36,0-0.83
	c0.61-1.69,9.38-2.2,9.86-3.34c0.19-0.5-1.25-1.31-9.86-2.49H205.33z"/>
<path class="st1" d="M372.82,15.08c7.52-2.69,11.17-5.01,13.13-6.67c1.7-1.45,2.4-2.6,6.56-3.34c4.61-0.8,8.1-0.15,16.43-0.83
	c8.45-0.69,11.85-1.93,13.13-1.66c1.7,0.36-2.79,2.88-9.86,5c-12.1,3.62-28.98,5.24-29.55,5c-0.54-0.23,12.87-2.58,13.13-2.51
	C396.01,10.14,388,11.89,372.82,15.08z"/>
<path class="st1" d="M156.95,179.52c-1.57-0.35-3.97-0.72-6.98-0.51c-6.82,0.47-11.05,3.52-18.25,6.49
	c-1.92,0.79-9.45,3.82-17.74,4.97c-16.39,1.98-32.72-1.96-13.19-8.8c4.39-1.52,7.11-1.36,16.75-1.9
	C133.29,178.67,137.81,178.22,156.95,179.52z"/>
<path class="st1" d="M11.59,325.11c18.28-7.13,23.18-9.13,22.99-9.16c-0.32-0.05-10.69,4.45-13.13,4.17
	c-3.43-0.41,8.13-10.18,16.43-9.99c5.32,0.12,7.91,4.29,9.86,4.17c3.07-0.72-3.11-5.99-6.56-5.83
	C36.18,310.56,55.65,324.93,11.59,325.11z"/>
<path class="st1" d="M50.97,300.11c2.72-0.69,6.53-1.8,9.86-3.34c6.66-3.09,6.63-5.78,9.86-5.83c3.17-0.05,6.24,2.54,6.56,2.51
	c0.29-0.2-16.55-9.62,0-5.83c7.78,2.16,4.45,7.17-6.56,9.99C64.13,299.3,56.1,299.89,50.97,300.11z"/>
<path class="st1" d="M8.29,286.78c-4.87-4.56-2.95-6.97,0-8.33c1.06-0.48,3.27-1.31,3.3-2.51c0.03-1.19-2.18-1.65-3.3-3.34
	c-0.54-0.83-1.12-2.43,0-2.51c2.02-0.14,12.46,4.47,9.86,9.16C16.46,281.95,11.94,284.88,8.29,286.78z"/>
<path class="st1" d="M1130.86,94.13c-4.16-0.12-12.97-7.82,0-13.33c13.8-5.86,39.09-3.7,52.54-9.99c6.24-2.93,2.98-4.42,13.13-9.16
	c20.08-9.51,27.7-6.61,22.99,3.34c-1.99,3.73-4.03,7.64-16.43,10.84c-3.71,0.95-14.18,3.65-29.55,4.17
	c-7.75,0.26-13.45-0.15-16.43,0.83c-3.81,1.27,2.95,2.79,0,5c-2.47,1.83-8.29,1.63-16.43,4.17
	C1133.01,92.35,1132.91,94.17,1130.86,94.13z"/>
<path class="st1" d="M792.59,237.55c17,6.25,41.85,13.16,67.24,10.57c35.19-3.59,59.2-24.26,64.04-22.65
	c2.4,0.8-6.53,5.56-3.2,10.57c4.42,6.63,28.66,11.34,48.03,9.06c23.66-2.78,31.22-14.96,38.42-13.59c6.24,1.18,7.49,11.59-3.2,18.12
	c-12.87,7.85-40.41,8.14-57.63,4.53c-13.45-2.82-14.12-6.66-25.61-7.55c-15.69-1.22-25.84,5.03-38.42,7.55
	C866.58,257.28,840.14,256.06,792.59,237.55z"/>
<path class="st1" d="M981.5,157.54c13.93-0.27,52.99-1.81,70.44-13.59c2.63-1.77,10.02-6.76,6.4-10.57
	c-3.84-4.05-18.67-5.12-19.21-4.53c-0.8,0.91,27.6,10.31,60.84,12.08c3.27,0.17,18.19-0.39,48.03-1.51
	c17.07-0.63,34.42,0.02,51.23-1.51c9.7-0.88,16.62-1.89,22.41,0c7.04,2.29,10.6,8.23,6.4,12.08c-8.48,7.84-48.32,5.72-70.44,4.53
	c-44.89-2.42-54.5-7.82-83.25-9.06C1052.93,144.54,1021.65,145.97,981.5,157.54z"/>
<path class="st1" d="M1167.21,59.4c0.03-5.53,1.95-14.27,12.81-22.65c3.68-2.84,7.33-4.82,9.61-6.04
	c10.05-5.4,20.43-10.98,32.02-10.57c9.93,0.35,12.07,4.79,22.41,4.53c8.81-0.21,11.69-3.74,16.01-3.02
	c9.06,1.51,3.17,17.89,6.4,18.12c1.63,0.11,4.93-3.97,3.2-4.53c-1.92-0.63-7.27,4.09-19.21,6.04c-1.83,0.3-12.07,1.98-22.41,0
	c-9.13-1.74-10.57-4.65-16.01-4.53c-6.6,0.15-9.93,4.54-16.01,9.06C1190.93,49.59,1182.32,54.6,1167.21,59.4z"/>
<path class="st1" d="M1260.06,175.65c-7.59-1.06-12.36,6.72-32.02,10.57c-14.28,2.79-27.86,1.83-32.02,1.51
	c-18.57-1.43-21.04-5.96-48.03-10.57c-12.23-2.08-23.47-3.94-28.82-1.51c-5.83,2.66-1.22,8.92,0,10.57c0.8,1.1,5.7,7.4,19.21,10.57
	c9.03,2.13,12.1,0.54,28.82,1.51c22.48,1.3,24.08,4.56,41.62,4.53c13.32-0.03,23.25-1.92,28.82-3.02
	c12.01-2.36,24.43-4.8,28.82-10.57C1270.56,183.85,1266.85,176.59,1260.06,175.65z"/>
<path class="st1" d="M283.49,239.06c23.18-8.18,27.25-11.84,25.61-13.59c-1.7-1.8-9.22-1.42-12.81-4.53
	c-2.21-1.93-1.54-3.99-0.93-5.68c0.67-1.87,2.72-5.51,10.53-9.42c20.04-10.04,60.23-12.98,60.84-12.08c0.22,0.3-4.48,0.62-9.61,3.02
	c-5.89,2.76-5.25,4.98-9.61,7.55c-6.92,4.08-19.05,4.71-19.21,4.53c-0.29-0.36,40.73-10.22,44.83-7.55
	c4.61,3-35.8,22.86-48.03,19.63c-4.83-1.27-2.79-5.47-6.4-6.04C314.74,214.27,305.74,218.27,283.49,239.06z"/>
<path class="st1" d="M712.54,211.89c5.48-2.16,16.3-5.84,32.02-7.55c20.97-2.28,38.1,0.3,44.83,1.51c-9.03,0.27-19.08,0.48-19.21,0
	c-0.35-1.28,69.61-7.61,70.44-6.04c0.42,0.82-17.58,4.26-19.21,3.02c-1.89-1.43,18.76-8.77,28.82-12.08
	c10.44-3.43,22.51-7.4,25.61-6.04c3.01,1.3-3.78,6.88-6.4,9.06c-3.78,3.13-10.79,8.91-22.41,12.08
	c-15.08,4.12-32.15,2.28-41.62,1.51C784.87,205.7,754.61,205.44,712.54,211.89z"/>
<path class="st1" d="M622.89,112.24c7.49,4.35,16.81,8.35,25.61,7.55c9.13-0.82,14.41-6.48,16.01-6.04
	c2.15,0.57-12.26,9.38-6.4,15.1c4.8,4.7,22.83,6.94,35.22,4.53c10.28-2.01,9-5.74,22.41-10.57c1.99-0.71,21.93-7.9,32.02-4.53
	c5.96,1.99,7.43,7.34,3.2,10.57c-3.07,2.34-8.45,3.08-19.21,4.53c-6.15,0.83-9.35,0.94-16.01,1.51c-16.2,1.39-16.81,2.43-25.61,3.02
	c-15.69,1.04-28.66-1.28-38.42-3.02c-10.98-1.96-17.23-3.08-22.41-6.04C618.57,122.74,621.93,114.31,622.89,112.24z"/>
<path class="st1" d="M981.5,26.19c11.97-3.62,21.9-4.45,28.82-4.53c9.48-0.11,12.3,1.22,35.22,3.02c16.84,1.31,21.45,1.09,25.61,0
	c7.56-1.96,5.38-4.54,12.81-7.55c9.89-4,24.01-3.56,41.62-3.02c9.77,0.3,16.97,1.21,19.21,1.51c6.56,0.88,6.12,1.19,9.61,1.51
	c12.01,1.09,15.85-2.88,28.82-3.02c12.07-0.14,18.96,3.19,22.41,1.51c1.99-0.97,2.02-3.17,0-4.53c-8.36-5.63-54.05,1.77-80.05,9.06
	c-9.73,2.73-15.59,4.38-22.41,7.55c-9.89,4.6-11.33,7.58-19.21,9.06c-6.34,1.19-12.87,0.3-25.61-1.51
	c-34.26-4.88-51.39-7.32-51.23-7.55c0.22-0.33,12.9,0.86,12.81,1.51c-0.1,0.62-11.4,1.16-22.41,0
	C990.49,28.47,985.08,27.19,981.5,26.19z"/>
<path class="st1" d="M693.33,86.58c-1.5-1.31,14.38-5.07,28.82-12.08c18.76-9.1,31.31-21.91,32.02-22.65
	c3.04-3.16,6.63-7.44,16.01-10.57c7.14-2.39,14.02-2.9,16.01-3.02c15.21-0.95,29.46,3.2,28.82,4.53c-0.64,1.3-15.18-1.01-32.02,3.02
	c-3.33,0.8-5.44,1.54-9.61,3.02c-12.26,4.33-24.27,8.61-28.82,15.1c-4.19,6.02,2.4,7.68-3.2,12.08c-3.17,2.48-9.57,4.17-22.41,7.55
	c-2.82,0.74-9.22,2.37-18.19,3.03C696.76,86.88,693.91,87.09,693.33,86.58z"/>
<path class="st1" d="M895.05,184.71c1.06-1.51,2.15-3.02,3.2-4.53c29.84,2.7,50.43,4.7,64.04,6.04c2.98,0.3,7.33,0.69,16.01,1.51
	c33.3,3.11,36.92,3.22,41.62,3.02c4-0.17,16.55-0.75,28.82-4.53c11.14-3.43,11.37-6.2,22.41-9.06c7.04-1.83,8.55-1.1,25.61-3.02
	c27.5-3.08,30.67-5.74,41.62-4.53c9.13,1.01,8.45,3.03,22.41,6.04c14.38,3.09,30.83,4.35,32.02,3.02
	c1.34-1.52-17.51-6.73-37.46-12.23c-9.03-2.49-13.54-3.73-16.97-4.38c-21.8-4.14-42.65-2.31-51.23-1.51
	c-15.79,1.48-13.7,2.96-48.03,9.06c-19.88,3.53-34.55,5.53-38.42,6.04c-16.71,2.23-29.36,3.41-41.62,4.53
	C942.56,181.69,920.89,183.4,895.05,184.71z"/>
<path class="st1" d="M1160.8,88.09c-0.96-1.42,9.8-5.86,22.41-6.04c12.52-0.17,16.11,4.02,25.61,3.02
	c7.14-0.74,11.53-3.77,19.21-9.06c8.36-5.75,9.99-9.22,12.81-9.06c5.67,0.33,3.68,14.69,9.61,15.1c3.2,0.23,8.04-3.7,9.61-7.55
	c2.27-5.54-3.59-7.44-3.2-13.59c0.45-6.91,8.36-12.26,9.61-12.08c1.31,0.2-3.39,6.73,0,7.55c3.39,0.82,11.17-4.98,12.81-4.53
	c2.95,0.83-17.45,21.03-48.03,34.72c-7.4,3.31-15.85,6.45-25.61,6.04c-6.08-0.26-7.11-1.65-16.01-3.02
	C1173.32,87.09,1161.73,89.48,1160.8,88.09z"/>
<path class="st1" d="M1164,133.38c7.65-2.76,14.38-4.73,19.21-6.04c16.33-4.42,23.05-4.54,25.61-4.53
	c5.86,0.03,14.63,0.85,16.01,3.02c1.25,1.98-4.32,3.94-3.2,4.53c1.25,0.66,9.86-1.07,16.01-4.53c3.87-2.19,2.98-2.9,6.4-4.53
	c1.06-0.5,9.19-4.35,19.21-3.02c7.43,0.98,13.51,4.51,12.81,7.55c-0.99,4.24-15.11,6.97-25.61,7.55
	c-22.89,1.27-32.92-7.49-51.23-4.53c-4.64,0.75-7.24,1.83-16.01,3.02C1175.31,132.94,1168.49,133.27,1164,133.38z"/>
<path class="st1" d="M901.45,156.03c-0.03,0.06,1.09,0.36,6.4,1.51c38.71,2.88,47.48,2.48,48.03,1.51c0.22-0.42-1.99-1.3-6.4-3.02
	c-4.13-1.6-12.52-4.7-12.81-4.53c-0.51,0.32,20.08,13.8,44.83,13.59c10.92-0.09,24.11-2.87,32.02-4.53
	c10.15-2.13,17.93-4.5,25.61-3.02c2.63,0.5,6.6,1.72,6.4,3.02c-0.32,2.17-12.07,2.34-32.02,6.04c-12.36,2.29-12.3,3.05-22.41,4.53
	c-10.44,1.52-19.53,2.85-28.82,1.51c-8.48-1.22-8.9-3.5-19.21-7.55C924.34,157.75,901.64,155.8,901.45,156.03z"/>
<path class="st1" d="M578.06,193.77c-0.16-0.12,0.35-0.36,2.11-1.99c0.45-0.41,0.8-0.77,1.09-1.03c3.81-2.84,9.96-6.28,19.21-7.55
	c8.81-1.21,11.3,0.8,19.21,0c16.33-1.65,15.91-11.26,35.22-15.1c9.73-1.93,20.78-1.66,22.41,0c1.63,1.65-6.95,3.65-9.61,9.06
	c-1.92,3.93,1.47,5.1,0,7.55c-4.77,7.93-48.16,8.59-48.03,9.06c0.1,0.36,25.33,0.26,25.61-1.51c0.32-1.86-26.54-7.11-48.03-3.02
	C589.14,190.78,578.77,194.25,578.06,193.77z"/>
<path class="st1" d="M946.28,125.83c0.7-0.83,1.41-1.83,2.02-2.97c0.19-0.38,0.8-1.57,1.18-3.06c0.67-2.72,0.19-4.89,0-6.04
	c-0.61-3.93-1.31-8.35,3.2-10.57c3.75-1.84,8.16-0.74,19.21-1.51c5.41-0.38,17.19-1.21,25.61-4.53
	c12.01-4.74,7.72-10.82,19.21-13.59c5.09-1.22,12.52-1.6,16.01,0c5.35,2.45,1.28,9.33-6.4,13.59c-5.64,3.11-15.56,4.63-35.22,7.55
	c-10.63,1.57-27.82,4.12-28.82,3.02c-0.42-0.47,1.99-1.71,3.2-1.51c3.36,0.56,2.47,13.12-12.81,18.12
	C950.09,125.17,947.65,125.61,946.28,125.83z"/>
<path class="st1" d="M1202.43,162.06c5.25-0.5,11.94-1.37,19.21-3.02c5.35-1.22,14.41-3.32,22.41-7.55
	c8.26-4.36,9.25-7.73,12.81-7.55c5.64,0.29,9.61,9.06,9.61,9.06l0,0c-68.1,17.07-67.24,18.12-67.24,18.12
	c1.28,1.56,29.01-2.58,28.82-3.02c-0.22-0.47-30.77,4.83-54.43-1.51c-1.38-0.36-10.57-2.88-9.61-4.53
	c1.12-1.96,16.01-1.77,22.41-1.51C1193.27,160.83,1198.78,161.52,1202.43,162.06z"/>
<path class="st1" d="M1087.16,243.59c1.57,0.71,5.96,2.51,12.81,3.02c1.22,0.09,9.03,0.62,16.01-1.51c4.87-1.48,5.64-3.11,9.61-6.04
	c7.17-5.28,10.82-4.5,28.82-13.59c5.54-2.79,8.93-4.76,9.61-4.53c1.63,0.54-16.33,12.09-12.81,13.59
	c2.63,1.12,16.94-3.61,16.01-4.53C1166.18,228.99,1146.49,231.95,1087.16,243.59z"/>
<path class="st1" d="M498.02,278.31c1.5-1.87,12.42-0.72,35.22-1.51c11.33-0.39,17-0.59,22.41-1.51c12.68-2.16,16.46-5.4,22.41-4.53
	c7.43,1.09,6.08,6.81,12.81,7.55c6.5,0.71,17.29-3.59,16.01-7.55c-0.7-2.16-5.15-4.67-9.61-4.53c-9.45,0.29-8.07,12.18-25.61,16.61
	c-2.5,0.63-6.98,0.92-16.01,1.51c-25.52,1.66-40.34,2.54-51.23-1.51C503.59,282.54,496.7,279.94,498.02,278.31z"/>
<path class="st1" d="M798.99,275.29c-0.1-2.87,12.26-5.77,22.41-6.04c20.91-0.54,39.38,9.92,38.42,10.57
	c-0.7,0.47-12.81-3.02-12.81-3.02s6.5,1.81,12.81,3.02c15.63,2.97,30.35,2.17,41.62,1.51c24.65-1.45,27.79-4.86,38.42-3.02
	c12.62,2.19,15.88,8.32,22.41,7.55c5.48-0.63,9.57-5.68,6.4-7.55c-5.15-3.06-26.64,4.21-54.43,7.55
	C859.7,292.43,799.18,281.62,798.99,275.29z"/>
<path class="st1" d="M376.35,82.05c19.82-6.2,23.18-8.32,22.41-9.06c-0.9-0.86-7.59-0.2-9.61,0c-6.21,0.6-13.22,2.22-12.81,3.02
	c0.48,0.94,11.21,0.69,19.21,0c9.54-0.83,16.33-2.37,25.61-4.53c9.16-2.13,13.8-3.61,25.61-6.04c9.25-1.9,13.13-2.39,16.01-1.51
	c3.46,1.06,5.09,4,3.2,6.04c-3.84,4.11-20.62,3.03-41.62,4.53C412.56,75.35,395.91,77.25,376.35,82.05z"/>
<path class="st1" d="M587.67,71.48c0.32,0.95,3.78,1.66,6.4,1.51c4.96-0.27,8.52-3.67,9.61-6.04c3.59-7.93-16.75-12.65-12.81-18.12
	c2.88-4.02,17.58-6.61,25.61-4.53c9.35,2.42,10.02,11.25,3.2,16.61C610.24,68.33,586.8,68.92,587.67,71.48z"/>
<path class="st1" d="M645.3,314.55c33.75,3.61,52.73,0.68,64.04-3.02c10.34-3.38,16.33-8.11,35.22-12.08
	c6.69-1.4,21.13-4.36,28.82-1.51c4.55,1.69,2.4,3.8,6.4,6.04c6.85,3.83,20.2,1.63,41.62,1.51c13.19-0.08,24.78,0.97,48.03,3.02
	c16.55,1.46,38.65,3.91,38.42,4.53c-0.32,0.86-43.99-0.23-92.85-4.53c-22.25-1.96-38.61-3.97-60.84-1.51
	c-14.5,1.62-19.24,3.77-32.02,6.04C706.07,315.89,681.32,318.2,645.3,314.55z"/>
<path class="st1" d="M949.48,314.55c27.09,0.08,44.63-0.33,44.83-1.51c0.19-1.15-16.14-2.78-16.01-3.02
	c0.16-0.32,26.58,6.14,54.43,3.02c8.93-1,15.27-2.69,28.82-3.02c6.66-0.17,21.71-0.18,22.41,1.51c0.93,2.17-22.09,7.17-44.83,9.06
	c-26.8,2.22-49.28-0.21-60.84-1.51C966.16,317.7,956.36,315.95,949.48,314.55z"/>
<path class="st1" d="M104.19,316.06c2.15,0.5,4.26,1.01,6.4,1.51c8.9-3.09,22.51-6.67,38.42-6.04c5.92,0.24,7.08,0.85,22.41,3.02
	c21.74,3.06,32.59,4.6,41.62,4.53c21.48-0.18,32.24-5.74,38.42-3.02c3.84,1.69,3.71,5.59,0,7.55c-4.87,2.57-14.86,1.24-28.82,0
	c-2.91-0.26-22.22-1.18-60.84-3.02c-16.04-0.77-27.63-1.19-44.83-3.02C111.62,316.99,107.2,316.45,104.19,316.06z"/>
<path class="st1" d="M328.32,320.58c11.85-0.44,26.86-0.95,44.83-1.51c9.89-0.3,17.96-0.53,28.82,0c7.33,0.36,13.38,0.94,19.21,1.51
	c17.96,1.75,18.99,2.69,25.61,3.02c22.16,1.13,41.43-7.7,41.62-7.55c0.19,0.14-19.69,5.6-19.21,6.04
	c0.42,0.38,16.59-3.22,32.02-7.55c12.9-3.62,12.97-4.3,12.81-4.53c-0.7-0.94-9.89-0.26-28.82,1.51
	c-23.47,2.19-35.22,3.29-44.83,4.53C422.16,318.41,389.89,320.69,328.32,320.58z"/>
<path class="st1" d="M565.26,317.57c27.92-1.46,44.63-2.08,44.83-1.51c0.26,0.82-32.34,3.53-32.02,4.53c0.13,0.42,5.96-0.05,19.21,0
	c16.33,0.06,23.47,0.83,28.82-1.51c0.7-0.32,3.55-1.56,3.2-3.02c-0.42-1.63-4.61-2.61-6.4-3.02
	C611.07,310.3,571.82,316.51,565.26,317.57z"/>
<path class="st1" d="M718.94,320.58c6.66-2.17,16.68-4.65,28.82-4.53c4.9,0.05,6.66,0.48,16.01,1.51
	c13.22,1.46,23.02,2.07,38.42,3.02c21.71,1.34,18.41,0.41,32.02,1.51c18.7,1.52,28.5,3.59,32.02,1.51c3.55-2.08-3.23-5.99,0-7.55
	c4.77-2.29,26.58,2.69,25.61,4.53c-2.15,4.17-122.05-4.38-121.67-7.55c0.22-1.77,38.1-2.6,38.42-1.51
	C808.92,312.57,774.66,315.89,718.94,320.58z"/>
<path class="st1" d="M1064.75,205.85"/>
<path class="st1" d="M936.67,220.94c2.11-4.6,44.86-4.3,44.83-4.53c-0.03-0.12-12.58,0.54-12.81,0c-0.26-0.66,17.9-3.73,38.42-4.53
	c17.61-0.69,31.06,0.51,41.62,1.51c6.37,0.59,29.1,2.72,28.82,4.53c-0.35,2.26-36.63,2.84-48.03,3.02
	c-49.02,0.79-77.68-2.01-80.05,1.51c-1.86,2.73,13.7,6.96,12.81,7.55C961.13,230.74,934.94,224.72,936.67,220.94z"/>
<path class="st1" d="M786.18,149.99c12.14-3.06,26.03-6.17,41.62-9.06c13.64-2.52,26.54-4.48,38.42-6.04"/>
<path class="st1" d="M709.34,249.63L709.34,249.63c0,0,4.71-9.03,16.01-12.08c11.59-3.14,28.62,0.45,28.82,0
	c0.13-0.27-6.34-0.69-6.4-1.51c-0.1-1.3,16.11-4.83,22.41-1.51c4.51,2.37,2.18,7.34-3.2,9.06c-3.3,1.06-6.02,0.32-19.21,0
	c-8.58-0.21-12.87-0.32-16.01,0C719.52,244.83,709.69,249.51,709.34,249.63z"/>
<path class="st1" d="M395.56,236.04c1.99,1.27,5.32,2.94,9.61,3.02c5.6,0.11,7.2-2.64,12.81-3.02c8.29-0.56,11.4,4.98,22.41,6.04
	c7.4,0.71,8.68-1.52,22.41-3.02c6.98-0.75,23.28-2.54,35.22,1.51c5.22,1.77,11.59,5.3,9.61,7.55c-2.75,3.14-20.56,2.32-38.42,1.51
	c-20.78-0.95-38.71-1.86-57.63-7.55C404.3,239.89,398.95,237.63,395.56,236.04z"/>
<path class="st1" d="M235.46,267.74c3.59,0.08,8.52-0.11,12.81-1.51c5.51-1.81,7.27-4.77,9.61-4.53c1.79,0.18,0.96,1.92,3.2,3.02
	c4.1,2.01,13.99-0.36,25.61-1.51c15.27-1.51,28.75-0.42,28.82,0C315.57,263.67,299.82,264.83,235.46,267.74z"/>
<path class="st1" d="M433.98,198.3c3.68-2.55,9.73-6.08,19.21-9.06c5.8-1.83,12.46-3.29,12.81-3.02c0.61,0.45-16.78,5.4-16.01,6.04
	c0.74,0.62,20.01-1.74,32.02-9.06c6.5-3.97,9.22-8.39,9.61-9.06c3.55-6.02,0.54-9.45,6.4-12.08c3.68-1.65,9.89-2.55,12.81-1.51
	c5.35,1.9-1.44,9.99-3.2,12.08C496.16,186.28,460.55,194.12,433.98,198.3z"/>
<path class="st1" d="M1106.37,79.03c-0.61-2.11-0.74-5.22,3.2-7.55c4.61-2.72,11.14-2.2,22.41-4.53c12.3-2.54,19.02-6.14,19.21-6.04
	S1143.03,64.51,1106.37,79.03z"/>
<path class="st1" d="M1215.23,272.27c0.45-0.75,1.34-1.89,3.2-3.02c3.39-2.05,7.81-2.78,9.61-3.02c7.56,2.04,12.68,1.98,16.01,1.51
	c5.41-0.77,6.63-2.69,16.01-6.04c6.02-2.16,10.21-3.65,12.81-3.02c3.65,0.89,3.46,5.8,0,9.06c-8.1,7.7-35.48,7.58-38.42,7.55
	L1215.23,272.27z"/>
<path class="st1" d="M1215.23,305.49c9.22-4.79,15.37-9.07,19.21-12.08c8.52-6.64,10.53-10.52,19.21-12.08
	c5.35-0.97,14.22-1.22,19.21,1.51c4.93,2.69,4.35,7.31,0,9.06c-3.81,1.52-8.13-0.12-16.01,1.51c-6.02,1.24-8.87,3.31-9.61,3.02
	c-1.22-0.47,6.56-5.99,6.4-6.04c-0.19-0.06-7.33,7.64-22.41,12.08C1225.26,304.23,1219.46,305.06,1215.23,305.49z"/>
<path class="st1" d="M1215.23,178.67c7.24-3.14,17.99-7.49,32.02-12.08c12.46-4.08,22.48-7.31,25.61-6.04
	c2.85,1.16,0.03,6.04-6.4,9.06c-5.92,2.78-12.36,2.76-25.61,4.53C1234.7,174.96,1225.77,176.33,1215.23,178.67z"/>
<path class="st1" d="M30.54,12.6c19.31-3.19,38.26-6.25,38.42-6.04c0.19,0.26-29.49,4.85-28.82,6.04c0.77,1.33,40.6-0.33,41.62-4.53
	c0.74-2.97-17.87-8.3-32.02-6.04C42.84,3.15,38.07,5.9,36.95,6.56C32.98,8.87,31.28,11.21,30.54,12.6z"/>
<path class="st1" d="M11.33,24.68c2.75-0.98,6.02-2.51,6.4-4.53c0.64-3.29-6.79-5.86-6.4-6.04c0.61-0.27,18.92,6.02,16.01,9.06
	C25.33,25.29,13.93,24.8,11.33,24.68z"/>
<path class="st1" d="M120.2,5.05c2.05,0.86,5.25,2.02,9.61,3.02c4.99,1.15,8.87,2.04,12.81,1.51c4.26-0.57,3.81-2.17,9.61-4.53
	c1.99-0.8,8.65-3.5,16.01-3.02c4.9,0.32,10.02,2.04,9.61,3.02C177.22,6.46,164.99,7.17,120.2,5.05z"/>
<path class="st1" d="M251.47,82.05c21.71-5.12,25.61-6.04,25.61-6.04l0,0c0,0,1.28-10.54,12.81-13.59
	c4.51-1.19,6.12-0.06,12.81-1.51c7.84-1.69,14.02-5.07,12.81-6.04c-1.57-1.27-16.14,1.28-16.01,1.51c0.1,0.17,8.61-0.51,16.01-1.51
	c11.75-1.59,20.04-3.85,22.41-4.53c9.06-2.57,14.54-5.21,22.41-9.06c11.85-5.78,18.99-10.64,19.21-10.57
	c0.45,0.15-35,21.39-32.02,22.65c2.95,1.24,43.23-17.24,41.62-18.12c-1.38-0.75-33.24,12.2-96.06,33.21
	C275.74,74.26,261.27,78.94,251.47,82.05z"/>
<path class="st1" d="M145.81,160.56"/>
<path class="st1" d="M91.38,171.12c4.87,3.22,9.54,4.21,12.81,4.53c6.24,0.62,9.57-0.97,25.61-3.02c10.18-1.3,9.38-0.74,12.81-1.51
	c11.69-2.63,17.03-8.29,19.21-10.57c4.26-4.48,1.76-5.01,6.4-9.06c2.66-2.31,7.14-6.1,16.01-7.55c2.34-0.39,8.26-1.36,12.81,0
	c6.24,1.86,6.76,7.14,3.2,10.57c-2.88,2.76-6.15,2.16-16.01,6.04c-10.44,4.11-10.66,6.34-22.41,10.57c0,0-4.99,1.8-9.61,3.02
	C132.33,179.41,99.1,172.75,91.38,171.12z"/>
<path class="st1" d="M443.58,127.34c4.8-2.49,12.17-5.87,22.41-9.06c8.48-2.63,15.27-4,25.61-6.04c13.29-2.63,30.16-5.96,32.02-4.53
	c1.79,1.36-10.31,6.93-22.41,10.57c-14.86,4.48-30.42,6.27-41.62,7.55C452.93,126.6,447.36,127.07,443.58,127.34z"/>
<path class="st1" d="M815,109.22c4.74-0.95,11.46-2.42,19.21-4.53c8.39-2.29,14.5-4.39,19.21-6.04c12.65-4.39,15.18-6.07,25.61-9.06
	c8-2.29,11.97-3.44,12.81-3.02c2.69,1.37-21.32,19.87-57.63,22.65C825.82,109.86,818.84,109.51,815,109.22z"/>
<path class="st1" d="M843.82,148.48c7.27-3.46,14.12-5.15,19.21-6.04c5.38-0.95,6.15-0.54,9.61-1.51c9.51-2.63,9.93-7.29,16.01-7.55
	c2.63-0.11,5.92,0.62,6.4,1.51C895.98,136.64,886.75,140.28,843.82,148.48z"/>
<path class="st1" d="M661.31,157.54c3.97-1.62,9.7-3.38,16.01-3.02c7.81,0.45,10.5,3.79,19.21,6.04c5.19,1.33,13.19,2.48,25.61,1.51
	"/>
<path class="st1" d="M1019.92,237.55L1019.92,237.55c8.36-2.45,14.89-4.59,19.21-6.04c14.02-4.73,19.34-7.22,28.82-7.55
	c5.51-0.2,12.3,0.35,12.81,1.51c0.58,1.34-7.84,2.26-19.21,6.04c-15.46,5.13-17.16,9.18-25.61,9.06
	C1028.95,240.46,1019.98,237.57,1019.92,237.55z"/>
<path class="st1" d="M1199.22,216.41c7.36-0.8,18.06-2.42,28.82-6.04c7.2-2.42,8.52-3.74,16.01-6.04
	c12.78-3.91,29.46-6.33,32.02-4.53c2.5,1.75-8.74,7.14-9.61,7.55c-1.73,0.82-6.79,3.14-19.21,6.04c-5.96,1.39-14.57,3.14-25.61,4.53
	L1199.22,216.41z"/>
<path class="st1" d="M693.33,189.24c11.75-3.26,21.74-4.24,28.82-4.53c15.85-0.63,26.77,1.9,35.22-1.51
	c4.8-1.93,5.67-4.51,9.61-4.53c4-0.02,5.57,2.64,9.61,4.53c12.84,6.02,44.95,1.45,44.83,0c-0.1-1.01-16.01-1.48-16.01-1.51
	c0-0.02,8.52,0.27,28.82,1.51c7.24,0.44,9.64,0.6,12.81,0c9.25-1.77,12.33-7.65,12.81-7.55c0.35,0.08-1.86,3.14-3.2,3.02
	c-1.89-0.17,1.31-6.36-3.2-7.55c-3.78-1-8.48,2.66-19.21,4.53c-15.59,2.73-31.86-0.39-32.02,0c-0.13,0.3,9.7,1.3,9.61,1.51
	c-0.1,0.26-14.41-1.4-28.82-1.51c-15.05-0.11-25.77,1.52-44.83,4.53C726.6,182.01,711.04,184.83,693.33,189.24z"/>
<path class="st1" d="M1228.04,12.6c8.87-1.62,16.49-3.34,16.01-4.53c-0.48-1.25-9.64-1.28-9.61-1.51
	c0.06-0.48,41.56,0.14,41.62,1.51c0.03,0.51-5.54,1.09-9.61,1.51c-7.68,0.8-10.12,0.42-12.81,1.51c-2.79,1.12-4.67,3.28-3.2,4.53
	c3.2,2.72,22.38,1,22.41,0C1272.9,14.96,1264.51,13.98,1228.04,12.6z"/>
<path class="st1" d="M1231.24,59.4c5.09-3.99,9.57-6.99,12.81-9.06c2.11-1.36,3.94-2.45,3.2-3.02c-1.28-0.97-9.22,0.26-16.01,1.51"
	/>
<path class="st1" d="M1253.66,98.66c2.15-1.51,4.26-3.02,6.4-4.53c8.42-3.97,11.78-4.89,12.81-4.53c2.18,0.77-5.73,7.68-6.4,7.55
	c-1.02-0.21,15.18-17.57,12.81-18.12C1277.64,78.65,1267.74,86.5,1253.66,98.66z"/>
</svg>
