<?xml version="1.0" encoding="utf-8"?>
<!-- Generator: Adobe Illustrator 24.1.2, SVG Export Plug-In . SVG Version: 6.00 Build 0)  -->
<svg version="1.1" id="Layer_1" xmlns="http://www.w3.org/2000/svg" xmlns:xlink="http://www.w3.org/1999/xlink" x="0px" y="0px"
	 viewBox="0 0 1920 350" style="enable-background:new 0 0 1920 350;" xml:space="preserve">
<path d="M1322.5,169.1c0.3-5.5,5.6-13.3,34.5-19.7c32.1-7.1,59.9-5,103.5-11.7c54.3-8.3,35.7-15.2,98.6-29.6
	c40.6-9.3,87.5-15.3,93.7-14.4c4.3,0.7-14.5,4.1-24.7,11.7c-9.2,6.8,0.4,8.3-9.8,11.7c-18.7,6.1-56.3,3-83.8,9
	c-10.9,2.4-6.1,3.1-29.6,19.7c-9.6,6.8-12.2,8-19.7,9c-24.9,3.4-54.8-1.7-88.7,1.8c-12.4,1.3-9.9,2.1-39.5,7.2
	C1343,166.1,1330.7,168,1322.5,169.1z"/>
<path d="M234.1,114c12.4-0.4,31-1.3,50-3.4c20.9-2.3,22.2-3.9,40.7-6.3c35.3-4.6,53.4-1.9,75.1-5.6c19.9-3.4,7.3-6.1,27.4-14.7
	c8.6-3.6,22-9.3,51.9-13.3c36.1-4.8,57.8-1.9,80.2-6.4c12.2-2.5,8.4-3.9,22.7-15.7c14.4-12,24-15.3,27.8-16.5
	c17.9-5.8,45.1-10.5,51.2-9.7c5.4,0.7-9,5.2-27.8,16.5c-7.4,4.5-15.4,9.3-22.7,15.7c-11.3,10-7.9,12.4-22.5,14.8
	c-18.9,3.1-34,0.6-64.9,4c-27.6,3-40.6,7.7-46.3,9.8c-13.9,5.1-5.3,5.9-16.8,10.4c-22.7,9-73.4,12.5-86.5,13.5
	c-23.3,1.6-23.5,0.5-39.8,1.9c-63.8,5-76,22.1-83.1,21.6c-5.9-0.4,9.5-11.6-2.6-12.7c-8.8-0.7-26.6,4.3-30.3,3.9
	C215,121.4,222.9,118.1,234.1,114z"/>
<path d="M1215,107.7c1.5-7.9,10.3-18.3,48-24.6c43-7.2,79.8-1.6,110-9.2c40.7-10.2,0.8-27.1,48.9-30.2c19.8-0.5,92.3-0.4,126.6-0.4
	c46-0.1,61.3-0.4,62.9,0.2c2,0.8-23.5,1.3-52.7,4.9c-41.9,5.1-39.4,10-68.3,9.6c-28.2-0.4-50.6-5.4-59.2-3.6
	c-7.4,1.6,8.7,5.5,8.4,11.6c-0.3,5.1-11.7,7.9-14.8,8.7c-16.3,3.8-31.9,1.4-48.1,5.5c-9,2.3-5.5,3.4-17.5,6.4
	c-7.3,1.9-13.9,3.5-25.9,4.4c-24.8,1.8-43.3-1.9-58.2,0.4c-8.8,1.3-1.4,2.5-12.9,7C1245.7,104,1234,105.4,1215,107.7z"/>
<path d="M1553.4,99.6c20.2-7.8,22.1-13.8,19.7-18c-1.9-3.3-6.6-5.8,0-9c7.8-3.8,22.3-4.2,44.4-8.1c19.4-3.4,31-7.7,54.2-16.2
	c16.2-5.9,18.6-8,34.5-10.8c17.4-3.1,42.6-5.6,49.3-4.5c8,1.3-10.9,7.9-24.7,11.7c-20.5,5.6-36.2,6.8-34.5,9.9
	c1.7,3.1,18.6,3.6,19.7,7.2c1.1,3.3-12.6,5.9-14.8,6.3c-11.7,2.1-20,1.4-44.4,3.6c-18,1.6-32,2.8-39.5,5.4c-9,3.1,2.4,4.6-5,9
	C1607.5,90,1571,96.8,1553.4,99.6z"/>
<path d="M64.8,96.4c62.7-11.2,68.9-9.6,140.8-15.6c44.9-3.6,50.9-4.4,56-5.9c13.2-3.7,11.9-8.6,10.7-13c-2.2-8.2-15.3-10.2-9-13.9
	c4.7-2.7,22.1-4.1,56.8-6.8c33.8-2.6,50.7-3.9,70.3-4.5c26.6-0.9,46.9-0.9,49.2-3.7c1.1-5.5-33-10.2-53.4-9.7
	c-15.1,0.4-9.4,3.4-24.7,5.1c-19.5,2.2-37.8-1.6-71.5-0.2c-5.1,0.2-20.2,0.9-33.5,3.4c-17.7,3.2-21.5,7.5-22.8,9
	c-2.9,3.5-0.7,6.9,1.6,10.4c2.8,4.3,5.7,5,4.5,6.9c-2,3.3-12.6,4.9-26.1,6.8c-36.7,5.2-48.2,5.4-68.4,8.4
	C111.1,78.5,79.5,89.2,64.8,96.4z"/>
<path d="M14.7,49.2c0,0.5,4.8,2,16.5,5.1c13.9,3.5,21.4,2.9,24.9,2.3c2.7-0.5,5.8-1.9,11.8-4.9c5-2.6,16.1-8.9,21.9-11.4
	c3.3-1.4,8.8-3.8,16.8-5.5c7.3-1.8,40-4.6,46.7-3.8c18.7,2.3,36.2,13.4,36.3,13.4c0.1-0.1-17.6-8.2-17.3-8.6
	c0.4-0.3,20.2,9.1,47.9,19.1c3.6,1.3,10.1,3.6,9.9,4.1c-0.2,0.5-5.6-0.7-17.4-3.2c-20.8-4.4-18.1-3.7-21.5-4.5
	c-20.2-4.9-22.7-8.4-35.6-9.9c-3-0.4-10.2-1.2-16.7,0.2c-4.2,0.9-4.6,2-9.3,4.6c-8.9,4.9-18.3,6.9-17.6,7.4c0.4,0.3,4.8-0.8,5-0.6
	c0.4,0.3-9.2,4.6-24.3,6.4c-12,1.4-23.4,0.8-30.8,0.1C104.4,63.5,12.9,47.1,14.7,49.2z"/>
<path d="M23.6,6.4c18.6,8.9,36.7,11.8,47.2,12.9c10.4,1.1,17.5,1.8,27-0.1c10.8-2.1,14.2-5.6,28.6-8.5c5-1,11.9-2.4,20-2.2
	c9.5,0.2,15.5,2.5,26.2,6.6c14.2,5.5,13.2,7.4,20.1,7.9c7.7,0.6,15-1.3,29.5-5c20-5.4,29.6-10.1,23.6,1.4
	c-1.9,4.6-9.4,12.1-22.4,12.2c-5.8-0.1-5.8-2.5-11.4-4c-5.3-1.4-13.7-0.4-30.4,1.6c-6.9,0.9-9.8,1.4-13.9,0.9c-6.5-0.8-6-2.9-11.4-4
	c-10.3-2.3-26.1,2.2-34.7,4.7c-3.6,1.1-7.1,2.2-12.2,2.7c-5.4,0.5-9.1-0.1-13.1-0.8c-25.5-4.1-25.7-3.7-29.7-5.1
	c-5.2-1.8-3.5-1.9-13.2-5.8C38,15.6,34.4,15.8,23.6,6.4z"/>
<path d="M130.1,99.6c-10.1,5.2-20.8,9.4-29.6,12.6c-22.4,8-33.2,9.2-34.5,13.5c-1.8,5.9,17.6,7.4,9.8,12.6c-3,2-6.1,1.8-24.7,8.1
	c-3.6,1.2-11.7,4-19.7,7.2c-17.4,7-21.1,10.9-24.6,10.8c-4.2-0.1-2.8-5.7,0-9.9c0.9-1.3,2.6-3.4,9.8-9c10-7.6,19.6-13.5,19.7-13.5
	c0.1,0-5.8,3.5-5,3.6c0.9,0.1,13.6-4.3,19.7-9.9c7.2-6.6-0.3-10.2,14.8-12.6c7.7-1.2,10.6-0.4,19.7-1.8c14.1-2.1,11.4-4.7,24.7-8.1
	C114.1,102.2,120.3,100.9,130.1,99.6z"/>
<path d="M1907.2,121.4c-35.6-3.4-58.3-2.3-72.6-0.5c-13.5,1.6-15.9,3.3-36.5,5.6c-24.7,2.7-28.7,1.1-46.1,3.7
	c-18.6,2.8-17.4,5.1-38.4,8c-17.6,2.4-28,3.7-39.7,0.4c-17.4-4.9-22.4-15.8-31-17c-9.7-1.4-13.2,11.1-7.1,13.2
	c6,2.1,15.1-7.7,51.3-14.6c0.3-0.1,10.9-1.6,32-4.7c31.4-4.6,36.2-5.3,45.9-5.6c12.5-0.5,23,0.1,42.3,1c25.6,1.2,22.6,2.1,42.6,2.9
	c15.7,0.6,24.9,0.3,40.4,3.3C1897.4,118.6,1903.3,120.3,1907.2,121.4z"/>
<path d="M568,183.5c-14-1-31.9,0.5-39.6,1.5c-22,2.6-40.9,5.4-43.9,5.8c-24.8,3.5-50.9,3.5-97.7,3.6c-32.4,0-63.7,0-80.8-4.2
	c-2.6-0.6-8.8-2.2-6.1-3.5c4.2-2.1,30-3.5,50-2.3c13.5,0.8,20.8,2.5,32.3,1.8c4.8-0.3,4.8-0.7,10.3-1.3c15.5-1.7,24.2,0.3,45.1-0.6
	c10.5-0.5,8.3-1,33.9-3c15.7-1.2,21-1.4,20.9-1.6c-0.2-1-132.4-0.2-135,3c-3.1,2.6,76.2,6.3,115.4,4.3c31.5-1.4,41.2-4.8,62.7-5.3
	C543.4,181.6,554.5,181.8,568,183.5z"/>
<path d="M28.7,174.4c1-0.5,2-1,3.1-1.5c23.8-8.5,37.8-9.3,68-12.3c10.5-1.3,28.4-3.4,46.1-7.7c5.6-1.3,8.8-2.3,10.1-2
	c2.3,0.5-2.2,4.5-9.8,7.6c-7,2.8-10.7,2.5-24.9,6.1c-17.7,4.5-14.8,5.8-26.4,6.9c-7.2,0.7-16.9,1.6-32.4,1.1
	c-7.6-0.3-15.7-0.9-23.7-0.2C33.6,172.9,30.5,173.8,28.7,174.4z"/>
<path d="M526.2,162c-6.2-0.1-19.5-8.4,0-14.4c20.7-6.3,58.7-4,78.9-10.8c9.4-3.2,4.5-4.8,19.7-9.9c30.1-10.2,41.6-7.1,34.5,3.6
	c-3,4-6,8.2-24.7,11.7c-5.6,1-21.3,3.9-44.4,4.5c-11.6,0.3-20.2-0.2-24.7,0.9c-5.7,1.4,4.4,3,0,5.4c-3.7,2-12.4,1.8-24.7,4.5
	C529.4,160,529.3,162,526.2,162z"/>
<path d="M2.3,276c1.5-0.6,3.6-1.4,5.7-2.5c11.1-5.9,2.3-9.4,4.4-15.2c2.2-6.2,15-10.6,23.7-13.6c6.2-2.1,13.1-3.8,26.9-7.2
	c28.1-6.9,42.1-10.4,58.1-12.5c32-4.3,53.9-3.7,61.7-7.9c6.6-3.6-3-7.3-2.8-7.3c24.1,10.8,14.8,18.8-51.6,24.5
	c-21.3,2-33.4,2-45.9,4.8c-6.4,1.4-9.8,3.2-16.8,6.7c-12,6.1-8.3,6.8-17.8,10.2c-11,4-17.7,3.5-21.7,6.5c-4.4,3.3,2.2,4.9-2.3,8
	C19.6,273.2,9.5,275,2.3,276z"/>
<path d="M21.6,244.9c-18.8-7.8,11-14.7,44.4-21.5c25.4-5.1,48.3-9.7,54.2-9c6.6,0.8-13.7,7.7-9.8,8.1c4.5,0.4,38-8.5,34.5-9
	c-3.1-0.5-29,6.6-83.8,16.2C38.8,233.1,21.3,239.2,21.6,244.9z"/>
<path d="M21.6,109.5c-5.3-3.8-10.4-9.1-9.8-15.2c0.4-5.4,5-10,9.8-13.5"/>
<path d="M66,81.6c-12.9,1.8-24.1,4.6-29.6,8.1c-10.4,6.5-6.6,16.2-5,16.2c1.5,0-0.2-8.1,0-8.1c3.9,3.6,1.2,15.6-29.6,23.3"/>
<path d="M899.6,175.4c2.8-0.2,6.1-0.5,6.2-1.2c0.2-1-5.4-2-7.9-2.7c-14.4-4.2,30.7-13.1,32.8-13.5c21.1-4.1,31.7-6.2,47-6.4
	c25.8-0.4,36.2,3,77.8,5.2c14.9,0.8,70.9,3.8,99.6-1.9c14.9-3,17.4-7.3,17.9-8.5c3.3-6.6-13.8-10.3-7.3-14.8
	c6.4-4.4,29.5-5.5,41.5-6c44.4-2.1,73.6,4.4,106.7,1.6c18.9-1.6,26.3-5.2,33.6-8.7c7.6-3.7,3-4.2,13.2-14.6
	c2.5-3.7,19-14.5,39.8-15.6c25.8-1.3,69.4,5.5,69.9,8.1c0.4,1.7-17.4,0.4-29,3.6c-5.8,1.6-5.2,3-14.1,4.2c-5,0.7-7.2,0.5-16.5,1.1
	c-10.2,0.7-23.3,1.6-29,3.6c-3.8,1.3-2.7,2.6-0.7,6.5c3.8,7.4,5.8,11.1,4.1,12.6c-3.8,3.5-16.2,4.9-37.6,7.4
	c-5.7,0.6-12.4,1.3-65.9,4.5c-32.4,1.9-38.5,2.2-49.4,3.3c-5.5,0.6-20.1,2.3-36,5.7c-43.6,9.3-29.4,17.2-63.3,18.8
	c-24.4,1.1-54.5-1.9-59.7-2.4c-33.5-3.3-45.1-8.2-73.9-9.5c-19.2-0.9-32.3,0.4-36.9,0.9c-19.4,1.9-19.2,5.4-35.9,11.3
	C921.5,169.9,912.9,172.6,899.6,175.4z"/>
<path d="M544.1,26.9c7.3-0.1,17.2-0.5,24.7-1.8c9.9-1.8,5.9-3.6,14.8-6.3c10.9-3.3,31.4-5,34.5-4.5c2.5,0.4-5.5,2.6-5,2.7
	c1.2,0.1,31.1-10.6,44.4-9.9c5.8,0.3,5.1,2.6,9.8,2.7c5.7,0.1,11.4-3.3,14.8-5.4c1-0.6,7.2-4.3,5-4.5c-3-0.2-10.3,6.5-39.5,12.6
	C641.9,14.2,569.7,23.6,544.1,26.9z"/>
<path d="M573.7,35c4.1-6.9,31-14.1,69-17.1c24.4-2.3,33-5.4,49.3-8.1c9.2-1.5,20.9-2.5,44.4-4.5c6-0.5,77.1-6.5,83.8-4.5
	c4.2,1.2-18.2,5.5-39.5,8.1c-5.2,0.6-17,1.9-59.2,4.5c-30.7,1.9-37.4,1.9-49.3,2.7c-61.4,4-96.1,15.7-93.7,16.2
	c2.1,0.4,38.2-6.5,39.5-6.3C618.8,26.1,606.7,28.6,573.7,35z"/>
<path d="M446.5,271.9c2.3-0.1,4.5-0.1,6.8-0.2c108.7-5.1,22.4-40.4,114.6-45c23-1.8,106.9,5.4,142.9,7.9c28.6,1.8,39.6,2,43.4,4.3
	c5.3,3.2-5.3,8.7-20.6,10.6c-24.6,3-59.8-3.6-67.1-5c-21.6-4.1-31.7-8-49.4-8.9c-12.9-0.7-20.9,0.7-23.1,1.2
	c-8.7,1.7-9.5,4.1-18.4,10.1c-7.6,5.1-11.7,7.9-18.4,10.1c-12.2,4-27.3,4-36.4,4.2C502.1,261.6,476,263.8,446.5,271.9z"/>
<path d="M26.3,337.2c-2.2-0.2-0.8-1.8,0-2.7c6-6.9,17.8-20.7,19.7-29.6c1.8-8.5-5.9-10.1,5-14.4c11.6-4.6,25.5-4.7,39.5-9.9
	c10.9-4,5.9-5.2,14.8-14.4c16.9-16.2,11.3-14.3,78.9-26.9c31.1-5.8,53.2-9.7,69-17.1c9.1-4.7,3-6,9.8-11.7
	c6.7-5.5,17.2-8.3,24.7-9.9c7.3-1.5,14.2-3,19.7-2.7c12,0.6,13.6,9.4,0,17.1c-10.3,5.8-19.5,5.5-34.5,12.6
	c-18.8,8.8-7,10.5-24.7,14.4c-19.3,4.3-54.6,7-69,8.1c-20.1,1.5-31.3,1.8-34.5,3.6c-4.8,2.6,17.2,4.2,24.7,9
	c10.6,6.8-16.8,14.1-24.7,16.2c-12.2,3.3-19.6,3.7-39.5,9c-11.6,3.1-17.4,4.7-19.7,6.3c-8.2,5.7,14.7,7.7,9.8,13.5
	c-3.8,4.5-18,4.1-29.6,10.8c-7.1,4.1-2.2,4.5-9.8,9C46.7,332.7,30.5,337.5,26.3,337.2z"/>
<path d="M1033.6,189c22.2-2.2,44.9-4.2,83.4-6.6c25.3-1.6,21.6-1,28.5-1.6c43.8-4.3,43-13.9,86.2-16.1c8.3-0.4,16.8-0.5,19.8-0.5
	c19.9-0.2,36.6-0.3,56.9,2.3c19.3,2.5,50.1,8.4,56.4,13.5c1.2,0.9,1.4,1.7,0.9,2.5c-2.7,4.2-24.2,7.7-40.1,6.6
	c-19.9-1.4-15-9.1-35.6-13c-32.4-6.1-82.4,5.7-116.8,6.2c-3.6,0.1-10,0-17,1.3c-11.2,2-11.9,5.5-33.9,4.7c-29-1-41.3-4.6-59.2-4
	C1055.7,184.5,1045.4,185.5,1033.6,189z"/>
<path d="M295,329c16.3-0.8,39.6-2.1,58.4-3.3c41.1-2.5,45.8-2.8,47.6-2.3c5.7,1.3-28.9,7.3-26.3,7.9c2.7,0.6,48.8-4.4,82-14.2
	c8.6-2.5,22.2-6.6,30.3-13.1c6.8-5.5,1.7-6.3,8.6-11.3c4.5-4.9,41.4-17.8,92.1-20.7c15.5-1.1,46.2-3.1,61.2-0.2
	c17.8,3.4,1.8,11.7,1,12.1c-11.2,5.6-34.3,8.1-53.5,10.2c-36.2,3.8-47.9,2-65.2,5.4c-26,5.2-22.4,13.8-25.6,13.5
	c-3.1-0.2-0.8-8.4-3.6-8.6c-3.1-0.2,0.5,10.4-32.3,15.7c-5.8,0.9-10.7,1.4-48.3,3.2c-77.1,3.8-120.9,5.1-117.6,7.4
	c1.2,0.9,8.8,1.7,8.9,1.7C312.9,332.4,304.5,330.8,295,329z"/>
<path d="M119.4,334c-10.8-5.6-5.5-9.6,29.6-11.7c23.6-1.8,55.5-4.3,73.9-8.1c5.8-1.2,13.7-5.3,29.6-13.5c12.4-6.4,16.2-9,29.6-9.9
	c12.2-0.8,29.3,0,34.5,1.8c2.7,0.9,1.4,1.8-24.7,10.8c-10,3.4-15,5.1-24.7,7.2c-8.8,1.9-16.8,3.2-19.7,3.6
	c-34,5.2-51.9,2.9-73.9,7.2c-9.2,1.8-13.9,3.7-29.6,6.3C135.2,328.9,121.6,332.5,119.4,334z"/>
<path d="M589.6,217.5c12.4-31.6,96.2-26.3,113.4-35.9c4.5-2.8-1.9-7-14.8-15.2c-10-6.4-13.5-7.3-9.8-9c7.4-3.4,30.1-3.1,78.9-6.3
	c40.5-2.6,80.8-5.3,108.4-11.7c16.3-3.8,17.6-6.4,24.7-6.3c15.5,0.3,36.7,13.6,5,20.6c-16.2,3.6-41,4.4-69,5.4
	c-57.9,2-88.1-1.1-98.6,1.8c-11,3,20.7,6.9,14.8,14.4c-2.7,3.4-9.7,3-29.6,10.8c-20.8,8.1-15.5,9.4-29.6,11.7
	c-23.5,3.9-46.7,1.7-59.2,5.4c-9.2,2.7,0.3,4.9-9.8,9C607.8,214.7,597.6,216.4,589.6,217.5z"/>
<path d="M469,334.1c36.6-0.6,65.7-1.9,86.7-3.1c42.4-2.4,63.6-3.6,80.8-7.6c18.8-4.4,11.4-6.9,30.8-9.7c8.9-1.3,21-2.3,75.7-2.5
	c57.5-0.3,55.7,0.8,83.2,0.3c57.8-1.1,87.1-6.2,97.8-3.7c4.6,1.1,2.5,2.8,1.2,3.9c-8.9,7.5-54.8,8.1-60.5,8.1
	c-44.6,0.4-62.2-5.2-119.6-5.5c-16.2-0.1-42.8-0.1-45.1,3.3c-2,3,17.4,6,16.3,9.5c-0.3,1.2-3,3.1-42.1,5.5
	c-22.2,1.3-29.8,1.2-59.9,2.5C563.6,337,523.3,341.2,469,334.1z"/>
<path d="M786,256.3c23.1-0.4,62.2-1.8,93.7-7.7c13.7-2.6,28.6-5.4,34.7-10.7c9.2-8.1-11.8-13.4,4.4-17.3c9.8-2.4,19.3-0.8,58.7-2.7
	c10.9-0.5,42.4-2.1,71.8-6.1c32.4-4.4,27-6.9,53.6-8.8c17.4-1.2,18.1-0.1,67.4-0.9c49.3-0.7,83.6-3.5,79.5,3c-4,5.6-43.5,6.6-62.3,7
	c-40.9,0.9-48.7-1.7-76.9,0c-21.8,1.3-36.1,4-45.9,5.8c-22.9,4.3-17,5.9-31.7,7.2c-30.6,2.7-69.5-2.9-76.9,0
	c-4.6,1.8,9.8,4.1,12.4,9.6c1.7,3.8-3.6,6.4-6.6,7.8c-7.1,3.3-17.4,4.8-37.2,7.6c-19.8,2.8-79.5,9.4-114.1,7.6
	C800.2,257.4,791.6,256.8,786,256.3z"/>
<path d="M613.8,117.8c7-4.1,20.6-9.7,49.3-13.5c23.6-3.1,34.3-2,64.1-5.4c39.3-4.3,82.4-13,73.9-26c-2.7-7.3-16.5-10.9-5-13.5
	c9.7-2.1,23.6-0.5,34.5-2.7c14.1-2.8-2.2-6.9,9.8-11.7c7.2-2.9,19.4-4,29.6-5.4c53.1-7.4,66.2-25.3,49.4-26.9
	c-14.2-1.4-59.1,7.7-54.2,9c5.9,1.5,85.5-8.2,93.7-6.3c4.8,1.2-20.6,5.1-44.4,10.8c-78.7,18.9-75.3,41.9-73.9,51.2
	c0.4,2.7,1.2,8,5,8.1c7.1,0.1,17.7-18.8,14.8-18.8c-3.2-0.1-1.1,23.7-78.9,34.1c-12,1.6-8,0.7-49.3,5.4
	c-74.3,8.4-127.1,16.4-128.2,16.2c-0.9-0.2,37.1-5.6,34.5-6.3C637.5,115.7,632,116,613.8,117.8z"/>
<path d="M0,163.8c4.5,0.3,9,0.5,13.5,0.8c33.4,2,63.9,0.2,86.2-1.7c42.2-2.9,44.2-0.4,60.9-2.7c27.9-3.8,19.7-10.2,37.7-17.3
	c25-9.9,79.6-13,135.2-8.7c30.1,2.3,29,4.4,111.8,13.3c39.2,4.2,52.2,5.2,57.1,7.5c10.9,5.3-25.9,14.7-76.6,9.9
	c-20.1-1.9-44.7-6.2-69-10.5c-40.5-7.1-43.8-8.6-53.9-9c-5.7-0.2-10.2,0.4-11.4,0.6c-10.4,1.3-29.5,0.2-44.4,2.3
	c-21.3,3.1-29.9,12.3-33.6,16.3c-6.6,7-1.2,8.8-7.5,11.3c-11.9,4.8-40.4,1.2-99-2.3C64.7,171.1,27.3,167.1,0,163.8z"/>
<path d="M977.6,226.9c6.2,0.9,12.5,1.7,18.7,2.5c48.6,5.9,91.6,9.8,152.1,9.2c23.8-0.4,28.7-1.5,81.3-6c47.9-4.1,58.2-4.4,78.1-7.6
	c16.1-2.5,26.9-4.3,34.6-8.1c10-5,3.8-7.9,14.6-9.6c16-2.4,40.3,2.5,81,5.1c21.8,1.4,48.1,0.7,100.7-0.6c68.3-1.7,81.1-3.5,95.2-0.5
	c24.2,5.1,21.1,20.4,10.7,22.1c-9.9,1.6-23.9-8.9-61.5-11.8c-12.9-1-22.1-0.6-38.4,0c-103.3,3.8-154.9,5.7-167.8,5.4
	c-17.2-0.5-33.8-1.1-41.6,1.8c-12.1,4.5,16.7,12.8,3.6,15.8c-11.9,2.7-44-2.1-52.8,1.9c-2.2,1-0.7,1.5-3.6,2.4
	c-7.3,2.1-24.6,0.5-39.2,0.2c-27.7-0.5-33-1.9-62.3-2.8c-25-0.7-24.5,0.2-54.7-0.5C1076.9,244.6,1046.7,244.1,977.6,226.9z"/>
<path d="M1795.9,287.8c-12.6,10.1-34.9,15.5-50.5,18.4c-43,8-126.9,13.6-177.2,3.3c-15.8-3.2-29-8.2-46.9-9.3
	c-14-0.8-21.8,1.3-26,2.5c-12.8,3.5-6.1,7.5-12.7,11.9c-6.4,4.3-19.9,5.9-33.4,7.3c-44,4.4-100.6-0.3-109.5-1
	c-42.1-3.6-49.6-7.4-90.5-9.8c-24.8-1.5-44.2-1.4-59.1-1.3c-38,0.2-62.6,2.4-64,1.9c-0.7-0.3,5-1.3,13.6-1.6c24-0.9,52,4.8,81.7,8.3
	c27.4,3.2,41.9,2.8,83.4,3.5c153.4,2.5,195.4,11.3,253.3,5.1c20.8-2.2,24.8-4.4,54.5-6.6c36.4-2.7,50-1,93.2-2.8
	C1781.5,315,1827.4,309.6,1795.9,287.8z"/>
<path d="M1597.7,307.3c1.1,0.3,11.4-0.6,19.7-1.8c30.7-4.3,33.7-12.4,34.5-15.2c2.4-8.3-14.5-9.6-5-14.4c11.4-5.7,45-8.3,54.2-9
	c37.8-2.9,55.2,0,103.5-0.9c69.5-1.3,106.7-8.7,113.4-7.2c6.3,1.5-24.4,8.7-64.1,13.5c-5.3,0.6-82.3,9.6-123.2,4.5
	c-12.4-1.5-18.5-4-24.7-3.6c-7.4,0.5-3.6,4.3-5,8.1c-3.7,11-47.7,18.4-44.4,18.8c3.1,0.4,37.5-6.6,34.5-7.2
	C1686.8,292.1,1594.2,306.4,1597.7,307.3z"/>
<path d="M1609.2,266.9c-92.6,6.1-54,24.4-94.6,24.7c-9.8-0.2-14.3-1.7-28.6-3.1c-40.7-4.1-50.3,3.5-92,1.8
	c-19.1-0.8-17.7-2.4-65.9-7.8c-32.1-3.6-75.3-8.4-119.4-9.3c-16.7-0.3-36.6,0.6-76.5,2.5c-23.6,1.1-16.9,1.1-67.8,4.1
	c-51.5,2.8-73.5,4-21.1,6.4c33.7,1.4,57.5,0.7,78.4-0.2c55.7-2.2,62.7-4.1,93.3-2.5c8.1,0.4,6.3,0.5,39.8,3.1
	C1344.6,293.8,1627.2,315.6,1609.2,266.9z"/>
<path d="M835,177.7c-28.4,1.6-44.1,10.4-29.6,15.2c11,3.7,34.9,3.7,34.5,5.4c-0.7,2.8-64.9,1.9-113.4,9.9
	c-18.8,3.1-31.2,6.9-29.6,7.2c1.9,0.3,23.2-4.1,54.2-9c64.4-10.1,122.2-14.4,118.3-16.2c-3.1-1.4-39.8,0.9-44.4-0.9
	c-5.9-2.3,50.6-7.9,44.4-10.8C866.3,177.1,848.3,176.9,835,177.7z"/>
<path d="M513.7,323.3c-4.8-2.5-8.6-5.7,0-8.1c7.7-2.1,18.9-1.8,44.4-3.6c44-3.1,78.8-9,78.9-9l0,0c0,0,35.5-6.7,54.2-15.2
	c12.1-5.5,9.3-8.1,24.7-9.9c13.9-1.6,34.4-1.5,39.5,0c5.4,1.6-7.6,4.8-24.7,9c-9.4,2.3-14.1,3.4-24.7,5.4
	C681.8,296.3,610.7,308,513.7,323.3z"/>
<path d="M1776.8,254.6c3.6-8.3,24.6-12.9,48.2-12.8c21-0.4,25.4,2.1,39.6,1.2c22.6-1.3,23.1-8.3,34-6.1c6.4,1.3,12.2,5,12.8,7.3
	c0.8,3.4-10,3.9-20.9,4.3c-24.2,0.9-35.6-2.8-48.7-0.6c-10.2,1.6-4.8,4-15.6,4.9c-11.1,0.9-20.8-1.4-34.3-0.6
	C1784.3,252.6,1779.6,253.7,1776.8,254.6z"/>
<path d="M1535.2,267.8c7.7,0.2,18.9,0.2,29.6-0.9c24.8-2.4,18.8-7.7,44.4-14.4c16-4.1,21.5-2.9,44.4-8.1
	c22.2-5.1,40.6-11.7,34.5-12.6c-5-0.7-25.7,2.4-24.7,2.7c1.9,0.6,76.9-7.9,88.7-5.4c6.9,1.5-11.2,6.1-9.8,6.3
	c1.8,0.2,32.3-8.6,29.6-9c-3.2-0.4-43,11.6-108.4,23.3C1616,258.3,1569.7,264.1,1535.2,267.8z"/>
<path d="M1411.7,28.7c11.2-4,14.9-7.6,14.8-10.8c-0.2-3.5-5.1-5.1,0-7.2c6.4-2.7,23.2-4,54.2-5.4c48.4-2.2,107.5-3.7,108.4-2.7
	c1.4,1.4-105.3,5.5-103.5,7.2c0.4,0.4,5.7,0.4,24.7,0.9c24.4,0.7,44.5,1.5,44.4,1.8c-0.3,0.5-70.7-3.4-93.7,1.8
	c-13,2.9-1.8,6.8-19.7,10.8C1432,27.2,1420,28.2,1411.7,28.7z"/>
<path d="M1002.2,26.8c-8.2-2,12.5-10.1,39.5-9.9c22,0.2,40.9,5.8,34.5,8.1c-2.8,1-13.4,1.3-34.5,1.8
	C1017.7,27.3,1005.7,27.6,1002.2,26.8z"/>
<path d="M912.9,295.9c67.9-10.9,53.4-14.9,54.2-26.9c-0.6-3.3-1.1-3.6,0-4.5c8-6.4,58.3-11.4,78.9-9c37.1,5.6-38.4,10.5-44.4,10.8
	l0,0c0,0-6.2,18.8-5,18.8C1014.7,270.1,976.5,277.2,912.9,295.9z"/>
<path d="M1160.3,70c5.4,17.3,10.3,23.3,14.8,23.3c4.4,0,9.8-6,5-6.3c-8.4-0.5-45,14.7-49.3,14.4c-2.6-0.2,10.8-5.7,19.7-12.6
	C1160.4,81.2,1161.3,74.6,1160.3,70z"/>
<path d="M694.2,60.2c5,0,12.8-0.1,19.7-0.9c17.1-2.1,7.2-6.3,24.7-10.8c11.8-3,24-3.1,24.7-5.4c0.5-1.8-6.8-2.2-9.8-5.4
	c-0.9-0.9-2.4-2.6,0-4.5c1.6-1.3,3.4-1.5,9.8-4.5c6.4-2.9,6-3.4,5-3.6c-3-0.6-14,0.1-19.7,0.9C714.2,32.5,817.3,52.8,694.2,60.2z"/>
<path d="M1323,3.5c-5.1,0.9-12.6,2.4-19.7,4.5c-15,4.7-18.1,8.7-44.4,12.6c-13.2,1.9-37,4-44.4,2.7c-12.2-2.1,24.3-12.6,24.7-12.6
	c-28.8,9.1,71-7.4,64.1-8.1c-2.4-0.6-30.7,2.1-29.6,2.7C1274.6,5.8,1294.2,5,1323,3.5z"/>
<path d="M386.4,14c9.9-6.8,43.3-7.6,78.9-7.2c15.8,0,27-0.3,44.4-0.9c30.8-1,35.1-1.8,54.2-1.8c16,0,29.6,0.5,29.6,0.9
	c-0.1,0.7-56,0-88.7,3.6c-1.7,0.2-5,0.6-9.8,0.9c-17.4,1.2-30.2,0.2-44.4,0c-30-0.3-54.4,3.5-54.2,3.6c0.2,0.1,24.6-1.8,24.7-1.8
	C421,11.3,410.8,12.1,386.4,14z"/>
<path d="M435.6,43.7c0.1-1.2,0.9-2.9,5-3.6c4.3-0.7,9.2,0.2,14.5,0.2c7.8,0.1,10.6-1.9,14.2-4c13.5-8.2,20.5-12.3,33.4-11.7
	c7.6,0.4,17.2,2.1,18.8,3.4c1.3,1-2.9,1.3-10.1,2.9c-3.3,0.7-7.6,2-16.2,4.6c-8.8,2.6-9.4,3.2-14.2,4
	C466.2,41.8,455,42.1,435.6,43.7z"/>
<path d="M273,88.8c-0.4-0.3-1.4-1,0-1.8c1.1-0.7,3.3-1.1,4.4-1.3c3.8-4.3,16-6.9,25.2-3.2c2.7,1.4-1.7,2.5,0,2.7
	c4.8,0.7,49.3-6.9,44.4-8.1c-3.5-0.9-29.4,1.9-29.6,1.8c-0.2-0.1,29.3-2.2,64.1-3.6c7.6-0.3,12.9-0.5,14.8,0c4,1-7.4,4.7-24.7,6.3
	c-23.3,2.2-54.4,0.4-54.2,0c0.1-0.3,18.3-0.7,19.7,0C338.6,82.3,322,84.4,273,88.8z"/>
<path d="M440.6,115.7c71.9-5.2,46.2-13.3,73.9-16.2c10.1-0.8,19.1,0.3,24.7-0.9c1.6-0.3,3.6-1,0-4.5c-1.9-1.9-7.5-7.2-14.8-7.2
	c-2.5,0-4.2,0.6-5,0.9c-12.4,4.5,32.6,11.5,19.7,17.1c-5.4,2.3-19.7,3.9-24.7,4.5c-9.4,1.1-16.9,1.4-24.7,1.8
	C477.6,111.9,460.5,113.2,440.6,115.7z"/>
<path d="M662.5,123.3c21.2-4.2,26.5-5,69-9c35.6-3.3,45.9-3.7,59.2-6.3c31.9-6.5,12.3-6-44.4,0"/>
<path d="M559.9,115.2c-6-0.4,2-14.5,49.3-20.6c0.9-0.1,8.8-1,24.7-2.7c59-6.4,59.6-6.2,64.1-7.2c22.7-4.8,24.3-12.5,24.7-14.4
	c0.6-2.8-1.3-5.8,9.8-8.1c5.6-1.2,15-2.3,19.7-1.8c6.4,0.7,1.7,4.1,0,5.4c-14.8,10.9-96.7,19-152.8,35
	C568.8,109.5,563.9,115.4,559.9,115.2z"/>
<path d="M927.8,51.1c9.5-5,17.9-9.2,24.7-12.6c12.4-6.1,20.6-10,29.6-9.9c7.5,0.1,10.8,2.9,14.8,2.7c5.6-0.2,4.8-6.2,0-6.3
	c-6-0.2-9.2,9.2-44.4,19.7C943.1,47.6,934.1,49.7,927.8,51.1z"/>
<path d="M1549.7,20.6c3.3-0.3,6.6-0.6,9.8-0.9c6-1,8.6-2,9.8-2.7c2.8-1.6,0.2-2.7,5-3.6c3.8-0.7,7-0.3,9.8-0.9c5-1-2.1-2.7,0-4.5
	c1.9-1.7,10.7-2.6,19.7-3.6c22.5-2.4,57.5-3.8,64.1-1.8c3.8,1.2-1.6,3.4-9.8,4.5c-10,1.3-19.7,0.2-44.4,0.9
	c-10,0.3-17.4,0.7-19.7,0.9C1567.3,10.7,1554.7,17.2,1549.7,20.6z"/>
<path d="M1622.2,345.4c64.8-6.4,96.9-8.8,69-3.6c-0.1,0,20.8-4.3,49.3-11.7c14.3-3.7,21.4-5.5,29.6-8.1c10.9-3.4,15.2-5.4,29.6-9.9
	c13.8-4.3,20.9-6.5,24.7-6.3c7.7,0.4,10.3,7.9-5,14.4C1800.6,328.9,1699.4,340.1,1622.2,345.4z"/>
<path d="M812.3,335.9c9,0.3,23,0.6,39.5,0c5.9-0.2,22.2-0.9,44.4-3.6c19.8-2.4,19.1-3.4,54.2-9.9c27.5-4.9,48-8.3,69-13.5
	c24.3-6.1,26.7-9.7,39.5-9.9c8.4-0.1,16.8,1.3,19.7,2.7c8.3,3.9-23.7,8.9-29.6,9.9c-7.9,1.2-7.6,0.9-29.6,3.6
	c-22.2,2.8-33.4,4.1-44.4,6.3c-15.5,3-10.2,3.5-24.7,6.3c-13.9,2.7-17.2,2-49.3,6.3c-19.1,2.6-24.8,3.8-39.5,4.5
	C833.9,339.8,823.2,338.2,812.3,335.9z"/>
<path d="M114.8,305.9c7.7-0.9,18.8-2.3,29.6-4.5c4.8-1,20.7-4.4,29.6-9.9c9.7-6,1.2-8.2,14.8-10.8c9.5-1.8,18.4-1.5,24.7-3.6
	c8.5-2.8,1.7-6.3,0-6.3c-2.6,0,10.8,8.2-9.8,17.1c-10.6,4.6-18.6,4.3-34.5,10.8C160,303.5,141.4,306,114.8,305.9z"/>
<path d="M302.6,236.9c8.8-0.1,19.7-0.4,24.7-1.8c4.7-1.3,1-2.8,0-5.4c-1.2-3.1,3.2-3.5,5-7.2c2.8-5.9-7.3-7.4-5-13.5
	c0.9-2.4,3.3-4.3,5-5.4c16.9,4.6,20.1,8.2,19.7,10.8c-0.4,2.4-4.1,3.7-5,8.1c-0.8,4,2,4.6,0,6.3
	C344.3,231.1,334.4,234.1,302.6,236.9z"/>
<path d="M411.1,230c-1.2-1.2-2.2-3.2,0-5.4c3.1-3.2,9.4-3.5,14.8-7.2c5.6-3.8,5-7.7,5-8.1c-0.4-2.1-2-3.5,0-3.6
	c2.9-0.2,10.4,2.6,14.8,4.5c6.2,2.8,10.9,4.8,9.8,7.2c-2.3,5.3-32.5,9.3-34.5,9c-1.8-0.3,14.4-4.5,14.8-4.5
	C436,221.9,427.5,224.7,411.1,230z"/>
<path d="M761.9,251.2c-0.9-2.2-0.2-5.3,9.8-8.1c11.5-3.2,24.4-2.8,39.5-6.3c9.7-2.2,13-4.5,19.7-9c3.1-2.1,4.6-3.6,9.8-9.9
	c7.5-9,8.6-10.8,9.8-10.8c4.4,0-0.2,22.4,5,22.4c2.5,0,6.4-5.3,5-5.4c-1.6-0.1-2.1,6.3-24.7,12.6c-18.1,5-35.1,5.7-44.4,9.9
	c-1.4,0.6-5.1,2.5-14.8,3.6C771.2,250.9,765.7,251.1,761.9,251.2z"/>
<path d="M344.6,157.1c-0.7-0.1-0.5,1.9-1.8,3.9c-4.5,6.9-23.4,9.9-24.8,9.5c-1.2-0.3,8.3-3.5,7.4-3.7c-1.5-0.4-32.5,8.3-26.2,10.3
	c3.6,1.1,17.6-0.4,18.2-0.2c1,0.4-43.7,4.1-43.8,4.1c69.9-6.6,74.1-13.5,74.1-13.5C350.5,163.1,345.8,157.3,344.6,157.1z"/>
<path d="M213,20.1c-3.3,0.6-6.6,1.2-9.8,1.8c20.6-6.8,69.7-15.2,93.7-14.4c6.7,0.1,18.3,0.6,19.7,1.8c1.3,1.1-7.1,2.3-9.8,2.7
	c-9.1,1.3-16.9,1.3-24.7,1.8c-26.9,1.6-27.8,6.7-49.3,7.2C228.5,21.1,221.9,21,213,20.1z"/>
<path d="M17.4,69.8c-0.2,0.1-0.7-0.1-0.5-0.2c4.8-3.2,19.8-8.3,31.3-2.7c5.2,2.6,6,5.4,9.3,6.3c6.8,1.8,6.9-10.1,10.8-8.6
	c1.2,0.4,2.1,1.9,2.3,2.2c4.5,7.4-17.2,12.7-35.1,4.1C27,66.4,20.4,68.4,17.4,69.8z"/>
<path d="M138.5,106.4c4.2-2.1,5-2.7,14.8-5.4c9.7-2.5,24.7-4.5,24.7-4.5c32-4.3,79.7-15.8,83.8-15.2c2.7,0.4-12.3,6.1-39.5,10.8
	c-17.7,3.1-27.9,3.6-49.3,7.2C156.7,102,145.4,104.6,138.5,106.4z"/>
<path d="M90.6,139.1c0.2,0,15.2-5.2,5-9.9c-4.7-2.1-12.2-3.1-9.8-4.5c2.4-1.5,11.8-1.4,24.7-3.6c0.7-0.1,8.8-1.5,14.8-3.6
	c10.7-3.7,7.6-7.2,9.8-7.2c3.5,0,7.3,8.1,9.8,8.1c2.2,0,4.5-6.1,0-6.3c-8.4-0.3-36.1,19.9-39.5,19.7c-1.8-0.1,5.6-6.3,5-6.3
	C109.3,125.6,90.5,139.1,90.6,139.1z"/>
<path d="M504.3,210.8C503,210.6,538,202,538,202l0,0c40.9-8.3,42.5-10.5,42.5-10.5c1.9-2.6-9.2-2.4-10.4-6.5
	c-1.3-5.6,15.1-10.5,29.5-13.9c9.5-2.3,11.2-2.2,12.8-3.1c5.3-2.8-11.6-3.7-17.3-8.6c-1.9-1.7-3.9-3.4,0.5-5.6
	c9.1-4.6,40.6-8.6,50.1-7.5c9.7,1.1-5.5,7.1,0.9,7.4c8.2,0.4,40.2-9,38.5-9.2c-1.1-0.5-63.1,14.6-71.5,18.8c-10,5,2.8,6.4-6.4,10.8
	c-7.8,3.8-20.6,4.5-24.2,7.9c-2.7,2.5,2.7,3.6,4.3,5.2C595,195,506.2,211.1,504.3,210.8z"/>
<path d="M760,292.7c-6.8-1.7-9.1-3.8-5-5.4c8.9-3.4,42.5-2.8,44.4-1.8c1.2,0.6-9.6,1.9-9.8,1.8c-0.4-0.1,13.5-2,54.2-9
	c14.5-2.5,25.7-4.4,44.4-5.4c3.4-0.2,21.1-1.1,24.7,0c4.3,1.3-14.8,5-29.6,7.2c-24.8,3.7-53,5.6-64.1,6.3
	C801.4,287.3,774.6,289.3,760,292.7z"/>
<path d="M332.2,272.8L332.2,272.8L332.2,272.8c8.4-1.3,19.8-3.3,29.6-6.3c12.2-3.7,7.9-4.7,24.7-15.2c7.9-5,11.3-6.3,9.8-9
	c-1.9-3.4-9.9-5.5-5-6.3s20.5,0.1,24.7,1.8c4.6,1.9-8.8,3.3-9.8,7.2c-0.5,1.8,2.2,1.6,5,5.4c2.7,3.7,4,5.5,0,7.2
	c-6,2.5-15.1,1.7-24.7,4.5c-9.1,2.7-4.2,4.4-14.8,7.2c-5,1.3-10.8,2.2-14.8,2.7c-26.3,3.3-52.6,6.6-78.9,9.9
	c13.2-2.7,26.3-5.4,39.5-8.1"/>
<path d="M358.3,126.9c-0.4-0.3,5.7-0.1,13.8-0.9c14.5-1.3,32.7-9.4,50.5-6.6c10.6,1.4,13.3,4,25.9,5.5c9.1,1.1,13,0.5,21.1,2.5
	c5.4,1.3,10.4,3.3,10,3.7c-0.4,0.5-7.5-1.3-19.2-3.1c-12.6-1.9-13.2-1.1-26.4-3.1c-12.7-1.9-13.9-2.8-19.2-3.1
	c-13-0.6-16.6,4.5-15.6,4.9c0.7,0.2,6.3-1.6,5.9-1.8c-0.4-0.2-6.1,1.5-15,2.4C375.8,128.6,359,127.3,358.3,126.9z"/>
<path d="M480.2,148.6c7.1-2.7,20.6-8.5,24.7-11.7c5.3-4.1,3.8-7.2,5-7.2c1.6,0,3.5,7.2,5,7.2c1.1,0,4.3-3.7,5-8.1
	c0.2-1.1,0.2-2.4,5-3.6c2.8-0.7,6-1.1,14.8-1.8c19.8-1.7,34.8-2.5,34.5-2.7c-0.2-0.1-3.5-0.1-5,0c-22.9,0.7-39.5,12.6-39.5,12.6
	s2.9-2.6,14.8-5.4c27.5-6.4-8.2,6.5-34.5,13.5C498.3,144.5,487.8,147,480.2,148.6z"/>
<path d="M819.2,112.5c1.6-0.6,3.3-1.2,5-1.8c7-3.2,14.3-5.6,19.7-7.2c11.2-3.4,16.2-3.9,19.7-6.3c4.6-3.1-1.5-3.8,5-6.3
	c6.2-2,18.9-4.4,34.5-7.2c11.5-1.9,17.6-2.9,19.7-2.7c3.1,0.4-3.3,3.3-9.8,5.4c-7.8,2.5-22.1,5.1-29.6,6.3
	c-22.2,3.7-27.4,11.5-24.7,11.7c2,0.1,11.3-3.4,9.8-3.6C866.9,100.6,852,104.1,819.2,112.5z"/>
<path d="M731.4,142.7c-1.9-0.3-1.4-0.9-0.8-1.4c-0.2-1.1,0.4-2.6,5.7-3.9c5.7-1.4,11.4-1.2,19.7-2.7c11.1-2,13.1-4.6,14.8-4.5
	s-1.3,2.6,0,2.7c1.5,0.1,3.3-3.4,14.8-4.5c8.8-0.8,22.8-0.2,24.7,0.9c4.1,2.5-55.2,7.8-54.2,8.1c0.7,0.2,31.6-3.4,34.5-2.7
	c2.9,0.7-25.9,5-44.4,7.2C741.4,142.3,734.4,143.1,731.4,142.7z"/>
<path d="M1042.5,325.8c8.4-2.6,5-4.8,0-7.2c-3.7-1.8-6.5-2.3-5-2.7c2.6-0.7,11.7,0.6,24.7,0c8-0.4,7.7-1,19.7-1.8
	c9.7-0.6,11.9-0.4,14.8-0.9c5.7-1.1,0.6-2.8,0-5.4c-0.6-2.6,3.6-4.4,9.8-7.2c3.2-1.4,10-4.3,24.7-7.2c6.6-1.3,12.6-2,24.7-3.6
	c6.3-0.8,8.8-1.1,9.8-0.9c2.9,0.4-6.6,3.5-9.8,4.5c-4.2,1.3-6.3,2-9.8,2.7c-8.8,1.7-14.4,1.4-19.7,2.7c-4.7,1.1-2.9,1.9-5,4.5
	c-3.4,4.3-12.1,7-9.8,7.2c0.9,0.1,2.6-0.4,9.8-1.8c7-1.3,10-1.8,9.8-1.8c-0.9-0.2-78.1,10.5-73.9,11.7c2,0.6,21.9-1.6,24.7-0.9
	C1084.8,318.4,1066.7,321.8,1042.5,325.8z"/>
<path d="M251.7,328.8c1.4,0,3-1.7,5-4.5c0-1.5,0-3,0-4.5c18.1,0.4,30.4-0.2,40.9-1c19.7-4.7,37-8.5,23.2-4.4
	c-0.5-0.1,6.6-4.4,24.7-8.1c8.8-1.8,16.8-2.7,24.7-3.6c11.5-1.3,21.9-2.5,29.6-1.8c5.9,0.5,6.1,1.8,9.8,1.8c6,0,13.1-3.1,9.8-3.6
	c-4.7-0.7-34.5,3.8-54.2,9c-9.3,2.5-9.5,3.3-19.7,5.4c-14.7,3-22.2,3-29.6,5.4c-6,2.4-36.4,8.5-39.5,3.6c-9.3,1.3-20,2.3-34.5,1.8
	c2.2-3.8,3.8-5.4,5-5.4C249.6,319,248.5,328.8,251.7,328.8z"/>
<path d="M726.8,229.6c4.6-4.6,9.7-6.2,14.8-6.3c3.6-0.1,4.8,0.7,9.8,0.9c8,0.2,13.3-1.5,29.6-4.5c12.7-2.3,16.6-2.5,24.7-4.5
	c4-1,12.4-3,9.8-3.6c-0.9-0.2-4.2-0.4-34.5,2.7c-25.8,2.6-38.7,4-44.4,5.4C723.5,223,724.6,227.2,726.8,229.6z"/>
<path d="M1017.4,141.8c23.3-3.7,36.5-7.3,44.4-9.9c9.8-3.3,13.6-5.8,29.6-8.1c6.4-0.9,10-1.1,34.5-2.7c57.7-3.8,64.3-4.7,64.1-5.4
	c-0.3-0.9-11.2-1.6-19.7-1.8c-12.4-0.3-22.7,0.6-59.2,5.4c-40.6,5.4-50.4,7.3-54.2,8.1c-7.2,1.5-16.3,3.3-24.7,6.3
	C1023.1,136.9,1019.2,139.8,1017.4,141.8z"/>
<path d="M1017.4,81.6c18.6-1.3,27.1-4.7,29.6-8.1c10.8-9.7,14.6-8.9,14.8-12.6c0.2-2,0.3-4.7-5-8.1c-5.7-3.7-15-6.3-9.8-7.2
	c2.4-0.4,6.9-0.3,9.8,0c13.3,1.2,12.2,7.1,9.8,7.2c-2.8,0.1-19.9-8.1-5-10.8c9.8-1.7,32.8-1.1,34.5,0c1,0.6-6.2,1.3-5,1.8
	c1.8,0.8,21.4,0.5,24.7-0.9c2.6-1.2-7.2-2.1-5-3.6c2.4-1.5,16.3-2.4,19.7-1.8c2.6,0.5-1.4,1.6,0,1.8c3.8,0.5,37.3-6.7,34.5-7.2
	c-2.9-0.5-53.3,5-73.9,14.4c-7.4,3.3-13.2,8.1-14.8,8.1c-0.4,0-0.2-0.4,0-1.8c0.2-1.8,0.3-2.7,0-2.7c-1.1,0-8.3,7.9-5,8.1
	c2.9,0.1,11.8-5.5,14.8-5.4c1.4,0.1,0.8,1.3,0,2.7c-2.6,4.9-4,7.3-5,8.1c-5.8,4.6-18,7.8-29.6,10.8
	C1044.4,76.4,1033.2,79,1017.4,81.6z"/>
<path d="M1230.3,41.2c4.7,0.1,11.6,0.2,19.7,0c3.5-0.1,18-0.5,39.5-3.6c8.5-1.2,19.4-2.7,29.6-5.4c9.9-2.4,20.3-6.7,34.5-6.3
	c4.8,0.2,10,1,9.8,1.8c-0.2,0.7-4.1,0.9-14.8,2.7c-8.5,1.7-16,2.3-24.7,3.6c-7.5,1.1-9.3,1.9-9.8,1.8c-2.1-0.3,22-11.3,64.1-13.5
	c1.8-0.1,16.9-0.9,19.7,0c1.7,0.5-2.1,1.4-9.8,3.6c-10.4,3-7.8,2.6-14.8,4.5c-17.4,5-31.8,7-64.1,9
	C1284.2,41.2,1262.6,42,1230.3,41.2z"/>
<path d="M1480.7,81.6c-2.3-1.2-4.2-2.9,0-4.5c2.1-0.8,4.4-1,14.8-2.7c10.9-1.8,16.2-2.7,19.7-3.6c3.3-0.9,9-2.4,9.8-4.5
	c0.6-1.5-1.6-2.6,0-2.7c2.6-0.2,7.2,3,19.7,3.6c7.7,0.4,13.2-0.4,14.8,0c2.3,0.6-6.6,3-19.7,4.5c-17.1,2-27,0.9-34.5,2.7
	c-7.1,1.7-1.2,3.4-9.8,5.4C1490.8,80.9,1484.8,81.4,1480.7,81.6z"/>
<path d="M1401.9,17c-1.6-0.3-3.3-0.6-5-0.9c-3.2-1.8-5-2.7-5-2.7l0,0c0,0-3.8-2.2-9.8-3.6c-6-1.4-10.4-1.1-29.6-3.6
	c-8.7-1.1-10.1-1.4-9.8-1.8c0.6-1,13.8-1.4,24.7-1.8c10.6-0.4,15.9-0.5,19.7,0c5.7,0.8,5.2,2.5,5,3.6c-0.5,1.8-3.6,2.6-5,3.6
	C1385.1,11.3,1386.4,13.6,1401.9,17z"/>
<path d="M1110.3,15c1.2-0.3,2.4-0.7,3.6-1c2.9-0.7,8.1-1.8,16.1-2.6c17.6-1.6,27.5,0.4,49.3-0.9c10.2-0.6,6.3-0.9,34.5-3.6
	c10.8-1,14.8-1.3,14.8-1.8c-0.2-1.2-22.5-3-39.5-1.8c-7.6,0.5-9.1,1.3-29.6,3.6c-1.1,0.1-9.4,1-9.8,0.9c-0.7-0.2,16.3-1.9,14.8-2.7
	c-2.2-1.1-43.6-0.2-49.3,2.7c-1.1,0.5-1.3,1.4-5,2.7c-2.6,0.9-4.3,1.2-5,1.8C1104.7,13,1105.5,13.9,1110.3,15z"/>
<path d="M632.9,68.2c9.8-2.4,15.9-4.7,19.7-6.3c12.2-5,11.9-6.5,5-12.6c-3.8-3.5-4.6-3.3-5-4.5c-0.2-0.5-0.8-3.8,9.8-7.2
	c3.9-1.2,7.7-2.4,14.8-2.7c6.3-0.3,14,0.2,14.8,0.9c0.7,0.7-5.9,1-14.8,2.7c-9.4,1.7-19.5,4.5-14.8,8.1c1.5,1.1,3.3,1.3,9.8,3.6
	c11,3.8,13.1,4.5,5,8.1c-1.9,0.9-6.2,2.6-14.8,4.5C660.4,63.3,637.4,67.3,632.9,68.2z"/>
<path d="M790.6,58.3c-1.7-0.2-3.8-0.4-5-0.9c-1.6-0.6,0-1.2,0-1.8c0-1.1-4.8-1.4-9.8-2.7c-6.4-1.6-7.8-3.2-9.8-5.4
	c-1-1-2.3-2.5,0-2.7c2.2-0.2,7.1,0.9,9.8,1.8c10.3,3.2,4.4,7.2,5,7.2c0.5,0,3-4.5,5-4.5C787.2,49.3,788.8,51.9,790.6,58.3z"/>
<path d="M966.2,80.6c6.1-5.4,14-11.7,5-18.8c-0.3-0.2-1.8-1.9-5-5.4c-0.9-1-1.4-1.7,0-1.8c2.6-0.2,10.3,1.4,14.8,2.7
	c6.9,1.8,16.2,6.8,9.8,9.9c-3.6,1.9-9,2-9.8,3.6c-0.8,1.6,4.1,2.1,5,3.6c0.7,1.2-1.4,3-14.8,5.4C969.5,80,967.9,80.3,966.2,80.6z"/>
<path d="M854.7,198.3c2.7-3.7,9.1-4.9,14.8-5.4c7.4-0.6,16.3,0.1,19.7-0.9c2-0.6,0.8-1.3,0-1.8c-3.5-2.1-13.6-2.2-14.8-3.6
	c-1.2-1.4,7.5-2.9,14.8-3.6c12-1.1,17.8,0.2,29.6-0.9c10-1,10-2.3,19.7-2.7c6.5-0.2,8.6,0.3,14.8,0c10.2-0.5,15.2-2.6,14.8-2.7
	c-0.7-0.1-22.8,3.8-39.5,7.2c-3.3,0.7-7.8,1.6-14.8,1.8c-9.8,0.2-17.1-1.3-19.7-0.9c-2.6,0.4,5,1.7,5,3.6c0,1.1-2.8,2.1-24.7,6.3
	C866.5,196.2,859.8,197.4,854.7,198.3z"/>
<path d="M1130.7,105.9c-6,1.2-15.7,2.7-29.6,3.6c-14.8,0.9-19.8,0.2-34.5,0.9c-13.9,0.7-13.2,1.5-44.4,5.4
	c-17.1,2.1-15.2,1.6-39.5,4.5c-14.1,1.7-23.6,2.9-24.7,2.7c-1-0.2,6.8-1.3,14.8-3.6c11.2-3.2,7.2-4.1,14.8-5.4
	c12.3-2.1,23.6,0.3,44.4-1.8c5.8-0.6,9.3-1.2,29.6-3.6c2.7-0.3,5.6-0.6,9.8-0.9c10.2-0.6,18.3-0.1,24.7,0
	C1104.1,107.8,1115.5,107.6,1130.7,105.9z"/>
<path d="M232.1,270.1c-29-3.2-24.6-8.2,0-9.9c14.4-1.1,22.4,0.3,29.6-0.9c9.1-1.5,1.4-4.5,9.8-5.4c6.2-0.6,12.6,0.8,19.7,0
	c4.3-0.5,3.4-1.1,9.8-2.7c5-1.2,9.7-1.8,9.8-1.8c0.3,0.1-25.1,2.8-29.6,7.2c-0.8,1.2-5.9,5.5-14.8,6.3c-3.6,0.3-9,0.2-19.7,0
	c-8.6-0.2-11.7-0.4-14.8,0C222.4,264.2,227.8,268.9,232.1,270.1z"/>
<path d="M213.9,229.7c10.3-2.2,11.2-3.6,9.8-4.5c-0.9-0.6-2.3-0.7-5-1.8c-3.8-1.6-2.4-2.1-5-3.6c-4-2.3-9.7-2.3-9.8-3.6
	c-0.2-2.1,13.2-3.8,14.8-3.6c1.4,0.2-7.3,1.7-5,3.6c1.4,1.1,5.6,1.3,9.8,2.7C236.3,223.1,222.6,228.1,213.9,229.7z"/>
<path d="M31.4,284.3c12.7-1.6,20.4-3.3,24.7-4.5c6.8-1.8,15.6-4.2,14.8-7.2c-0.6-2.2-6-2.8-5-5.4c0.5-1.3,2.2-2.2,5-3.6
	c1.3-0.7,8.8-4.6,14.8-4.5c2.6,0.1,3.1,0.9,5,0.9c3.9-0.1,8.1-4.3,5-4.5c-5-0.3-31.4,9.3-19.7,12.6c0.9,0.2,3.4,0.9,5,1.8
	c2.4,1.4,1.1,2.7,0,3.6c-5,4.1-8,6.5-19.7,9C56.9,283.4,38.4,287,31.4,284.3z"/>
<path d="M22,203.5c5.4,1.7,12.4,3.6,16.2,2.8c2.7-0.6,2.1-2.2,2.6-4.2c1.6-6.5,13.5-9.7,16.8-8.6c2,0.7,1.6,3.3,2.2,3.4
	c0.9,0.2-2.4-7.1,5.1-8.4c2.4-0.4,4.7-0.1,13.9,1.3c18.4,2.8,27.5,4.2,27.8,4.5c1.1,1.6-39.7-0.5-39.7-0.6c0,0,3.1,0.2,9.3,0.2
	c8.1,0.2,8.9,0,9.3,0.2c2.1,1.2-11.9,5.4-31,11C46,208.3,35.2,209.4,22,203.5z"/>
<path d="M199.1,114.9c3-0.8,6.9-2,9.8-3.6c3.5-1.5,6.9-9.6,9.8-10.8c3.6-1.8,6.2-1.9,14.8-5.4c2.7-1.1,4.3-1.8,5-1.8
	c1.1,0.1-2.1,2.1-5,5.4c-2.8,3.2-1.9,3.7-5,6.3c-2.4,2-3,1.8-5,3.6c-3.6,3.4-1.1,3.7-5,5.4c-4,1.7-8.2,1.9-9.8,3.6
	c-1.5,1.5,0.7,2.7,0,2.7C208.3,120.3,206.1,119.3,199.1,114.9z"/>
<path d="M302.6,74.5c9.4-0.9,13.2-1.9,14.8-2.7c3-1.5-0.2-2.7,5-3.6c3.5-0.6,6.2-0.3,9.8-0.9c4.5-0.8,2.8-1.8,5-3.6
	c1.8-1.5,6.4-3.6,9.8-3.6c3.5,0.1,7.4,2.3,5,4.5c-3.1,2.6-15.2,4.4-14.8,4.5c0.3,0.1,5-0.9,5-0.9C335.3,69.5,317.6,72.7,302.6,74.5z
	"/>
<path d="M382.6,64.2c1.2-3.1,7.3-6.7,24.7-9.9c6.4-1.2,8.8-1.2,19.7-2.7c18.9-2.5,22.9-3.8,39.5-5.4c4.6-0.4,13.3-1.2,14.8-0.9
	c2.5,0.6-16.9,4-19.7,4.5c-9.4,1.7-15.1,2.7-24.7,3.6c-11.1,1.1-14.4,0.8-19.7,1.8c-7.1,1.3-5.4,2.6-9.8,4.5
	C404,61.1,397.5,62.8,382.6,64.2z"/>
<path d="M130.6,71.1c0.3-0.6,0.5-1.6,0-2.7c-1.1-2.3-4.2-2.9-5-4.5c-1.3-2.9,7.3-5.5,9.8-5.4c2.4,0.1,0.2,2.4,5,2.7
	c3.8,0.3,9.5-1,9.8-0.9c0.4,0.1-11.3,1.4-14.8,3.6c-3.5,2.1,2.4,4.5,5,4.5c0.6,0,1.1-0.2,5-2.7c2.9-1.9,3.3-2.2,5-2.7
	c3.5-1,6.2-0.9,9.8-1.8c6.2-1.4,6.4-3.5,5-3.6C163.4,57.5,156.2,59.8,130.6,71.1z"/>
<path d="M18.3,47.7c-3.2-0.6,1.7-1.5,5-0.9c-1.6-1.5-3.3-3-5-4.5c5.8-3,8.5-3.6,9.8-3.6c2.7,0.1-1.1,3.1,5,3.6
	c4.3,0.4,14.2-0.4,14.8-1.8c0.5-1-4.4-1.7-5-1.8c-26.2-3.1-25.2-4.2-24.7-4.5c1.4-0.7,8.9-0.3,39.5-0.9c5.2-0.1,13.6-0.3,24.7,0
	c5.6,0.2,14.4,0.4,14.8,0.9c0.3,0.4-5.5,1.2-34.5,2.7c9.3-0.8,3.8-1.6-5-1.8C47,35,37.2,36.7,38.1,37c0.6,0.3,7.3-0.4,9.8,0
	c4.2,0.5-4.1,3.7-19.7,8.1c2.3,0.7,51.1-2.9,49.3-4.5c-0.4-0.4-4.1-0.7-14.8-0.9L18.3,47.7z"/>
<path d="M1199.8,85.2c-15.1-3.3-19-6.1-19.7-8.1c-0.9-2.3,2.7-3.1,0-5.4c-4.1-3.6-15-3.9-14.8-6.3c0.2-2.2,10.1-3.9,24.7-6.3
	c11.8-1.9,22.4-3,35.3-4.2c12.7-1.2,27.7-2.4,28.7-2.1c1.5,0.5-27.2,3.5-24.7,4.5c1.5,0.6,13.6,0.1,14.8,0
	c19.9-0.9,36.5-3.9,34.5-4.5c-3-0.9-49.7,2.8-69,7.2c-9.1,2.1-14.8,4.5-14.8,4.5c-8.6,3.5-5.6,4.4,0,9c3.5,3.2,4.3,5.4,5,5.4
	c0.6,0,0.2-1.8,0-1.8C1199.6,77.1,1199.6,80.1,1199.8,85.2z"/>
<path d="M1682.8,6c27.8,1.1,50.5,1.2,64.1,1.1c10.6-0.1,19.1-0.1,29.6-0.6c6.4-0.2,42.1-3,54.2-3.4c2.9-0.1,24.3-0.7,39.5,0.6
	c14.7,1.2,12.9,3.4,19.7,3.4c5,0,10.8-1.2,9.8-2.2c-1.1-1.2-11-2-14.8-2.2c-21.9-1.6-51.4-0.7-73.9,0c-26.8,0.9-30,1.6-54.2,2.2
	c-22.2,0.6-41.5,0.6-54.2,0.6L1682.8,6z"/>
<path d="M811.9,43.5c-3.2-4.3-6.3-8.9-5-9c1.2,0,7.2,3.4,5,3.6c-2.8,0.2-23-4.3-19.7-9c1-1.4,4.3-3.5,9.8-3.6
	c8.8-0.2,13.4,5,29.6,5.4c9.7,0.2,17-1.4,19.7-0.9c2.1,0.4-1.6,1.5-9.8,4.5C829.1,39.3,825.9,40.6,811.9,43.5z"/>
<path d="M804.1,279.1c-0.5-0.1,0-0.5,5-1.8c7.4-0.6,17.2-1.7,24.7-3.6c5.7-1.5,5-2.2,9.8-3.6c7.6-2.2,16.7-2.6,34.5-4.5
	c19.5-2.1,30.1-3.2,39.5-5.4c12-2.7,8.6-4.1,24.7-8.1c7-1.7,17.4-3.9,19.7-3.6c1.8,0.2-2.4,1.7-9.8,5.4c-10.5,5.2-8.8,5.6-14.8,7.2
	c-9.8,2.8-48.9,6.7-64.1,8.1C830.4,273.4,806.6,279.5,804.1,279.1z"/>
<path d="M828.8,113.6c27.5-0.7,46.6-2.3,59.2-3.6c15.6-1.7,29.9-3.9,49.3-3.6c4.5,0.1,8.6,0.3,14.8,0c7.2-0.3,12.9-1.1,24.7-3.6
	c13.8-3,25.6-6.2,24.7-6.3c-0.8-0.1-9,1.9-9.8,1.8c-2-0.3,37.9-11.8,39.5-11.7c1.7,0.2-26,16.8-98.6,23.3
	c-27.2,2.5-64.9,3.9-64.1,4.5c0.4,0.3,10.5,0.1,14.8,0c12.1-0.3,25.1-1.3,24.7-1.8C907.2,112.2,889.2,112.2,828.8,113.6z"/>
<path d="M1047,59.2"/>
<path d="M1273.7,61c24.9,2.7,40,2.5,49.3,1.8c7.5-0.6,8.8-1.3,29.6-4.5c16-2.5,16.6-2.2,24.7-3.6c16.5-2.8,34-7.1,29.6-8.1
	c-4.6-1-31,1.8-39.5,2.7c-17,1.8-31.1,3.3-39.5,6.3c-6.3,2.3-3.4,3.3-9.8,4.5C1308,62,1289.1,61.7,1273.7,61z"/>
<path d="M761.3,16.7c19.7-4.9,31.8-5.7,39.5-5.4c5.8,0.2,9.3,1.2,14.8,0.9c6.6-0.3,11.7-2.2,9.8-3.6c-1.4-1.1-5.9-1.4-5-1.8
	c1.9-0.8,21.2-0.1,24.7,0c13.9,0.5,14.4,1.1,19.7,0.9c11.8-0.4,12.1-3.1,24.7-4.5c8.1-0.9,15.6-0.6,39.5,0
	C981.1,4.6,993.1,4.7,993,5c-0.2,0.5-39.1,0.5-39.5,0c-0.3-0.5,40.5-1.5,73.9-1.8c24.5-0.2,33,0.1,34.5,0.9c1.6,0.8-5,2.1-9.8,2.7
	c-7.3,0.9-13.6,0.9-49.3,0.9c-19.5,0-29.3,0-29.6,0c-10.5,0.1-13.6,0.3-19.7,0c-7.1-0.4-8.1-0.9-19.7-1.8C926.6,5.3,923,5,919,5
	c-10.6-0.1-19,1-24.7,1.8c-3.4,0.5-6.9,0.9-9.8,1.8c-3.3,1-2.6,1.4-5,1.8c-5.2,0.8-14.3-0.7-24.7-0.9c-20.1-0.4-28.7,4.2-59.2,6.3
	C788.2,16.3,776.9,16.8,761.3,16.7z"/>
<path d="M1918.5,344.1c-44.7-3.8-45.2-1.1-78.4-0.3c-3.8,0.1-53.9-0.3-56-0.2c-17.4,0.1-19,0.5-34.9,0.6c-22,0.3-52.5-0.1-54.7-1
	c-1.6-0.7,12.5-1.9,26.2-2.3c19.4-0.5,24.2,0.8,39.2,0.2c19.2-0.8,15.8-3.3,33.1-3c11.2,0.2,13.7,1.2,31,1.7
	c13.5,0.4,12.9-0.2,28,0.1C1879,340.5,1896,342,1918.5,344.1z"/>
<path d="M292.7,24.2c9,0.2,22.2,0.3,34.5-0.9c10.3-1,10.2-2,24.7-4.5c6.2-1.1,7.1-1,34.5-4.5c23.2-2.9,28.7-3.8,29.6-3.6
	c1.6,0.3-13.7,3.8-29.6,6.3C370.6,19.5,341.9,22.9,292.7,24.2z"/>
<path d="M307.5,5.3c-19-2.1,23.6-1.2,39.5,1.8c13,2.2,17.9,5.5,19.7,5.4c0.6-0.1-0.2-0.4,0-0.9c0.9-1.8,14.1-2.4,14.8-3.6
	c0.3-0.5-1.9-1.4-14.8-2.7H307.5z"/>
<path d="M558.9,16.1c11.3-2.9,16.8-5.4,19.7-7.2c2.6-1.6,3.6-2.8,9.8-3.6c6.9-0.9,12.2-0.2,24.7-0.9c12.7-0.7,17.8-2.1,19.7-1.8
	c2.6,0.4-4.2,3.1-14.8,5.4c-18.2,3.9-43.5,5.6-44.4,5.4c-0.8-0.2,19.3-2.8,19.7-2.7C593.8,10.8,581.7,12.7,558.9,16.1z"/>
<path d="M234.9,193.2c-2.4-0.4-6-0.8-10.5-0.5c-10.2,0.5-16.6,3.8-27.4,7c-2.9,0.9-14.2,4.1-26.6,5.4c-24.6,2.1-49.1-2.1-19.8-9.5
	c6.6-1.6,10.7-1.5,25.1-2C199.4,192.3,206.2,191.8,234.9,193.2z"/>
<path d="M16.7,350c27.4-7.7,34.8-9.8,34.5-9.9c-0.5-0.1-16,4.8-19.7,4.5c-5.1-0.4,12.2-11,24.7-10.8c8,0.1,11.9,4.6,14.8,4.5
	c4.6-0.8-4.7-6.5-9.8-6.3C53.6,334.3,82.9,349.8,16.7,350z"/>
<path d="M75.8,323.1c4.1-0.7,9.8-1.9,14.8-3.6c10-3.3,10-6.2,14.8-6.3c4.8-0.1,9.4,2.7,9.8,2.7c0.4-0.2-24.8-10.4,0-6.3
	c11.7,2.3,6.7,7.7-9.8,10.8C95.6,322.2,83.5,322.8,75.8,323.1z"/>
<path d="M11.8,308.7c-7.3-4.9-4.4-7.5,0-9c1.6-0.5,4.9-1.4,5-2.7c0-1.3-3.3-1.8-5-3.6c-0.8-0.9-1.7-2.6,0-2.7
	c3-0.2,18.7,4.8,14.8,9.9C24,303.5,17.2,306.7,11.8,308.7z"/>
<path d="M1696.8,101.2c-6.2-0.1-19.5-8.4,0-14.4c20.7-6.3,58.7-4,78.9-10.8c9.4-3.2,4.5-4.8,19.7-9.9c30.1-10.2,41.6-7.1,34.5,3.6
	c-3,4-6,8.2-24.7,11.7c-5.6,1-21.3,3.9-44.4,4.5c-11.6,0.3-20.2-0.2-24.7,0.9c-5.7,1.4,4.4,3,0,5.4c-3.7,2-12.4,1.8-24.7,4.5
	C1700,99.3,1699.9,101.3,1696.8,101.2z"/>
<path d="M1189,255.7c25.5,6.7,62.8,14.2,100.9,11.4c52.8-3.9,88.9-26.1,96.1-24.4c3.6,0.9-9.8,6-4.8,11.4c6.6,7.1,43,12.2,72.1,9.8
	c35.5-3,46.9-16.1,57.7-14.6c9.4,1.3,11.2,12.5-4.8,19.5c-19.3,8.5-60.7,8.8-86.5,4.9c-20.2-3-21.2-7.2-38.4-8.1
	c-23.6-1.3-38.8,5.4-57.7,8.1C1300.1,277,1260.4,275.6,1189,255.7z"/>
<path d="M1472.6,169.5c20.9-0.3,79.5-1.9,105.7-14.6c3.9-1.9,15-7.3,9.6-11.4c-5.8-4.4-28-5.5-28.8-4.9c-1.2,1,41.4,11.1,91.3,13
	c4.9,0.2,27.3-0.4,72.1-1.6c25.6-0.7,51.7,0,76.9-1.6c14.6-0.9,24.9-2,33.6,0c10.6,2.5,15.9,8.9,9.6,13
	c-12.7,8.4-72.5,6.2-105.7,4.9c-67.4-2.6-81.8-8.4-125-9.8C1579.8,155.5,1532.9,157.1,1472.6,169.5z"/>
<path d="M1751.4,63.8c0-6,2.9-15.4,19.2-24.4c5.5-3.1,11-5.2,14.4-6.5c15.1-5.8,30.7-11.8,48.1-11.4c14.9,0.4,18.1,5.2,33.6,4.9
	c13.2-0.2,17.5-4,24-3.3c13.6,1.6,4.8,19.3,9.6,19.5c2.4,0.1,7.4-4.3,4.8-4.9c-2.9-0.7-10.9,4.4-28.8,6.5c-2.7,0.3-18.1,2.1-33.6,0
	c-13.7-1.9-15.9-5-24-4.9c-9.9,0.2-14.9,4.9-24,9.8C1787,53.3,1774,58.7,1751.4,63.8z"/>
<path d="M1890.7,189c-11.4-1.1-18.6,7.2-48.1,11.4c-21.4,3-41.8,2-48.1,1.6c-27.9-1.5-31.6-6.4-72.1-11.4
	c-18.4-2.2-35.2-4.2-43.3-1.6c-8.8,2.9-1.8,9.6,0,11.4c1.2,1.2,8.6,8,28.8,11.4c13.6,2.3,18.2,0.6,43.3,1.6
	c33.7,1.4,36.1,4.9,62.5,4.9c20,0,34.9-2.1,43.3-3.3c18-2.5,36.7-5.2,43.3-11.4C1906.5,197.9,1900.9,190.1,1890.7,189z"/>
<path d="M424.9,257.3c34.8-8.8,40.9-12.8,38.4-14.6c-2.6-1.9-13.8-1.5-19.2-4.9c-3.3-2.1-2.3-4.3-1.4-6.1c1-2,4.1-5.9,15.8-10.1
	c30.1-10.8,90.4-14,91.3-13c0.3,0.3-6.7,0.7-14.4,3.3c-8.8,3-7.9,5.4-14.4,8.1c-10.4,4.4-28.6,5.1-28.8,4.9
	c-0.4-0.4,61.1-11,67.3-8.1c6.9,3.2-53.7,24.6-72.1,21.1c-7.3-1.4-4.2-5.9-9.6-6.5C471.8,230.6,458.3,234.9,424.9,257.3z"/>
<path d="M1068.9,228.1c8.2-2.3,24.5-6.3,48.1-8.1c31.5-2.5,57.2,0.3,67.3,1.6c-13.6,0.3-28.6,0.5-28.8,0
	c-0.5-1.4,104.5-8.2,105.7-6.5c0.6,0.9-26.4,4.6-28.8,3.3c-2.8-1.5,28.2-9.4,43.3-13c15.7-3.7,33.8-8,38.4-6.5
	c4.5,1.4-5.7,7.4-9.6,9.8c-5.7,3.4-16.2,9.6-33.6,13c-22.6,4.4-48.3,2.5-62.5,1.6C1177.4,221.4,1132,221.1,1068.9,228.1z"/>
<path d="M934.3,120.8c11.2,4.7,25.2,9,38.4,8.1c13.7-0.9,21.6-7,24-6.5c3.2,0.6-18.4,10.1-9.6,16.3c7.2,5.1,34.3,7.5,52.9,4.9
	c15.4-2.2,13.5-6.2,33.6-11.4c3-0.8,32.9-8.5,48.1-4.9c8.9,2.1,11.2,7.9,4.8,11.4c-4.6,2.5-12.7,3.3-28.8,4.9c-9.2,0.9-14,1-24,1.6
	c-24.3,1.5-25.2,2.6-38.4,3.3c-23.6,1.1-43-1.4-57.7-3.3c-16.5-2.1-25.9-3.3-33.6-6.5C927.8,132.1,932.9,123,934.3,120.8z"/>
<path d="M1472.6,28.1c18-3.9,32.9-4.8,43.3-4.9c14.2-0.1,18.5,1.3,52.9,3.3c25.3,1.4,32.2,1.2,38.4,0c11.3-2.1,8.1-4.9,19.2-8.1
	c14.8-4.3,36-3.8,62.5-3.3c14.7,0.3,25.5,1.3,28.8,1.6c9.8,0.9,9.2,1.3,14.4,1.6c18,1.2,23.8-3.1,43.3-3.3
	c18.1-0.2,28.5,3.4,33.6,1.6c3-1,3-3.4,0-4.9c-12.5-6.1-81.1,1.9-120.2,9.8c-14.6,2.9-23.4,4.7-33.6,8.1c-14.8,5-17,8.2-28.8,9.8
	c-9.5,1.3-19.3,0.3-38.4-1.6c-51.4-5.3-77.1-7.9-76.9-8.1c0.3-0.4,19.4,0.9,19.2,1.6c-0.2,0.7-17.1,1.2-33.6,0
	C1486.1,30.5,1478,29.2,1472.6,28.1z"/>
<path d="M1040,93.1c-2.3-1.4,21.6-5.5,43.3-13c28.2-9.8,47-23.6,48.1-24.4c4.6-3.4,10-8,24-11.4c10.7-2.6,21-3.1,24-3.3
	c22.8-1,44.2,3.4,43.3,4.9c-1,1.4-22.8-1.1-48.1,3.3c-5,0.9-8.2,1.7-14.4,3.3c-18.4,4.7-36.4,9.3-43.3,16.3c-6.3,6.5,3.6,8.3-4.8,13
	c-4.8,2.7-14.4,4.5-33.6,8.1c-4.2,0.8-13.8,2.6-27.3,3.3C1045.2,93.4,1040.9,93.7,1040,93.1z"/>
<path d="M1342.8,198.8c1.6-1.6,3.2-3.3,4.8-4.9c44.8,2.9,75.7,5.1,96.1,6.5c4.5,0.3,11,0.7,24,1.6c50,3.3,55.4,3.5,62.5,3.3
	c6-0.2,24.8-0.8,43.3-4.9c16.7-3.7,17.1-6.7,33.6-9.8c10.6-2,12.8-1.2,38.4-3.3c41.3-3.3,46-6.2,62.5-4.9
	c13.7,1.1,12.7,3.3,33.6,6.5c21.6,3.3,46.3,4.7,48.1,3.3c2-1.6-26.3-7.2-56.2-13.2c-13.6-2.7-20.3-4-25.5-4.7
	c-32.7-4.5-64-2.5-76.9-1.6c-23.7,1.6-20.6,3.2-72.1,9.8c-29.8,3.8-51.9,6-57.7,6.5c-25.1,2.4-44.1,3.7-62.5,4.9
	C1414.1,195.5,1381.6,197.4,1342.8,198.8z"/>
<path d="M1741.7,94.7c-1.4-1.5,14.7-6.3,33.6-6.5c18.8-0.2,24.2,4.3,38.4,3.3c10.7-0.8,17.3-4.1,28.8-9.8c12.5-6.2,15-9.9,19.2-9.8
	c8.5,0.4,5.5,15.8,14.4,16.3c4.8,0.2,12.1-4,14.4-8.1c3.4-6-5.4-8-4.8-14.6c0.7-7.4,12.5-13.2,14.4-13c2,0.2-5.1,7.2,0,8.1
	c5.1,0.9,16.8-5.4,19.2-4.9c4.4,0.9-26.2,22.6-72.1,37.4c-11.1,3.6-23.8,6.9-38.4,6.5c-9.1-0.3-10.7-1.8-24-3.3
	C1760.5,93.7,1743.1,96.2,1741.7,94.7z"/>
<path d="M1746.5,143.5c11.5-3,21.6-5.1,28.8-6.5c24.5-4.8,34.6-4.9,38.4-4.9c8.8,0,22,0.9,24,3.3c1.9,2.1-6.5,4.2-4.8,4.9
	c1.9,0.7,14.8-1.2,24-4.9c5.8-2.4,4.5-3.1,9.6-4.9c1.6-0.5,13.8-4.7,28.8-3.3c11.2,1.1,20.3,4.9,19.2,8.1
	c-1.5,4.6-22.7,7.5-38.4,8.1c-34.4,1.4-49.4-8.1-76.9-4.9c-7,0.8-10.9,2-24,3.3C1763.5,143,1753.3,143.4,1746.5,143.5z"/>
<path d="M1352.4,167.9c0,0.1,1.6,0.4,9.6,1.6c58.1,3.1,71.3,2.7,72.1,1.6c0.3-0.5-3-1.4-9.6-3.3c-6.2-1.7-18.8-5.1-19.2-4.9
	c-0.8,0.3,30.1,14.9,67.3,14.6c16.4-0.1,36.2-3.1,48.1-4.9c15.2-2.3,26.9-4.8,38.4-3.3c3.9,0.5,9.9,1.9,9.6,3.3
	c-0.5,2.3-18.1,2.5-48.1,6.5c-18.6,2.5-18.5,3.3-33.6,4.9c-15.7,1.6-29.3,3.1-43.3,1.6c-12.7-1.3-13.4-3.8-28.8-8.1
	C1386.8,169.8,1352.7,167.7,1352.4,167.9z"/>
<path d="M867,208.6c-0.2-0.1,0.5-0.4,3.2-2.1c0.7-0.4,1.2-0.8,1.6-1.1c5.7-3.1,15-6.8,28.8-8.1c13.2-1.3,17,0.9,28.8,0
	c24.5-1.8,23.9-12.1,52.9-16.3c14.6-2.1,31.2-1.8,33.6,0c2.4,1.8-10.4,3.9-14.4,9.8c-2.9,4.2,2.2,5.5,0,8.1
	c-7.2,8.5-72.3,9.3-72.1,9.8c0.2,0.4,38,0.3,38.4-1.6c0.5-2-39.8-7.7-72.1-3.3C883.6,205.3,868.1,209.1,867,208.6z"/>
<path d="M1419.7,135.4c1.1-0.9,2.1-2,3-3.2c0.3-0.4,1.2-1.7,1.8-3.3c1-2.9,0.3-5.3,0-6.5c-0.9-4.2-2-9,4.8-11.4
	c5.6-2,12.2-0.8,28.8-1.6c8.1-0.4,25.8-1.3,38.4-4.9c18-5.1,11.6-11.7,28.8-14.6c7.6-1.3,18.8-1.7,24,0c8,2.6,1.9,10-9.6,14.6
	c-8.5,3.3-23.4,5-52.9,8.1c-16,1.7-41.8,4.4-43.3,3.3c-0.6-0.5,3-1.8,4.8-1.6c5,0.6,3.7,14.1-19.2,19.5
	C1425.4,134.7,1421.8,135.2,1419.7,135.4z"/>
<path d="M1804.2,174.4c7.9-0.5,17.9-1.5,28.8-3.3c8-1.3,21.6-3.6,33.6-8.1c12.4-4.7,13.9-8.3,19.2-8.1c8.5,0.3,14.4,9.8,14.4,9.8
	l0,0c-102.2,18.4-100.9,19.5-100.9,19.5c1.9,1.7,43.5-2.8,43.3-3.3c-0.3-0.5-46.2,5.2-81.7-1.6c-2.1-0.4-15.9-3.1-14.4-4.9
	c1.7-2.1,24-1.9,33.6-1.6C1790.5,173.1,1798.7,173.8,1804.2,174.4z"/>
<path d="M1631.2,262.2c2.4,0.8,8.9,2.7,19.2,3.3c1.8,0.1,13.6,0.7,24-1.6c7.3-1.6,8.5-3.3,14.4-6.5c10.8-5.7,16.2-4.8,43.3-14.6
	c8.3-3,13.4-5.1,14.4-4.9c2.4,0.6-24.5,13-19.2,14.6c3.9,1.2,25.4-3.9,24-4.9C1749.8,246.5,1720.3,249.7,1631.2,262.2z"/>
<path d="M746.9,299.6c2.3-2,18.6-0.8,52.9-1.6c17-0.4,25.5-0.6,33.6-1.6c19-2.3,24.7-5.8,33.6-4.9c11.2,1.2,9.1,7.3,19.2,8.1
	c9.8,0.8,26-3.9,24-8.1c-1.1-2.3-7.7-5-14.4-4.9c-14.2,0.3-12.1,13.1-38.4,17.9c-3.8,0.7-10.5,1-24,1.6c-38.3,1.8-60.6,2.7-76.9-1.6
	C755.2,304.2,744.9,301.4,746.9,299.6z"/>
<path d="M1198.6,296.3c-0.2-3.1,18.4-6.2,33.6-6.5c31.4-0.6,59.1,10.7,57.7,11.4c-1.1,0.5-19.2-3.3-19.2-3.3s9.8,1.9,19.2,3.3
	c23.5,3.2,45.6,2.3,62.5,1.6c37-1.6,41.7-5.2,57.7-3.3c18.9,2.4,23.8,9,33.6,8.1c8.2-0.7,14.4-6.1,9.6-8.1c-7.7-3.3-40,4.5-81.7,8.1
	C1289.8,314.8,1198.9,303.2,1198.6,296.3z"/>
<path d="M564.2,88.2c29.8-6.7,34.8-9,33.6-9.8c-1.4-0.9-11.4-0.2-14.4,0c-9.3,0.6-19.8,2.4-19.2,3.3c0.7,1,16.8,0.7,28.8,0
	c14.3-0.9,24.5-2.6,38.4-4.9c13.7-2.3,20.7-3.9,38.4-6.5c13.9-2,19.7-2.6,24-1.6c5.2,1.1,7.6,4.3,4.8,6.5c-5.8,4.4-31,3.3-62.5,4.9
	C618.6,81,593.6,83.1,564.2,88.2z"/>
<path d="M881.4,76.9c0.5,1,5.7,1.8,9.6,1.6c7.4-0.3,12.8-4,14.4-6.5c5.4-8.5-25.1-13.6-19.2-19.5c4.3-4.3,26.4-7.1,38.4-4.9
	c14,2.6,15,12.1,4.8,17.9C915.3,73.5,880.1,74.1,881.4,76.9z"/>
<path d="M967.9,338.6c50.7,3.9,79.1,0.7,96.1-3.3c15.5-3.6,24.5-8.7,52.9-13c10-1.5,31.7-4.7,43.3-1.6c6.8,1.8,3.6,4.1,9.6,6.5
	c10.3,4.1,30.3,1.8,62.5,1.6c19.8-0.1,37.2,1,72.1,3.3c24.8,1.6,58,4.2,57.7,4.9c-0.5,0.9-66-0.2-139.4-4.9
	c-33.4-2.1-58-4.3-91.3-1.6c-21.8,1.7-28.9,4.1-48.1,6.5C1059.2,340.1,1022,342.6,967.9,338.6z"/>
<path d="M1424.5,338.6c40.7,0.1,67-0.4,67.3-1.6c0.3-1.2-24.2-3-24-3.3c0.2-0.3,39.9,6.6,81.7,3.3c13.4-1.1,22.9-2.9,43.3-3.3
	c10-0.2,32.6-0.2,33.6,1.6c1.4,2.3-33.2,7.7-67.3,9.8c-40.2,2.4-74-0.2-91.3-1.6C1449.6,342,1434.9,340.1,1424.5,338.6z"/>
<path d="M155.7,340.3c3.2,0.5,6.4,1.1,9.6,1.6c13.4-3.3,33.8-7.2,57.7-6.5c8.9,0.3,10.6,0.9,33.6,3.3c32.6,3.3,48.9,5,62.5,4.9
	c32.2-0.2,48.4-6.2,57.7-3.3c5.8,1.8,5.6,6,0,8.1c-7.3,2.8-22.3,1.3-43.3,0c-4.4-0.3-33.4-1.3-91.3-3.3c-24.1-0.8-41.5-1.3-67.3-3.3
	C166.9,341.3,160.2,340.7,155.7,340.3z"/>
<path d="M492.1,345.1c17.8-0.5,40.3-1,67.3-1.6c14.8-0.3,27-0.6,43.3,0c11,0.4,20.1,1,28.8,1.6c27,1.9,28.5,2.9,38.4,3.3
	c33.3,1.2,62.2-8.3,62.5-8.1c0.3,0.2-29.6,6-28.8,6.5c0.6,0.4,24.9-3.5,48.1-8.1c19.4-3.9,19.5-4.6,19.2-4.9
	c-1.1-1-14.8-0.3-43.3,1.6c-35.2,2.4-52.9,3.5-67.3,4.9C633,342.8,584.6,345.2,492.1,345.1z"/>
<path d="M847.8,341.9c41.9-1.6,67-2.2,67.3-1.6c0.4,0.9-48.5,3.8-48.1,4.9c0.2,0.5,8.9-0.1,28.8,0c24.5,0.1,35.2,0.9,43.3-1.6
	c1.1-0.3,5.3-1.7,4.8-3.3c-0.6-1.8-6.9-2.8-9.6-3.3C916.6,334.1,857.6,340.7,847.8,341.9z"/>
<path d="M1078.5,345.1c10-2.3,25-5,43.3-4.9c7.4,0.1,10,0.5,24,1.6c19.8,1.6,34.6,2.2,57.7,3.3c32.6,1.4,27.6,0.4,48.1,1.6
	c28.1,1.6,42.8,3.9,48.1,1.6c5.3-2.2-4.8-6.5,0-8.1c7.2-2.5,39.9,2.9,38.4,4.9c-3.2,4.5-183.2-4.7-182.6-8.1
	c0.3-1.9,57.2-2.8,57.7-1.6C1213.5,336.5,1162.1,340.1,1078.5,345.1z"/>
<path d="M1597.6,221.6"/>
<path d="M1405.3,237.8c3.2-5,67.3-4.6,67.3-4.9c0-0.1-18.9,0.6-19.2,0c-0.4-0.7,26.9-4,57.7-4.9c26.4-0.7,46.6,0.5,62.5,1.6
	c9.6,0.6,43.7,2.9,43.3,4.9c-0.5,2.4-55,3.1-72.1,3.3c-73.6,0.9-116.6-2.2-120.2,1.6c-2.8,2.9,20.6,7.5,19.2,8.1
	C1442,248.4,1402.7,241.9,1405.3,237.8z"/>
<path d="M1179.4,161.4c18.2-3.3,39.1-6.6,62.5-9.8c20.5-2.7,39.8-4.8,57.7-6.5"/>
<path d="M1064.1,268.7L1064.1,268.7c0,0,7.1-9.7,24-13c17.4-3.4,43,0.5,43.3,0c0.2-0.3-9.5-0.7-9.6-1.6c-0.2-1.4,24.2-5.2,33.6-1.6
	c6.8,2.6,3.3,7.9-4.8,9.8c-5,1.1-9,0.3-28.8,0c-12.9-0.2-19.3-0.3-24,0C1079.4,263.5,1064.6,268.6,1064.1,268.7z"/>
<path d="M593.1,254.1c3,1.4,8,3.2,14.4,3.3c8.4,0.1,10.8-2.8,19.2-3.3c12.4-0.6,17.1,5.4,33.6,6.5c11.1,0.8,13-1.6,33.6-3.3
	c10.5-0.8,34.9-2.7,52.9,1.6c7.8,1.9,17.4,5.7,14.4,8.1c-4.1,3.4-30.9,2.5-57.7,1.6c-31.2-1-58.1-2-86.5-8.1
	C606.2,258.2,598.2,255.8,593.1,254.1z"/>
<path d="M352.8,288.2c5.4,0.1,12.8-0.1,19.2-1.6c8.3-1.9,10.9-5.1,14.4-4.9c2.7,0.2,1.4,2.1,4.8,3.3c6.2,2.2,21-0.4,38.4-1.6
	c22.9-1.6,43.2-0.5,43.3,0C473,283.8,449.4,285.1,352.8,288.2z"/>
<path d="M650.7,213.4c5.5-2.7,14.6-6.5,28.8-9.8c8.7-2,18.7-3.5,19.2-3.3c0.9,0.5-25.2,5.8-24,6.5c1.1,0.7,30-1.9,48.1-9.8
	c9.8-4.3,13.8-9,14.4-9.8c5.3-6.5,0.8-10.2,9.6-13c5.5-1.8,14.8-2.7,19.2-1.6c8,2-2.2,10.8-4.8,13
	C744.1,200.5,690.6,208.9,650.7,213.4z"/>
<path d="M1660,85c-0.9-2.3-1.1-5.6,4.8-8.1c6.9-2.9,16.7-2.4,33.6-4.9c18.5-2.7,28.5-6.6,28.8-6.5C1727.6,65.6,1715.1,69.3,1660,85z
	"/>
<path d="M1823.4,293.1c0.7-0.8,2-2,4.8-3.3c5.1-2.2,11.7-3,14.4-3.3c11.3,2.2,19,2.1,24,1.6c8.1-0.8,10-2.9,24-6.5
	c9-2.3,15.3-3.9,19.2-3.3c5.5,1,5.2,6.2,0,9.8c-12.2,8.3-53.3,8.2-57.7,8.1L1823.4,293.1z"/>
<path d="M1823.4,328.9c13.8-5.2,23.1-9.8,28.8-13c12.8-7.2,15.8-11.3,28.8-13c8-1,21.3-1.3,28.8,1.6c7.4,2.9,6.5,7.9,0,9.8
	c-5.7,1.6-12.2-0.1-24,1.6c-9,1.3-13.3,3.6-14.4,3.3c-1.8-0.5,9.8-6.5,9.6-6.5c-0.3-0.1-11,8.2-33.6,13
	C1838.5,327.5,1829.8,328.4,1823.4,328.9z"/>
<path d="M1823.4,192.3c10.9-3.4,27-8.1,48.1-13c18.7-4.4,33.7-7.9,38.4-6.5c4.3,1.2,0,6.5-9.6,9.8c-8.9,3-18.6,3-38.4,4.9
	C1852.7,188.3,1839.3,189.8,1823.4,192.3z"/>
<path d="M45.2,13.4c29-3.4,57.4-6.7,57.7-6.5c0.3,0.3-44.3,5.2-43.3,6.5c1.2,1.4,60.9-0.4,62.5-4.9c1.1-3.2-26.8-8.9-48.1-6.5
	C63.6,3.3,56.5,6.2,54.8,6.9C48.8,9.4,46.3,11.9,45.2,13.4z"/>
<path d="M16.3,26.5c4.1-1.1,9-2.7,9.6-4.9c1-3.5-10.2-6.3-9.6-6.5c0.9-0.3,28.4,6.5,24,9.8C37.3,27.1,20.2,26.6,16.3,26.5z"/>
<path d="M179.7,5.3c3.1,0.9,7.9,2.2,14.4,3.3c7.5,1.2,13.3,2.2,19.2,1.6c6.4-0.6,5.7-2.3,14.4-4.9c3-0.9,13-3.8,24-3.3
	c7.4,0.3,15,2.2,14.4,3.3C265.3,6.8,247,7.6,179.7,5.3z"/>
<path d="M376.8,88.2c32.6-5.5,38.4-6.5,38.4-6.5l0,0c0,0,1.9-11.4,19.2-14.6c6.8-1.3,9.2-0.1,19.2-1.6c11.8-1.8,21-5.5,19.2-6.5
	c-2.4-1.4-24.2,1.4-24,1.6c0.2,0.2,12.9-0.5,24-1.6c17.6-1.7,30.1-4.1,33.6-4.9c13.6-2.8,21.8-5.6,33.6-9.8
	c17.8-6.2,28.5-11.5,28.8-11.4c0.7,0.2-52.5,23-48.1,24.4c4.4,1.3,64.9-18.6,62.5-19.5C581.4,37,533.5,51,439.2,73.6
	C413.2,79.8,391.5,84.9,376.8,88.2z"/>
<path d="M218.2,172.8"/>
<path d="M136.5,184.2c7.3,3.5,14.3,4.5,19.2,4.9c9.4,0.7,14.4-1,38.4-3.3c15.3-1.4,14.1-0.8,19.2-1.6c17.5-2.8,25.6-8.9,28.8-11.4
	c6.4-4.8,2.6-5.4,9.6-9.8c4-2.5,10.7-6.6,24-8.1c3.5-0.4,12.4-1.5,19.2,0c9.4,2,10.1,7.7,4.8,11.4c-4.3,3-9.2,2.3-24,6.5
	c-15.7,4.4-16,6.8-33.6,11.4c0,0-7.5,1.9-14.4,3.3C198,193.1,148.1,185.9,136.5,184.2z"/>
<path d="M665.2,137c7.2-2.7,18.3-6.3,33.6-9.8c12.7-2.8,22.9-4.3,38.4-6.5c19.9-2.8,45.3-6.4,48.1-4.9c2.7,1.5-15.5,7.5-33.6,11.4
	c-22.3,4.8-45.7,6.8-62.5,8.1C679.2,136.2,670.8,136.7,665.2,137z"/>
<path d="M1222.7,117.5c7.1-1,17.2-2.6,28.8-4.9c12.6-2.5,21.8-4.7,28.8-6.5c19-4.7,22.8-6.5,38.4-9.8c12-2.5,18-3.7,19.2-3.3
	c4,1.5-32,21.4-86.5,24.4C1238.9,118.2,1228.4,117.8,1222.7,117.5z"/>
<path d="M1265.9,159.8c10.9-3.7,21.2-5.5,28.8-6.5c8.1-1,9.2-0.6,14.4-1.6c14.3-2.8,14.9-7.9,24-8.1c3.9-0.1,8.9,0.7,9.6,1.6
	C1344.2,147,1330.4,150.9,1265.9,159.8z"/>
<path d="M992,169.5c6-1.7,14.6-3.6,24-3.3c11.7,0.5,15.8,4.1,28.8,6.5c7.8,1.4,19.8,2.7,38.4,1.6"/>
<path d="M1530.3,255.7L1530.3,255.7c12.5-2.6,22.4-4.9,28.8-6.5c21-5.1,29-7.8,43.3-8.1c8.3-0.2,18.5,0.4,19.2,1.6
	c0.9,1.4-11.8,2.4-28.8,6.5c-23.2,5.5-25.8,9.9-38.4,9.8C1543.8,258.8,1530.4,255.7,1530.3,255.7z"/>
<path d="M1799.4,232.9c11-0.9,27.1-2.6,43.3-6.5c10.8-2.6,12.8-4,24-6.5c19.2-4.2,44.2-6.8,48.1-4.9c3.8,1.9-13.1,7.7-14.4,8.1
	c-2.6,0.9-10.2,3.4-28.8,6.5c-8.9,1.5-21.9,3.4-38.4,4.9L1799.4,232.9z"/>
<path d="M1040,203.7c17.6-3.5,32.6-4.6,43.3-4.9c23.8-0.7,40.2,2,52.9-1.6c7.2-2.1,8.5-4.9,14.4-4.9c6,0,8.4,2.8,14.4,4.9
	c19.3,6.5,67.5,1.6,67.3,0c-0.2-1.1-24-1.6-24-1.6c0,0,12.8,0.3,43.3,1.6c10.9,0.5,14.5,0.6,19.2,0c13.9-1.9,18.5-8.2,19.2-8.1
	c0.5,0.1-2.8,3.4-4.8,3.3c-2.8-0.2,2-6.8-4.8-8.1c-5.7-1.1-12.7,2.9-28.8,4.9c-23.4,2.9-47.8-0.4-48.1,0c-0.2,0.3,14.6,1.4,14.4,1.6
	c-0.2,0.3-21.6-1.5-43.3-1.6c-22.6-0.1-38.7,1.6-67.3,4.9C1090,195.9,1066.6,198.9,1040,203.7z"/>
<path d="M1842.7,13.4c13.3-1.7,24.8-3.6,24-4.9c-0.7-1.3-14.5-1.4-14.4-1.6c0.1-0.5,62.4,0.2,62.5,1.6c0,0.5-8.3,1.2-14.4,1.6
	c-11.5,0.9-15.2,0.5-19.2,1.6c-4.2,1.2-7,3.5-4.8,4.9c4.8,2.9,33.6,1.1,33.6,0C1910,16,1897.4,14.9,1842.7,13.4z"/>
<path d="M1847.5,63.8c7.6-4.3,14.4-7.5,19.2-9.8c3.2-1.5,5.9-2.6,4.8-3.3c-1.9-1-13.8,0.3-24,1.6"/>
<path d="M1881.1,106.1c3.2-1.6,6.4-3.3,9.6-4.9c12.6-4.3,17.7-5.3,19.2-4.9c3.3,0.8-8.6,8.3-9.6,8.1c-1.5-0.2,22.8-18.9,19.2-19.5
	C1917.1,84.6,1902.3,93,1881.1,106.1z"/>
</svg>
